<svg xmlns="http://www.w3.org/2000/svg" width="68" height="61" viewBox="0 0 68 61">
    <g fill="none" fill-rule="evenodd">
        <g fill-rule="nonzero">
            <g>
                <g>
                    <g>
                        <g>
                            <path fill="#2684FC" d="M19.767 30l6.956 12.609H5.853L.867 33.567c-1.216-2.203-1.147-4.89.18-7.029l5.677-9.147h20L19.767 30z" transform="translate(-1005 -2682) translate(-501 2023.947) translate(0 68.053) translate(1480 250.947) translate(26.5 340)"/>
                            <path fill="#2684FC" d="M40.636 17.391L47.593 30l10.435-17.826-4.954-8.669C51.836 1.338 49.531 0 47.034 0H36.29l-9.566 17.391h13.913z" transform="translate(-1005 -2682) translate(-501 2023.947) translate(0 68.053) translate(1480 250.947) translate(26.5 340)"/>
                            <path fill="#0066DA" d="M26.723 17.391L36.29 0H20.7c-2.496 0-4.8 1.337-6.04 3.504L6.723 17.391h20z" transform="translate(-1005 -2682) translate(-501 2023.947) translate(0 68.053) translate(1480 250.947) translate(26.5 340)"/>
                            <path fill="#2684FC" d="M40.636 42.609H26.723l10 17.347H47.45c2.5 0 4.808-1.341 6.045-3.513l5.403-9.486L47.593 30l-6.957 12.609z" transform="translate(-1005 -2682) translate(-501 2023.947) translate(0 68.053) translate(1480 250.947) translate(26.5 340)"/>
                            <path fill="#0066DA" d="M36.723 60h-17.11c-2.527 0-4.854-1.37-6.081-3.577L5.854 42.609h20.87l10 17.391zM47.593 30l10.435-17.826 8.42 14.385c1.248 2.132 1.272 4.764.064 6.918l-8.05 14.35L47.594 30z" transform="translate(-1005 -2682) translate(-501 2023.947) translate(0 68.053) translate(1480 250.947) translate(26.5 340)"/>
                        </g>
                    </g>
                </g>
            </g>
        </g>
    </g>
</svg>
