<svg xmlns="http://www.w3.org/2000/svg" width="60" height="61" viewBox="0 0 60 61">
    <g fill="none" fill-rule="evenodd">
        <g fill-rule="nonzero">
            <g>
                <g>
                    <g>
                        <g>
                            <g>
                                <path fill="#FFF" d="M45.789 14.211L14.211 14.211 14.211 45.789 45.789 45.789z" transform="translate(-369 -2489) translate(-501 2023.947) translate(0 68.053) translate(680 251.947) translate(182 146) translate(8)"/>
                                <path fill="#4285F4" d="M20.688 38.708c-1.18-.797-1.997-1.962-2.443-3.501l2.74-1.13c.248.948.682 1.682 1.302 2.203.616.521 1.366.778 2.242.778.896 0 1.666-.272 2.31-.817.643-.545.966-1.24.966-2.08 0-.861-.34-1.564-1.018-2.108-.68-.545-1.532-.817-2.55-.817h-1.583v-2.712h1.421c.876 0 1.614-.237 2.214-.71.6-.475.9-1.122.9-1.947 0-.734-.268-1.318-.805-1.756-.537-.439-1.216-.66-2.04-.66-.806 0-1.445.213-1.919.644-.474.43-.817.959-1.034 1.583l-2.712-1.13c.36-1.018 1.018-1.918 1.985-2.695.968-.778 2.203-1.169 3.703-1.169 1.11 0 2.108.213 2.992.644.884.43 1.58 1.026 2.08 1.784.502.762.75 1.614.75 2.562 0 .967-.232 1.784-.698 2.455-.466.671-1.038 1.184-1.717 1.543v.162c.896.375 1.626.948 2.202 1.717.573.77.86 1.69.86 2.763 0 1.074-.272 2.033-.816 2.874-.545.84-1.299 1.504-2.254 1.986-.96.481-2.037.726-3.233.726-1.386.004-2.665-.395-3.845-1.192zM37.516 25.113L34.508 27.288 33.004 25.007 38.4 21.114 40.468 21.114 40.468 39.474 37.516 39.474z" transform="translate(-369 -2489) translate(-501 2023.947) translate(0 68.053) translate(680 251.947) translate(182 146) translate(8)"/>
                                <path fill="#34A853" d="M45.789 45.789L14.211 45.789 14.211 60 45.789 60z" transform="translate(-369 -2489) translate(-501 2023.947) translate(0 68.053) translate(680 251.947) translate(182 146) translate(8)"/>
                                <path fill="#4285F4" d="M45.79 0H4.736C2.12 0 0 2.12 0 4.737v41.052h14.21V14.211h31.58V0z" transform="translate(-369 -2489) translate(-501 2023.947) translate(0 68.053) translate(680 251.947) translate(182 146) translate(8)"/>
                                <path fill="#188038" d="M0 45.79v9.473C0 57.88 2.12 60 4.737 60h9.474V45.79H0z" transform="translate(-369 -2489) translate(-501 2023.947) translate(0 68.053) translate(680 251.947) translate(182 146) translate(8)"/>
                                <path fill="#FBBC04" d="M60 14.211L45.789 14.211 45.789 45.789 60 45.789z" transform="translate(-369 -2489) translate(-501 2023.947) translate(0 68.053) translate(680 251.947) translate(182 146) translate(8)"/>
                                <path fill="#1967D2" d="M60 14.21V4.738C60 2.12 57.88 0 55.263 0H45.79v14.21H60z" transform="translate(-369 -2489) translate(-501 2023.947) translate(0 68.053) translate(680 251.947) translate(182 146) translate(8)"/>
                                <path fill="#EA4335" d="M45.789 60L60 45.789 45.789 45.789z" transform="translate(-369 -2489) translate(-501 2023.947) translate(0 68.053) translate(680 251.947) translate(182 146) translate(8)"/>
                            </g>
                        </g>
                    </g>
                </g>
            </g>
        </g>
    </g>
</svg>
