<svg xmlns="http://www.w3.org/2000/svg" width="59" height="61" viewBox="0 0 59 61">
    <g fill="none" fill-rule="evenodd">
        <g fill-rule="nonzero">
            <g>
                <g>
                    <g>
                        <g>
                            <g>
                                <path fill="#174EA6" d="M5.2 41.535l-.074-.555 5.118-11.124.185.091h.036l.027.066-.008.286-5.118 11.217-.165.019zM21 29.985l.203.055 5.046-11.367-.036-.276-.148.055-5.129 11.366.064.167zm27.19-.063l-8.458 18.581-8.407-18.554-5.267 11.63 5.775 12.744C33.443 57.877 36.396 60 39.73 60c3.334 0 6.286-2.121 7.895-5.673l5.85-12.794-5.285-11.611z" transform="translate(-372 -2868) translate(-501 2023.947) translate(0 68.053) translate(680 251.947) translate(186 525) translate(7)"/>
                                <path fill="#4285F4" d="M47.655 5.663C46.053 2.117 43.12 0 39.805 0c-3.316 0-6.251 2.117-7.851 5.667l-16.22 35.995-5.267-11.713L5.2 41.54l3.45 7.649c1.422 3.15 4.069 5.033 7.08 5.033 3.012 0 5.659-1.882 7.08-5.033l16.995-37.712 13.662 30.108 5.341-11.707L47.655 5.663z" transform="translate(-372 -2868) translate(-501 2023.947) translate(0 68.053) translate(680 251.947) translate(186 525) translate(7)"/>
                                <path fill="#174EA6" d="M22.812 10.83c-1.422-3.152-4.07-5.034-7.08-5.034-3.012 0-5.66 1.882-7.081 5.033L0 29.877l5.199 11.66L15.73 18.355l5.258 11.651L26.228 18.4l-3.416-7.57z" transform="translate(-372 -2868) translate(-501 2023.947) translate(0 68.053) translate(680 251.947) translate(186 525) translate(7)"/>
                            </g>
                        </g>
                    </g>
                </g>
            </g>
        </g>
    </g>
</svg>
