<svg xmlns="http://www.w3.org/2000/svg" width="44" height="61" viewBox="0 0 44 61">
    <g fill="none" fill-rule="evenodd">
        <g fill-rule="nonzero">
            <g>
                <g>
                    <g>
                        <g>
                            <g>
                                <path fill="#7248B9" d="M39.545 60H4.091C1.83 60 0 58.17 0 55.91V4.09C0 1.83 1.83 0 4.09 0h24.546l15 15v40.91c0 2.26-1.83 4.09-4.09 4.09z" transform="translate(-536 -2682) translate(-501 2023.947) translate(0 68.053) translate(1000 252.947) translate(33 338) translate(4)"/>
                                <path fill="#56368A" d="M28.636 0L43.636 15 28.636 15z" transform="translate(-536 -2682) translate(-501 2023.947) translate(0 68.053) translate(1000 252.947) translate(33 338) translate(4)"/>
                                <path fill="#FFF" d="M34.091 23.182L17.045 23.182 17.045 26.591 34.091 26.591zM11.59 26.932c1.13 0 2.046-.916 2.046-2.046s-.915-2.045-2.045-2.045-2.046.916-2.046 2.045c0 1.13.916 2.046 2.046 2.046zM34.091 31.364L17.045 31.364 17.045 34.773 34.091 34.773zM11.59 35.114c1.13 0 2.046-.916 2.046-2.046s-.915-2.045-2.045-2.045-2.046.915-2.046 2.045.916 2.046 2.046 2.046zM34.091 39.545L17.045 39.545 17.045 42.955 34.091 42.955zM11.59 43.295c1.13 0 2.046-.915 2.046-2.045s-.915-2.045-2.045-2.045-2.046.915-2.046 2.045.916 2.045 2.046 2.045z" transform="translate(-536 -2682) translate(-501 2023.947) translate(0 68.053) translate(1000 252.947) translate(33 338) translate(4)"/>
                            </g>
                        </g>
                    </g>
                </g>
            </g>
        </g>
    </g>
</svg>
