<svg xmlns="http://www.w3.org/2000/svg" width="59" height="61" viewBox="0 0 59 61">
    <g fill="none" fill-rule="evenodd">
        <g fill-rule="nonzero">
            <g>
                <g>
                    <g>
                        <g>
                            <path fill="#00832D" d="M5.506 35.154l5.746-2.887 2.493-5.268.07-.24-4.549-7.717-8.972-5.803c-1.07 6.507.803 14.366 5.212 21.915zM46.786 59.73c-6.648 1.085-14.746-1.14-23.281-6.041l3.45-5.226 5.17-3.408 9.9 5.944 4.761 8.732z" transform="translate(-209 -2868) translate(-501 2023.947) translate(0 68.053) translate(680 251.947) translate(30 525)"/>
                            <g>
                                <path fill="#00832D" d="M0 12.07v14.493c0 .887.718 1.605 1.606 1.605h14.492c0-4.45-1-9.267-3.915-12.183C9.267 13.07 4.45 12.07 0 12.07z" transform="translate(-209 -2868) translate(-501 2023.947) translate(0 68.053) translate(680 251.947) translate(30 525) translate(30.716)"/>
                                <path fill="#34A853" d="M2.408 0C1.084 0 0 1.084 0 2.408v9.662c8.887 0 16.098 7.211 16.098 16.098h9.662c1.338 0 2.408-1.084 2.408-2.408C28.168 11.535 16.633 0 2.408 0z" transform="translate(-209 -2868) translate(-501 2023.947) translate(0 68.053) translate(680 251.947) translate(30 525) translate(30.716)"/>
                            </g>
                            <path fill="#34A853" d="M39.983 37.196l-7.859 7.873 14.662 14.662c3.775-.55 6.605-2.155 9.183-4.733l.662-.633c1.253-1.198 1.296-3.183.112-4.451l-12.76-12.718c-1.112-1.098-2.901-1.098-4 0z" transform="translate(-209 -2868) translate(-501 2023.947) translate(0 68.053) translate(680 251.947) translate(30 525)"/>
                            <path fill="#34A853" d="M32.124 45.07L13.815 26.76l-8.31 8.394c2.1 3.465 5.155 7.479 8.31 10.633 2.901 2.902 6.437 5.803 9.69 7.887l8.62-8.605zM4.9 3.873C2.407 6.38.886 9.591.294 13.24l13.521 13.52 7.93-7.872c1.112-1.099 1.112-2.902 0-4L9.759 2.986C8.674 1.9 6.914 1.887 5.8 2.972l-.901.901z" transform="translate(-209 -2868) translate(-501 2023.947) translate(0 68.053) translate(680 251.947) translate(30 525)"/>
                        </g>
                    </g>
                </g>
            </g>
        </g>
    </g>
</svg>
