<svg xmlns="http://www.w3.org/2000/svg" width="44" height="61" viewBox="0 0 44 61">
    <g fill="none" fill-rule="evenodd">
        <g fill-rule="nonzero">
            <g>
                <g>
                    <g>
                        <g>
                            <g>
                                <path fill="#FFF" d="M32.045 23.182H8.181V41.59h27.274V23.18h-3.41zm0 15H11.591V26.59h20.454v11.59z" transform="translate(-697 -2490) translate(-501 2023.947) translate(0 68.053) translate(1000 252.947) translate(192 146) translate(6)"/>
                                <path fill="#00AC47" d="M39.545 60H4.091C1.83 60 0 58.17 0 55.91V4.09C0 1.83 1.83 0 4.09 0h24.546l15 15v40.91c0 2.26-1.83 4.09-4.09 4.09z" transform="translate(-697 -2490) translate(-501 2023.947) translate(0 68.053) translate(1000 252.947) translate(192 146) translate(6)"/>
                                <path fill="#00832D" d="M28.636 0L43.636 15 28.636 15z" transform="translate(-697 -2490) translate(-501 2023.947) translate(0 68.053) translate(1000 252.947) translate(192 146) translate(6)"/>
                                <path fill="#FFF" d="M32.045 23.182H8.181v19.773H35.456V23.18h-3.41zM11.591 26.59h8.523v4.773H11.59V26.59zm0 12.954v-4.772h8.523v4.772H11.59zm20.454 0h-8.522v-4.772h8.522v4.772zm0-8.181h-8.522V26.59h8.522v4.773z" transform="translate(-697 -2490) translate(-501 2023.947) translate(0 68.053) translate(1000 252.947) translate(192 146) translate(6)"/>
                            </g>
                        </g>
                    </g>
                </g>
            </g>
        </g>
    </g>
</svg>
