<svg xmlns="http://www.w3.org/2000/svg" width="757" height="97" viewBox="0 0 757 97">
    <g fill="none" fill-rule="evenodd">
        <g fill-rule="nonzero">
            <g>
                <g>
                    <g fill="#5F6368">
                        <path d="M73.836 0L82.761 0 65.002 66.838 56.259 66.838 41.936 22.78 41.562 22.78 27.24 66.838 18.497 66.838 0 0 8.925 0 22.964 52.561 23.338 52.561 37.752 8.97 45.747 8.97 60.16 52.561 60.534 52.561zM81.952 43.967c0-7.032 2.204-12.846 6.6-17.453 4.468-4.607 10.078-6.91 16.83-6.91 6.751 0 12.34 2.303 16.738 6.91 4.467 4.607 6.69 10.42 6.69 17.453 0 7.092-2.233 12.917-6.69 17.453-4.407 4.606-9.987 6.91-16.739 6.91-6.761 0-12.371-2.304-16.829-6.91-4.396-4.597-6.6-10.421-6.6-17.453zm8.551 0c0 4.921 1.425 8.899 4.276 11.953 2.85 3.054 6.388 4.576 10.602 4.576 4.215 0 7.753-1.522 10.603-4.576 2.85-3.044 4.276-7.032 4.276-11.953 0-4.85-1.425-8.808-4.276-11.852-2.91-3.115-6.448-4.667-10.603-4.667-4.154 0-7.691 1.552-10.602 4.667-2.85 3.044-4.276 7.002-4.276 11.852zM143.447 66.838h-8.551V21.096h8.187v7.468h.374c.869-2.425 2.648-4.495 5.347-6.21 2.698-1.715 5.347-2.567 7.954-2.567 2.477 0 4.59.375 6.328 1.116l-2.608 8.31c-1.051-.436-2.73-.65-5.024-.65-3.224 0-6.034 1.31-8.42 3.917-2.385 2.618-3.577 5.662-3.577 9.153v25.205h-.01zM207.104 66.838L196.784 66.838 182.553 45.276 175.579 52.186 175.579 66.838 167.028 66.838 167.028 0 175.579 0 175.579 41.166 195.288 21.096 206.265 21.096 206.265 21.471 188.506 39.208 207.104 66.463z" transform="translate(-499 -678) translate(19.5 560) translate(479.5 118) translate(321 7)"/>
                        <path d="M244.128 54.144c0 3.988-1.738 7.347-5.205 10.086-3.477 2.74-7.844 4.11-13.11 4.11-4.589 0-8.622-1.198-12.089-3.592-3.477-2.395-5.953-5.55-7.439-9.478l7.621-3.267c1.112 2.74 2.74 4.87 4.882 6.393 2.143 1.522 4.478 2.283 7.025 2.283 2.73 0 5.003-.589 6.833-1.776 1.83-1.177 2.739-2.577 2.739-4.2 0-2.923-2.234-5.074-6.691-6.444L220.88 46.3c-8.865-2.243-13.302-6.535-13.302-12.887 0-4.17 1.688-7.519 5.064-10.035 3.376-2.517 7.702-3.785 12.968-3.785 4.033 0 7.672.964 10.926 2.892 3.255 1.928 5.53 4.515 6.833 7.752l-7.621 3.176c-.87-1.928-2.274-3.44-4.235-4.526-1.95-1.085-4.134-1.633-6.56-1.633-2.234 0-4.235.558-5.994 1.684-1.758 1.126-2.648 2.486-2.648 4.11 0 2.618 2.446 4.485 7.348 5.6l6.883 1.776c9.057 2.233 13.585 6.81 13.585 13.72zM273.834 68.33c-3.345 0-6.398-.72-9.157-2.152-2.76-1.43-4.882-3.328-6.368-5.692h-.374l.374 6.352V87h-8.551V21.096h8.187v6.352h.374c1.486-2.365 3.608-4.262 6.368-5.693 2.76-1.43 5.812-2.151 9.157-2.151 6.014 0 11.098 2.364 15.253 7.093 4.275 4.789 6.418 10.552 6.418 17.27 0 6.788-2.143 12.541-6.418 17.27-4.165 4.728-9.249 7.093-15.263 7.093zm-1.395-7.834c4.094 0 7.53-1.552 10.32-4.667 2.79-3.045 4.185-7.002 4.185-11.852 0-4.79-1.395-8.747-4.185-11.852-2.79-3.115-6.226-4.667-10.32-4.667-4.154 0-7.62 1.552-10.41 4.667-2.73 3.115-4.094 7.063-4.094 11.852 0 4.85 1.365 8.838 4.094 11.953 2.78 3.034 6.256 4.566 10.41 4.566zM318.934 19.604c6.327 0 11.31 1.694 14.97 5.084 3.658 3.389 5.488 8.046 5.488 13.952v28.188h-8.187v-6.352h-.374c-3.538 5.226-8.248 7.843-14.13 7.843-5.024 0-9.219-1.491-12.605-4.485-3.376-2.983-5.064-6.717-5.064-11.202 0-4.728 1.78-8.493 5.347-11.293 3.568-2.8 8.319-4.201 14.272-4.201 5.084 0 9.269.933 12.554 2.8V37.98c0-2.983-1.183-5.52-3.538-7.61-2.355-2.08-5.114-3.125-8.278-3.125-4.77 0-8.551 2.019-11.34 6.067l-7.53-4.758c4.153-5.967 10.289-8.95 18.415-8.95zm-11.068 33.231c0 2.243.94 4.11 2.84 5.601 1.89 1.492 4.104 2.243 6.651 2.243 3.599 0 6.803-1.34 9.623-4.018 2.82-2.68 4.235-5.815 4.235-9.427-2.669-2.11-6.388-3.176-11.159-3.176-3.477 0-6.368.842-8.692 2.517-2.335 1.684-3.498 3.774-3.498 6.26zM368.39 68.33c-6.761 0-12.371-2.304-16.829-6.91-4.407-4.729-6.6-10.553-6.6-17.453 0-7.032 2.204-12.846 6.6-17.453 4.468-4.607 10.078-6.91 16.83-6.91 4.649 0 8.712 1.167 12.18 3.5 3.466 2.334 6.074 5.551 7.812 9.66l-7.813 3.268c-2.416-5.723-6.66-8.584-12.735-8.584-3.902 0-7.288 1.582-10.138 4.758-2.79 3.176-4.185 7.093-4.185 11.76 0 4.668 1.395 8.585 4.185 11.761 2.85 3.176 6.226 4.759 10.138 4.759 6.256 0 10.663-2.861 13.2-8.584l7.621 3.267c-1.678 4.11-4.296 7.326-7.853 9.66-3.558 2.334-7.702 3.5-12.413 3.5zM414.43 68.33c-6.69 0-12.21-2.304-16.556-6.91-4.336-4.607-6.509-10.421-6.509-17.453 0-6.971 2.102-12.775 6.327-17.412 4.215-4.638 9.613-6.951 16.183-6.951 6.751 0 12.139 2.192 16.131 6.585C434.01 30.573 436 36.722 436 44.626l-.091.934h-35.801c.121 4.485 1.607 8.087 4.468 10.827 2.85 2.74 6.256 4.11 10.228 4.11 5.459 0 9.734-2.74 12.837-8.22l7.621 3.734c-2.042 3.856-4.882 6.88-8.51 9.051-3.629 2.172-7.733 3.268-12.322 3.268zm-13.665-29.873h26.128c-.253-3.176-1.536-5.804-3.861-7.884s-5.438-3.125-9.35-3.125c-3.224 0-5.993.994-8.318 2.983-2.325 1.999-3.861 4.667-4.599 8.026z" transform="translate(-499 -678) translate(19.5 560) translate(479.5 118) translate(321 7)"/>
                    </g>
                    <g>
                        <path fill="#4285F4" d="M38.145 75.256C17.415 75.256 0 58.362 0 37.628S17.416 0 38.145 0c11.466 0 19.618 4.496 25.76 10.367l-7.243 7.245c-4.404-4.133-10.364-7.346-18.517-7.346-15.122 0-26.952 12.206-26.952 27.352S23.023 64.96 38.145 64.96c9.81 0 15.406-3.94 18.982-7.528 2.93-2.94 4.86-7.154 5.597-12.943H37.873V34.233h34.831c.364 1.839.546 4.042.546 6.426 0 7.71-2.111 17.258-8.89 24.048-6.597 6.87-15.032 10.549-26.215 10.549z" transform="translate(-499 -678) translate(19.5 560) translate(479.5 118)"/>
                        <path fill="#EA4335" d="M125.427 51.026c0 13.954-10.9 24.23-24.265 24.23S76.887 64.97 76.887 51.026c0-14.045 10.9-24.23 24.265-24.23s24.275 10.185 24.275 24.23zm-10.627 0c0-8.72-6.324-14.681-13.648-14.681s-13.648 5.961-13.648 14.681c0 8.629 6.324 14.681 13.648 14.681 7.334 0 13.648-6.062 13.648-14.681z" transform="translate(-499 -678) translate(19.5 560) translate(479.5 118)"/>
                        <path fill="#FBBC04" d="M178.25 51.026c0 13.954-10.9 24.23-24.265 24.23S129.71 64.97 129.71 51.026c0-14.045 10.9-24.23 24.265-24.23s24.276 10.185 24.276 24.23zm-10.627 0c0-8.72-6.324-14.681-13.648-14.681s-13.648 5.961-13.648 14.681c0 8.629 6.324 14.681 13.648 14.681s13.648-6.062 13.648-14.681z" transform="translate(-499 -678) translate(19.5 560) translate(479.5 118)"/>
                        <path fill="#4285F4" d="M228.78 28.261V71.76c0 17.894-10.546 25.24-23.012 25.24-11.738 0-18.8-7.891-21.456-14.318l9.263-3.85c1.647 3.951 5.688 8.63 12.193 8.63 7.981 0 12.931-4.951 12.931-14.227v-3.486h-.364c-2.384 2.94-6.97 5.507-12.748 5.507-12.103 0-23.195-10.549-23.195-24.139 0-13.671 11.092-24.32 23.195-24.32 5.778 0 10.364 2.566 12.748 5.415h.364v-3.95h10.082zm-9.354 22.856c0-8.538-5.687-14.772-12.93-14.772-7.334 0-13.476 6.244-13.476 14.772 0 8.447 6.142 14.59 13.476 14.59 7.243 0 12.93-6.153 12.93-14.59z" transform="translate(-499 -678) translate(19.5 560) translate(479.5 118)"/>
                        <path fill="#34A853" d="M247.066 2.566L247.066 73.781 236.428 73.781 236.428 2.566z" transform="translate(-499 -678) translate(19.5 560) translate(479.5 118)"/>
                        <path fill="#EA4335" d="M288.292 59.008l8.253 5.507c-2.656 3.95-9.081 10.74-20.173 10.74-13.75 0-24.023-10.649-24.023-24.229 0-14.409 10.365-24.23 22.83-24.23 12.557 0 18.7 10.003 20.72 15.42L297 44.963l-32.367 13.398c2.475 4.86 6.324 7.345 11.739 7.345 5.404 0 9.172-2.657 11.92-6.699zm-25.396-8.72l21.638-8.992c-1.192-3.032-4.768-5.143-8.98-5.143-5.415 0-12.931 4.779-12.658 14.135z" transform="translate(-499 -678) translate(19.5 560) translate(479.5 118)"/>
                    </g>
                </g>
            </g>
        </g>
    </g>
</svg>
