<?xml version="1.0" encoding="UTF-8"?>
<svg width="427px" height="503px" viewBox="0 0 427 503" version="1.1" xmlns="http://www.w3.org/2000/svg" xmlns:xlink="http://www.w3.org/1999/xlink">
    <!-- Generator: Sketch 59 (86127) - https://sketch.com -->
    <title>go-global</title>
    <desc>Created with Sketch.</desc>
    <defs>
        <path d="M0.982,59.43 C18.046,45.089 66.556,25.24 119.025,4.449 L119.025,4.449 C120.256,3.962 121.837,3.151 122.977,2.478 L122.977,2.478 C122.967,2.352 122.849,1.24 121.577,0.959 L121.577,0.959 C33.303,35.796 14.041,46.114 0.982,59.43" id="path-1"></path>
        <linearGradient x1="-0.000285831387%" y1="49.9998238%" x2="99.9998728%" y2="49.9998238%" id="linearGradient-3">
            <stop stop-color="#3D87ED" offset="0%"></stop>
            <stop stop-color="#62E8F9" offset="100%"></stop>
        </linearGradient>
        <path d="M6.133,69.635 C5.464,70.371 2.552,73.792 0.986,75.99 L0.986,75.99 C20.091,58.382 81.961,32.853 154.826,3.744 L154.826,3.744 L155.125,3.05 C155.089,2.879 154.725,1.372 152.827,0.984 L152.827,0.984 C83.562,28.624 24.715,52.867 6.133,69.635" id="path-4"></path>
        <linearGradient x1="-0.000225186358%" y1="49.9996332%" x2="100.000176%" y2="49.9996332%" id="linearGradient-6">
            <stop stop-color="#3D87ED" offset="0%"></stop>
            <stop stop-color="#62E8F9" offset="100%"></stop>
        </linearGradient>
        <path d="M0.27,80.851 C15.913,65.612 62.337,43.067 155.497,5.471 L155.497,5.471 C156.221,5.179 157.351,4.652 157.568,3.905 L157.568,3.905 C157.571,3.88 157.922,1.486 155.69,0.82 L155.69,0.82 C21.685,54.894 5.706,69.533 0.27,80.851" id="path-7"></path>
        <linearGradient x1="-0.000157322875%" y1="50.0000891%" x2="100.000065%" y2="50.0000891%" id="linearGradient-9">
            <stop stop-color="#3D87ED" offset="0%"></stop>
            <stop stop-color="#62E8F9" offset="100%"></stop>
        </linearGradient>
        <path d="M0.029,96.683 C17.601,78.855 71.518,52.764 186.133,6.626 L186.133,6.626 C187.294,6.158 189.401,5.577 189.629,4.345 L189.629,4.345 C189.621,3.88 189.441,1.524 186.842,0.847 L186.842,0.847 C22.092,67.169 4.467,84.023 0.029,96.683" id="path-10"></path>
        <linearGradient x1="0.000291402954%" y1="50.0000152%" x2="100.000077%" y2="50.0000152%" id="linearGradient-12">
            <stop stop-color="#3D87ED" offset="0%"></stop>
            <stop stop-color="#62E8F9" offset="100%"></stop>
        </linearGradient>
        <path d="M0.463,119.158 C25.917,92.564 132.979,48.404 240.459,5.453 L240.459,5.453 C240.605,5.094 240.938,4.644 240.947,4.255 L240.947,4.255 C240.847,3.76 240.176,1.252 236.942,0.532 L236.942,0.532 C63.575,69.822 3.904,99.755 0.463,119.158" id="path-13"></path>
        <linearGradient x1="-0.000352040053%" y1="50.0001039%" x2="100.000229%" y2="50.0001039%" id="linearGradient-15">
            <stop stop-color="#3D87ED" offset="0%"></stop>
            <stop stop-color="#62E8F9" offset="100%"></stop>
        </linearGradient>
        <path d="M0.752,144.964 C30.467,113.251 175.093,55.55 280.694,13.418 L280.694,13.418 C298.232,6.422 298.232,6.422 301.339,4.033 L301.339,4.033 C301.216,3.716 300.03,0.91 296.292,0.079 L296.292,0.079 C124.906,69.041 1.08,118.867 0.752,144.964" id="path-16"></path>
        <linearGradient x1="8.83937096e-05%" y1="50.0000734%" x2="100.00005%" y2="50.0000734%" id="linearGradient-18">
            <stop stop-color="#3D87ED" offset="0%"></stop>
            <stop stop-color="#62E8F9" offset="100%"></stop>
        </linearGradient>
        <path d="M0,148.567 L0,148.702 C0,149.06 0.03,149.41 0.082,149.757 L0.082,149.757 C31.838,115.5 188.101,53.124 302.2,7.58 L302.2,7.58 C303.651,7 305.339,5.69 306.493,4.64 L306.493,4.64 C306.353,4.038 305.456,0.992 301.573,0.055 L301.573,0.055 C106.674,77.836 0.203,124.854 0,148.567" id="path-19"></path>
        <linearGradient x1="0%" y1="50.0002486%" x2="100.000143%" y2="50.0002486%" id="linearGradient-21">
            <stop stop-color="#3D87ED" offset="0%"></stop>
            <stop stop-color="#62E8F9" offset="100%"></stop>
        </linearGradient>
        <path d="M0.615,122.23 C21.737,99.423 92.138,64.255 228.886,8.198 L228.886,8.198 C229.993,7.745 231.69,6.795 231.928,5.624 L231.928,5.624 C232.006,4.341 231.78,1.24 227.979,0.132 L227.979,0.132 C20.606,85.158 -3.324,109.567 0.615,122.23" id="path-22"></path>
        <linearGradient x1="0.000168930211%" y1="49.9997998%" x2="99.9999932%" y2="49.9997998%" id="linearGradient-24">
            <stop stop-color="#3D87ED" offset="0%"></stop>
            <stop stop-color="#62E8F9" offset="100%"></stop>
        </linearGradient>
        <path d="M1.507,138.068 C23.983,113.298 103.944,73.745 260.776,9.819 L260.776,9.819 C262.726,9.026 266.316,8.089 266.671241,6.013 L266.671241,6.013 C266.705,4.676 266.352,1.439 262.295,0.26 L262.295,0.26 C21.365,98.354 -4.736,124.97 1.507,138.068" id="path-25"></path>
        <linearGradient x1="1.51874814e-05%" y1="49.9995803%" x2="100.000068%" y2="49.9995803%" id="linearGradient-27">
            <stop stop-color="#3D87ED" offset="0%"></stop>
            <stop stop-color="#62E8F9" offset="100%"></stop>
        </linearGradient>
        <path d="M65.104,106.448 C-6.544,143.457 -0.94,151.926 2.768,157.531 L2.768,157.531 C33.59,123.61 167.899,66.184 308.448,9.18 L308.448,9.18 C309.51,8.75 311.077,7.713 311.245,6.58 L311.245,6.58 C311.245,6.534 311.216,1.964 306.665,0.562 L306.665,0.562 C205.034,41.72 125.062,75.478 65.104,106.448" id="path-28"></path>
        <linearGradient x1="-6.91007372e-05%" y1="49.9996848%" x2="100.000108%" y2="49.9996848%" id="linearGradient-30">
            <stop stop-color="#3D87ED" offset="0%"></stop>
            <stop stop-color="#62E8F9" offset="100%"></stop>
        </linearGradient>
        <path d="M0.811,163.792 C2.38,168.101 2.803,168.587 4.837,170.925 L4.837,170.925 C36.193,136.941 181.833,75.739 328.318,15.966 L328.318,15.966 C347.449,8.16 347.449,8.16 347.682,6.49 L347.682,6.49 C347.631,5.354 347.173,1.538 343.362,0.126 L343.362,0.126 C192.614,62.2 21.754,132.555 0.811,163.792" id="path-31"></path>
        <linearGradient x1="-7.12368575e-05%" y1="50.0001504%" x2="99.9999558%" y2="50.0001504%" id="linearGradient-33">
            <stop stop-color="#3D87ED" offset="0%"></stop>
            <stop stop-color="#62E8F9" offset="100%"></stop>
        </linearGradient>
        <path d="M0.467,150.411 C2.468,154.383 2.956,154.823 5.295,156.941 L5.295,156.941 C35.844,124.386 175.001,66.321 314.913,9.636 L314.913,9.636 C316.012,9.192 317.581,8.131 317.829,6.972 L317.829,6.972 C317.832,6.924 318.167,2.113 313.818,0.544 L313.818,0.544 C217.637,39.643 17.501,121.001 0.467,150.411" id="path-34"></path>
        <linearGradient x1="1.65422569e-05%" y1="50.0000343%" x2="99.9998978%" y2="50.0000343%" id="linearGradient-36">
            <stop stop-color="#3D87ED" offset="0%"></stop>
            <stop stop-color="#62E8F9" offset="100%"></stop>
        </linearGradient>
        <path d="M0.225,136.513 C2.616,140.124 3.157,140.516 5.755,142.404 L5.755,142.404 C33.696,112.927 158.503,60.204 276.904,12.518 L276.904,12.518 C280.236,11.176 286.558,10.336 287.451,6.857 L287.451,6.857 C287.456,6.81 287.995,2.128 283.808,0.64 L283.808,0.64 C199.64,34.604 24.5,105.278 0.225,136.513" id="path-37"></path>
        <linearGradient x1="-5.10006759e-05%" y1="50.0002175%" x2="99.9999291%" y2="50.0002175%" id="linearGradient-39">
            <stop stop-color="#3D87ED" offset="0%"></stop>
            <stop stop-color="#62E8F9" offset="100%"></stop>
        </linearGradient>
        <path d="M0.695,149.928 C3.436,153.143 4.019,153.487 6.828,155.137 L6.828,155.137 C34.61,125.595 165.821,71.756 286.624,23.61 L286.624,23.61 C323.743,8.817 323.743,8.817 324.275,7.073 L324.275,7.073 C324.435,5.969 324.728,2.257 321.77,0.796 L321.77,0.796 C100.376,91.528 17.535,125.476 0.695,149.928" id="path-40"></path>
        <linearGradient x1="0.000169616%" y1="49.9997771%" x2="99.9999643%" y2="49.9997771%" id="linearGradient-42">
            <stop stop-color="#3D87ED" offset="0%"></stop>
            <stop stop-color="#62E8F9" offset="100%"></stop>
        </linearGradient>
        <path d="M0.488,132.472 C3.53,135.263 4.15,135.555 7.119,136.954 L7.119,136.954 C31.255,110.924 143.775,64.048 261.771,17.267 L261.771,17.267 C284.581,8.226 284.581,8.226 285.139,6.716 L285.139,6.716 C285.572,5.006 285.401,4.464 284.456,1.46 L284.456,1.46 C284.02,1.253 283.439,0.982 283.005,0.775 L283.005,0.775 C163.263,48.761 14.241,108.481 0.488,132.472" id="path-43"></path>
        <linearGradient x1="-0.000158384412%" y1="50.0004496%" x2="99.9999833%" y2="50.0004496%" id="linearGradient-45">
            <stop stop-color="#3D87ED" offset="0%"></stop>
            <stop stop-color="#62E8F9" offset="100%"></stop>
        </linearGradient>
        <path d="M0.027,101.634 C1.819,103.418 5.098,105.089 7.236,105.679 L7.236,105.679 C23.095,88.021 84.746,58.371 207.14,9.541 L207.14,9.541 C209.027,8.789 212.275,7.992 212.964,6.079 L212.964,6.079 C213.32,4.581 213.488,1.902 210.598,0.792 L210.598,0.792 C123.449,35.602 20.76,78.522 0.027,101.634" id="path-46"></path>
        <linearGradient x1="-0.000160888239%" y1="50.0002003%" x2="100.000099%" y2="50.0002003%" id="linearGradient-48">
            <stop stop-color="#3D87ED" offset="0%"></stop>
            <stop stop-color="#62E8F9" offset="100%"></stop>
        </linearGradient>
        <path d="M0.469,84.222 C0.621,84.311 4.219,86.405 7.791,87.126 L7.791,87.126 C19.756,72.724 70.213,47.952 166.577,9.165 L166.577,9.165 C172.298,6.861 172.334,6.71 172.566,5.733 L172.566,5.733 C172.887,4.383 173.032,1.97 170.422,0.977 L170.422,0.977 C63.713,43.917 6.534,71.925 0.469,84.222" id="path-49"></path>
        <linearGradient x1="3.20429154e-05%" y1="50.0001265%" x2="99.9998711%" y2="50.0001265%" id="linearGradient-51">
            <stop stop-color="#3D87ED" offset="0%"></stop>
            <stop stop-color="#62E8F9" offset="100%"></stop>
        </linearGradient>
        <path d="M0.88,67.064 C1.038,67.132 4.833,68.654 8.392,69.117 L8.392,69.117 C13.386,61.925 31.867,47.566 134.26,6.09 L134.26,6.09 C135.76,5.482 136.116,5.338 136.351,4.347 L136.351,4.347 C136.63,3.162 136.759,1.042 134.482,0.171 L134.482,0.171 C27.178,43.721 2.6,60.585 0.88,67.064" id="path-52"></path>
        <linearGradient x1="-0.000626452264%" y1="49.9992158%" x2="100.000012%" y2="49.9992158%" id="linearGradient-54">
            <stop stop-color="#3D87ED" offset="0%"></stop>
            <stop stop-color="#62E8F9" offset="100%"></stop>
        </linearGradient>
        <path d="M0.049,61.307 C0.215,61.349 4.141,62.275 7.654,62.463 L7.654,62.463 C9.771,56.888 23.624,45.069 119.078,6.98 L119.078,6.98 C122.108,5.77 122.108,5.77 122.484,4.867 L122.484,4.867 C123.133,3.305 122.749,1.885 122.623,1.42 L122.623,1.42 C122.363,1.288 122.013,1.113 121.752,0.979 L121.752,0.979 C41.718,32.95 0.772,53.246 0.049,61.307" id="path-55"></path>
        <linearGradient x1="3.39571434e-05%" y1="50.0008324%" x2="99.9996987%" y2="50.0008324%" id="linearGradient-57">
            <stop stop-color="#3D87ED" offset="0%"></stop>
            <stop stop-color="#62E8F9" offset="100%"></stop>
        </linearGradient>
        <path d="M0.219,42.576 C0.242,42.587 2.733,42.988 5.047,43 L5.047,43 L5.252,43 C6.308,42.994 7.311,42.902 8.003,42.646 L8.003,42.646 C7.737,40.479 7.026,34.717 79.864,5.302 L79.864,5.302 C81.355,4.7 81.412,4.676 81.73,3.946 L81.73,3.946 C82.286,2.68 82.032,1.568 81.937,1.149 L81.937,1.149 C81.734,1.04 81.463,0.896 81.259,0.789 L81.259,0.789 C46.104,15.011 -0.547,34.815 0.219,42.576" id="path-58"></path>
        <linearGradient x1="7.25157662e-05%" y1="50.0004852%" x2="99.9997722%" y2="50.0004852%" id="linearGradient-60">
            <stop stop-color="#3D87ED" offset="0%"></stop>
            <stop stop-color="#62E8F9" offset="100%"></stop>
        </linearGradient>
        <path d="M2.177,0.182 C2.121,0.182 2.066,0.189 2.014,0.205 L2.014,0.205 C1.495,0.411 0.976,0.614 0.457,0.822 L0.457,0.822 C0.438,0.83 0.413,0.841 0.394,0.852 L0.394,0.852 C-0.092,1.161 0.787,2.574 1.571,2.742 L1.571,2.742 C1.742,2.78 1.839,2.745 1.898,2.724 L1.898,2.724 C1.914,2.719 3.654,2.037 3.705,2.001 L3.705,2.001 C3.956,1.816 3.811,1.472 3.647,1.217 L3.647,1.217 C3.384,0.811 2.718,0.187 2.188,0.182 L2.188,0.182 L2.177,0.182 Z" id="path-61"></path>
        <linearGradient x1="0.0135725892%" y1="49.9966819%" x2="99.9854807%" y2="49.9966819%" id="linearGradient-63">
            <stop stop-color="#3D87ED" offset="0%"></stop>
            <stop stop-color="#62E8F9" offset="100%"></stop>
        </linearGradient>
        <path d="M3.026,0.508 C0.824,1.388 0.824,1.388 0.787,1.412 L0.787,1.412 C0.078,1.881 1.723,3.814 2.732,4.024 L2.732,4.024 C2.976,4.074 3.109,4.027 3.188,4 L3.188,4 C3.209,3.992 5.547,3.068 5.605,3.022 L5.605,3.022 C5.934,2.771 5.7,2.297 5.445,1.942 L5.445,1.942 C5.056,1.401 4.048,0.474 3.268,0.474 L3.268,0.474 C3.184,0.474 3.103,0.485 3.026,0.508" id="path-64"></path>
        <linearGradient x1="0.00632018993%" y1="49.9946504%" x2="99.994491%" y2="49.9946504%" id="linearGradient-66">
            <stop stop-color="#3D87ED" offset="0%"></stop>
            <stop stop-color="#62E8F9" offset="100%"></stop>
        </linearGradient>
        <path d="M4.455,0.697 C1.103,2.042 1.103,2.042 0.934,2.403 L0.934,2.403 C0.549,3.223 1.089,5.186 2.065,5.794 L2.065,5.794 C2.438,6.027 2.739,5.941 2.743,5.94 L2.743,5.94 C3.035,5.852 6.21,4.549 6.22,4.541 L6.22,4.541 C6.617,4.29 6.749,3.706 6.579,2.939 L6.579,2.939 C6.393,2.104 5.665,0.655 4.729,0.655 L4.729,0.655 C4.639,0.655 4.548,0.668 4.455,0.697" id="path-67"></path>
        <linearGradient x1="-0.000694482438%" y1="50.001787%" x2="99.9917401%" y2="50.001787%" id="linearGradient-69">
            <stop stop-color="#3D87ED" offset="0%"></stop>
            <stop stop-color="#62E8F9" offset="100%"></stop>
        </linearGradient>
        <path d="M4.491,0.573 C3.313,1.046 2.111,1.466 0.953,1.992 L0.953,1.992 C-0.503,2.653 1.176,5.902 2.568,6.465 L2.568,6.465 C2.984,6.634 3.258,6.545 3.406,6.496 L3.406,6.496 C3.436,6.487 7.121,5.023 7.236,4.944 L7.236,4.944 C7.838,4.53 7.616,3.625 7.432,3.122 L7.432,3.122 C7.082,2.17 5.975,0.524 4.829,0.523 L4.829,0.523 C4.716,0.523 4.604,0.539 4.491,0.573" id="path-70"></path>
        <linearGradient x1="0.00386829809%" y1="50.0024406%" x2="100.003733%" y2="50.0024406%" id="linearGradient-72">
            <stop stop-color="#3D87ED" offset="0%"></stop>
            <stop stop-color="#62E8F9" offset="100%"></stop>
        </linearGradient>
        <path d="M4.723,0.226 C0.812,1.787 0.812,1.787 0.743,1.833 L0.743,1.833 C-0.504,2.661 2.172,6.205 3.884,6.611 L3.884,6.611 C4.289,6.706 4.513,6.629 4.648,6.581 L4.648,6.581 C4.684,6.569 8.663,4.999 8.766,4.919 L8.766,4.919 C9.337,4.48 9.011,3.614 8.638,2.965 L8.638,2.965 C8.048,1.942 6.445,0.172 5.11,0.172 L5.11,0.172 C4.978,0.172 4.849,0.189 4.723,0.226" id="path-73"></path>
        <linearGradient x1="0.00442691057%" y1="49.994535%" x2="100.00011%" y2="49.994535%" id="linearGradient-75">
            <stop stop-color="#3D87ED" offset="0%"></stop>
            <stop stop-color="#62E8F9" offset="100%"></stop>
        </linearGradient>
        <path d="M4.725,0.416 C0.994,1.953 0.994,1.953 0.947,1.989 L0.947,1.989 C-0.109,2.776 3.499,6.814 5.493,7.071 L5.493,7.071 C6.228,7.166 9.918,5.422 9.939,5.401 L9.939,5.401 C10.322,5.036 10.133,4.353 9.375,3.37 L9.375,3.37 C8.534,2.279 6.457,0.369 5.076,0.369 L5.076,0.369 C4.953,0.369 4.836,0.384 4.725,0.416" id="path-76"></path>
        <linearGradient x1="-0.00370591587%" y1="49.9998593%" x2="100.001922%" y2="49.9998593%" id="linearGradient-78">
            <stop stop-color="#3D87ED" offset="0%"></stop>
            <stop stop-color="#62E8F9" offset="100%"></stop>
        </linearGradient>
        <path d="M5.743,0.776 C1.254,2.589 1.254,2.589 1.191,2.631 L1.191,2.631 C-0.218,3.604 3.053,7.966 5.06,8.5 L5.06,8.5 C5.533,8.626 5.789,8.537 5.941,8.484 L5.941,8.484 C5.983,8.471 10.453,6.693 10.577,6.593 L10.577,6.593 C11.209,6.082 10.802,5.023 10.348,4.224 L10.348,4.224 C9.625,2.951 7.684,0.721 6.143,0.721 L6.143,0.721 C6.006,0.721 5.872,0.739 5.743,0.776" id="path-79"></path>
        <linearGradient x1="0.00209526937%" y1="50.0042494%" x2="100.002108%" y2="50.0042494%" id="linearGradient-81">
            <stop stop-color="#3D87ED" offset="0%"></stop>
            <stop stop-color="#62E8F9" offset="100%"></stop>
        </linearGradient>
        <path d="M7.176,0.341 C1.283,2.737 1.283,2.737 1.017,3.397 L1.017,3.397 C0.445,4.812 1.692,8.386 3.485,9.486 L3.485,9.486 C4.165,9.905 4.679,9.758 4.684,9.756 L4.684,9.756 C5.186,9.606 10.576,7.359 10.593,7.348 L10.593,7.348 C11.263,6.908 11.452,5.863 11.11,4.482 L11.11,4.482 C10.73,2.947 9.331,0.27 7.648,0.27 L7.648,0.27 C7.493,0.27 7.336,0.293 7.176,0.341" id="path-82"></path>
        <linearGradient x1="0.000775736%" y1="49.9997942%" x2="100.003332%" y2="49.9997942%" id="linearGradient-84">
            <stop stop-color="#3D87ED" offset="0%"></stop>
            <stop stop-color="#62E8F9" offset="100%"></stop>
        </linearGradient>
        <path d="M7.069,0.458 C0.99,2.917 0.99,2.917 0.736,3.603 L0.736,3.603 C0.196,5.073 1.647,8.81 3.569,9.972 L3.569,9.972 C4.298,10.413 4.829,10.264 4.833,10.263 L4.833,10.263 C5.351,10.11 10.89,7.812 10.908,7.801 L10.908,7.801 C11.593,7.346 11.754,6.257 11.348,4.813 L11.348,4.813 C10.895,3.202 9.326,0.387 7.552,0.387 L7.552,0.387 C7.393,0.387 7.231,0.41 7.069,0.458" id="path-85"></path>
        <linearGradient x1="0.00449641311%" y1="49.9976961%" x2="100.000676%" y2="49.9976961%" id="linearGradient-87">
            <stop stop-color="#3D87ED" offset="0%"></stop>
            <stop stop-color="#62E8F9" offset="100%"></stop>
        </linearGradient>
        <path d="M6.609,0.523 C0.507,2.986 0.507,2.986 0.293,3.682 L0.293,3.682 C-0.267,5.5 1.678,9.561 3.545,10.473 L3.545,10.473 C4.173,10.78 4.588,10.647 4.81,10.576 L4.81,10.576 C4.855,10.561 10.44,8.326 10.617,8.199 L10.617,8.199 C11.536,7.537 11.253,5.979 11.002,5.11 L11.002,5.11 C10.514,3.423 8.87,0.456 7.071,0.456 L7.071,0.456 C6.918,0.456 6.764,0.477 6.609,0.523" id="path-88"></path>
        <linearGradient x1="0.000667653112%" y1="49.9989421%" x2="100.001354%" y2="49.9989421%" id="linearGradient-90">
            <stop stop-color="#3D87ED" offset="0%"></stop>
            <stop stop-color="#62E8F9" offset="100%"></stop>
        </linearGradient>
        <path d="M6.7,0.162 C1.144,2.489 1.144,2.489 0.958,3.194 L0.958,3.194 C0.464,5.049 2.28,9.315 3.993,10.325 L3.993,10.325 C4.572,10.665 4.948,10.543 5.15,10.478 L5.15,10.478 C5.192,10.465 10.239,8.371 10.399,8.247 L10.399,8.247 C11.22,7.605 10.949,5.984 10.714,5.076 L10.714,5.076 C10.25,3.293 8.707,0.11 7.059,0.11 L7.059,0.11 C6.94,0.11 6.82,0.127 6.7,0.162" id="path-91"></path>
        <linearGradient x1="-0.00474015295%" y1="49.9995785%" x2="100.000035%" y2="49.9995785%" id="linearGradient-93">
            <stop stop-color="#3D87ED" offset="0%"></stop>
            <stop stop-color="#62E8F9" offset="100%"></stop>
        </linearGradient>
        <path d="M6.598,0.519 C0.536,3.005 0.536,3.005 0.249,3.746 L0.249,3.746 C-0.369,5.335 0.804,9.486 2.596,10.833 L2.596,10.833 C3.27,11.34 3.789,11.198 3.796,11.196 L3.796,11.196 C4.299,11.05 9.752,8.77 9.772,8.757 L9.772,8.757 C10.454,8.292 10.683,7.109 10.4,5.511 L10.4,5.511 C10.077,3.69 8.746,0.459 7.009,0.459 L7.009,0.459 C6.874,0.459 6.737,0.478 6.598,0.519" id="path-94"></path>
        <linearGradient x1="-0.00333039909%" y1="49.9992546%" x2="99.9970007%" y2="49.9992546%" id="linearGradient-96">
            <stop stop-color="#3D87ED" offset="0%"></stop>
            <stop stop-color="#62E8F9" offset="100%"></stop>
        </linearGradient>
        <path d="M6.905,0.963 C0.713,3.454 0.713,3.454 0.381,4.19 L0.381,4.19 C-0.32,5.742 0.628,9.771 2.344,11.067 L2.344,11.067 C2.987,11.55 3.51,11.406 3.514,11.404 L3.514,11.404 C4.026,11.256 9.594,8.969 9.613,8.958 L9.613,8.958 C10.326,8.491 10.627,7.336 10.439,5.784 L10.439,5.784 C10.224,4.016 9.083,0.898 7.344,0.898 L7.344,0.898 C7.202,0.898 7.055,0.919 6.905,0.963" id="path-97"></path>
        <linearGradient x1="0.000576911101%" y1="49.9990056%" x2="100.000095%" y2="49.9990056%" id="linearGradient-99">
            <stop stop-color="#3D87ED" offset="0%"></stop>
            <stop stop-color="#62E8F9" offset="100%"></stop>
        </linearGradient>
        <path d="M6.14,0.998 C1.08,3.123 1.08,3.123 0.787,3.809 L0.787,3.809 C0.026,5.605 0.728,9.814 1.962,10.847 L1.962,10.847 C2.372,11.191 2.704,11.084 2.883,11.027 L2.883,11.027 C2.919,11.015 7.466,9.137 7.619,9.022 L7.619,9.022 C8.363,8.465 8.502,7.065 8.508,6.155 L8.508,6.155 L8.508,6.03 C8.508,6.002 8.508,5.974 8.507,5.947 L8.507,5.947 C8.479,4.167 7.819,0.956 6.421,0.956 L6.421,0.956 C6.331,0.956 6.237,0.97 6.14,0.998" id="path-100"></path>
        <linearGradient x1="-0.00116574561%" y1="49.9992724%" x2="100.002354%" y2="49.9992724%" id="linearGradient-102">
            <stop stop-color="#3D87ED" offset="0%"></stop>
            <stop stop-color="#62E8F9" offset="100%"></stop>
        </linearGradient>
        <path d="M6.271,1.009 C1.048,3.135 1.048,3.135 0.688,3.806 L0.688,3.806 C-0.075,5.239 0.12,9.062 1.294,10.341 L1.294,10.341 C1.731,10.82 2.159,10.703 2.163,10.703 L2.163,10.703 C2.582,10.583 7.234,8.651 7.249,8.64 L7.249,8.64 C7.867,8.232 8.264,7.155 8.339,5.687 L8.339,5.687 C8.427,3.995 7.973,0.963 6.578,0.963 L6.578,0.963 C6.48,0.963 6.378,0.978 6.271,1.009" id="path-103"></path>
        <linearGradient x1="3.03810699e-05%" y1="50.0024364%" x2="100.000467%" y2="50.0024364%" id="linearGradient-105">
            <stop stop-color="#3D87ED" offset="0%"></stop>
            <stop stop-color="#62E8F9" offset="100%"></stop>
        </linearGradient>
        <path d="M6.825,0.342 C1.449,2.474 1.449,2.474 1.194,2.895 L1.194,2.895 C0.173,4.591 0.784,7.809 1.696,8.854 L1.696,8.854 C2.176,9.405 2.631,9.338 2.76,9.303 L2.76,9.303 C3.081,9.223 7.978,7.242 8,7.23 L8,7.23 C8.628,6.86 9.035,5.84 9.087,4.506 L9.087,4.506 C9.145,2.98 8.621,0.287 7.191,0.287 L7.191,0.287 C7.075,0.287 6.953,0.304 6.825,0.342" id="path-106"></path>
        <linearGradient x1="0.00353902177%" y1="49.996423%" x2="99.9911794%" y2="49.996423%" id="linearGradient-108">
            <stop stop-color="#3D87ED" offset="0%"></stop>
            <stop stop-color="#62E8F9" offset="100%"></stop>
        </linearGradient>
        <path d="M6.411,0.182 C1.524,2.13 1.524,2.13 1.292,2.515 L1.292,2.515 C0.369,4.043 0.934,6.935 1.764,7.871 L1.764,7.871 C2.2,8.363 2.612,8.303 2.726,8.272 L2.726,8.272 C3.016,8.194 7.438,6.396 7.457,6.384 L7.457,6.384 C8.028,6.047 8.398,5.129 8.447,3.93 L8.447,3.93 C8.506,2.554 8.044,0.13 6.751,0.13 L6.751,0.13 C6.643,0.13 6.53,0.146 6.411,0.182" id="path-109"></path>
        <linearGradient x1="-0.00121878141%" y1="49.9976418%" x2="100.006023%" y2="49.9976418%" id="linearGradient-111">
            <stop stop-color="#3D87ED" offset="0%"></stop>
            <stop stop-color="#62E8F9" offset="100%"></stop>
        </linearGradient>
        <path d="M5.266,0.826 C0.972,2.548 0.972,2.548 0.764,2.889 L0.764,2.889 C-0.054,4.232 0.414,6.782 1.128,7.611 L1.128,7.611 C1.502,8.044 1.857,7.991 1.958,7.963 L1.958,7.963 C2.209,7.899 6.067,6.315 6.083,6.308 L6.083,6.308 C6.582,6.011 6.919,5.205 6.985,4.144 L6.985,4.144 C7.06,2.926 6.697,0.779 5.565,0.779 L5.565,0.779 C5.471,0.779 5.371,0.794 5.266,0.826" id="path-112"></path>
        <linearGradient x1="-0.00574437803%" y1="50.001285%" x2="99.9970495%" y2="50.001285%" id="linearGradient-114">
            <stop stop-color="#3D87ED" offset="0%"></stop>
            <stop stop-color="#62E8F9" offset="100%"></stop>
        </linearGradient>
        <path d="M5.368,0.559 C1.58,2.059 1.58,2.059 1.349,2.369 L1.349,2.369 C0.445,3.58 0.345,5.941 0.766,6.724 L0.766,6.724 C0.982,7.13 1.275,7.089 1.361,7.067 L1.361,7.067 C1.573,7.012 4.957,5.646 4.973,5.635 L4.973,5.635 C5.431,5.374 5.861,4.634 6.119,3.663 L6.119,3.663 C6.421,2.532 6.545,0.522 5.604,0.522 L5.604,0.522 C5.531,0.522 5.453,0.533 5.368,0.559" id="path-115"></path>
        <linearGradient x1="-0.00330619424%" y1="50.0023115%" x2="99.9954816%" y2="50.0023115%" id="linearGradient-117">
            <stop stop-color="#3D87ED" offset="0%"></stop>
            <stop stop-color="#62E8F9" offset="100%"></stop>
        </linearGradient>
        <path d="M4.315,0.958 C1.259,2.178 1.259,2.178 1.062,2.434 L1.062,2.434 C0.331,3.38 0.14,5.343 0.436,5.99 L0.436,5.99 C0.587,6.319 0.816,6.288 0.883,6.27 L0.883,6.27 C1.051,6.226 3.742,5.129 3.755,5.121 L3.755,5.121 C4.128,4.91 4.5,4.307 4.753,3.513 L4.753,3.513 C5.069,2.522 5.217,0.929 4.496,0.929 L4.496,0.929 C4.441,0.929 4.38,0.938 4.315,0.958" id="path-118"></path>
        <linearGradient x1="-0.00191846016%" y1="49.9921511%" x2="99.9983876%" y2="49.9921511%" id="linearGradient-120">
            <stop stop-color="#3D87ED" offset="0%"></stop>
            <stop stop-color="#62E8F9" offset="100%"></stop>
        </linearGradient>
    </defs>
    <g id="product-page" stroke="none" stroke-width="1" fill="none" fill-rule="evenodd">
        <g id="china-access-desktop" transform="translate(-440.000000, -6758.000000)">
            <g id="cloudflare" transform="translate(23.000000, 6538.000000)">
                <g id="go-global" transform="translate(417.000000, 219.000000)">
                    <g id="Group-3" transform="translate(72.000000, 1.818000)">
                        <mask id="mask-2" fill="white">
                            <use xlink:href="#path-1"></use>
                        </mask>
                        <g id="Clip-2"></g>
                        <path d="M0.982,59.43 C18.046,45.089 66.556,25.24 119.025,4.449 L119.025,4.449 C120.256,3.962 121.837,3.151 122.977,2.478 L122.977,2.478 C122.967,2.352 122.849,1.24 121.577,0.959 L121.577,0.959 C33.303,35.796 14.041,46.114 0.982,59.43" id="Fill-1" fill="url(#linearGradient-3)" mask="url(#mask-2)"></path>
                    </g>
                    <g id="Group-6" transform="translate(51.000000, 8.818000)">
                        <mask id="mask-5" fill="white">
                            <use xlink:href="#path-4"></use>
                        </mask>
                        <g id="Clip-5"></g>
                        <path d="M6.133,69.635 C5.464,70.371 2.552,73.792 0.986,75.99 L0.986,75.99 C20.091,58.382 81.961,32.853 154.826,3.744 L154.826,3.744 L155.125,3.05 C155.089,2.879 154.725,1.372 152.827,0.984 L152.827,0.984 C83.562,28.624 24.715,52.867 6.133,69.635" id="Fill-4" fill="url(#linearGradient-6)" mask="url(#mask-5)"></path>
                    </g>
                    <g id="Group-9" transform="translate(34.000000, 29.818000)">
                        <mask id="mask-8" fill="white">
                            <use xlink:href="#path-7"></use>
                        </mask>
                        <g id="Clip-8"></g>
                        <path d="M0.27,80.851 C15.913,65.612 62.337,43.067 155.497,5.471 L155.497,5.471 C156.221,5.179 157.351,4.652 157.568,3.905 L157.568,3.905 C157.571,3.88 157.922,1.486 155.69,0.82 L155.69,0.82 C21.685,54.894 5.706,69.533 0.27,80.851" id="Fill-7" fill="url(#linearGradient-9)" mask="url(#mask-8)"></path>
                    </g>
                    <g id="Group-12" transform="translate(20.000000, 41.818000)">
                        <mask id="mask-11" fill="white">
                            <use xlink:href="#path-10"></use>
                        </mask>
                        <g id="Clip-11"></g>
                        <path d="M0.029,96.683 C17.601,78.855 71.518,52.764 186.133,6.626 L186.133,6.626 C187.294,6.158 189.401,5.577 189.629,4.345 L189.629,4.345 C189.621,3.88 189.441,1.524 186.842,0.847 L186.842,0.847 C22.092,67.169 4.467,84.023 0.029,96.683" id="Fill-10" fill="url(#linearGradient-12)" mask="url(#mask-11)"></path>
                    </g>
                    <g id="Group-15" transform="translate(9.000000, 48.818000)">
                        <mask id="mask-14" fill="white">
                            <use xlink:href="#path-13"></use>
                        </mask>
                        <g id="Clip-14"></g>
                        <path d="M0.463,119.158 C25.917,92.564 132.979,48.404 240.459,5.453 L240.459,5.453 C240.605,5.094 240.938,4.644 240.947,4.255 L240.947,4.255 C240.847,3.76 240.176,1.252 236.942,0.532 L236.942,0.532 C63.575,69.822 3.904,99.755 0.463,119.158" id="Fill-13" fill="url(#linearGradient-15)" mask="url(#mask-14)"></path>
                    </g>
                    <g id="Group-18" transform="translate(2.000000, 53.818000)">
                        <mask id="mask-17" fill="white">
                            <use xlink:href="#path-16"></use>
                        </mask>
                        <g id="Clip-17"></g>
                        <path d="M0.752,144.964 C30.467,113.251 175.093,55.55 280.694,13.418 L280.694,13.418 C298.232,6.422 298.232,6.422 301.339,4.033 L301.339,4.033 C301.216,3.716 300.03,0.91 296.292,0.079 L296.292,0.079 C124.906,69.041 1.08,118.867 0.752,144.964" id="Fill-16" fill="url(#linearGradient-18)" mask="url(#mask-17)"></path>
                    </g>
                    <g id="Group-21" transform="translate(0.000000, 80.818000)">
                        <mask id="mask-20" fill="white">
                            <use xlink:href="#path-19"></use>
                        </mask>
                        <g id="Clip-20"></g>
                        <path d="M0,148.567 L0,148.702 C0,149.06 0.03,149.41 0.082,149.757 L0.082,149.757 C31.838,115.5 188.101,53.124 302.2,7.58 L302.2,7.58 C303.651,7 305.339,5.69 306.493,4.64 L306.493,4.64 C306.353,4.038 305.456,0.992 301.573,0.055 L301.573,0.055 C106.674,77.836 0.203,124.854 0,148.567" id="Fill-19" fill="url(#linearGradient-21)" mask="url(#mask-20)"></path>
                    </g>
                    <g id="Group-24" transform="translate(1.000000, 140.818000)">
                        <mask id="mask-23" fill="white">
                            <use xlink:href="#path-22"></use>
                        </mask>
                        <g id="Clip-23"></g>
                        <path d="M0.615,122.23 C21.737,99.423 92.138,64.255 228.886,8.198 L228.886,8.198 C229.993,7.745 231.69,6.795 231.928,5.624 L231.928,5.624 C232.006,4.341 231.78,1.24 227.979,0.132 L227.979,0.132 C20.606,85.158 -3.324,109.567 0.615,122.23" id="Fill-22" fill="url(#linearGradient-24)" mask="url(#mask-23)"></path>
                    </g>
                    <g id="Group-27" transform="translate(6.000000, 157.818000)">
                        <mask id="mask-26" fill="white">
                            <use xlink:href="#path-25"></use>
                        </mask>
                        <g id="Clip-26"></g>
                        <path d="M1.507,138.068 C23.983,113.298 103.944,73.745 260.776,9.819 L260.776,9.819 C262.726,9.026 266.316,8.089 266.671241,6.013 L266.671241,6.013 C266.705,4.676 266.352,1.439 262.295,0.26 L262.295,0.26 C21.365,98.354 -4.736,124.97 1.507,138.068" id="Fill-25" fill="url(#linearGradient-27)" mask="url(#mask-26)"></path>
                    </g>
                    <g id="Group-30" transform="translate(15.000000, 170.818000)">
                        <mask id="mask-29" fill="white">
                            <use xlink:href="#path-28"></use>
                        </mask>
                        <g id="Clip-29"></g>
                        <path d="M65.104,106.448 C-6.544,143.457 -0.94,151.926 2.768,157.531 L2.768,157.531 C33.59,123.61 167.899,66.184 308.448,9.18 L308.448,9.18 C309.51,8.75 311.077,7.713 311.245,6.58 L311.245,6.58 C311.245,6.534 311.216,1.964 306.665,0.562 L306.665,0.562 C205.034,41.72 125.062,75.478 65.104,106.448" id="Fill-28" fill="url(#linearGradient-30)" mask="url(#mask-29)"></path>
                    </g>
                    <g id="Group-33" transform="translate(27.000000, 187.818000)">
                        <mask id="mask-32" fill="white">
                            <use xlink:href="#path-31"></use>
                        </mask>
                        <g id="Clip-32"></g>
                        <path d="M0.811,163.792 C2.38,168.101 2.803,168.587 4.837,170.925 L4.837,170.925 C36.193,136.941 181.833,75.739 328.318,15.966 L328.318,15.966 C347.449,8.16 347.449,8.16 347.682,6.49 L347.682,6.49 C347.631,5.354 347.173,1.538 343.362,0.126 L343.362,0.126 C192.614,62.2 21.754,132.555 0.811,163.792" id="Fill-31" fill="url(#linearGradient-33)" mask="url(#mask-32)"></path>
                    </g>
                    <g id="Group-36" transform="translate(44.000000, 229.818000)">
                        <mask id="mask-35" fill="white">
                            <use xlink:href="#path-34"></use>
                        </mask>
                        <g id="Clip-35"></g>
                        <path d="M0.467,150.411 C2.468,154.383 2.956,154.823 5.295,156.941 L5.295,156.941 C35.844,124.386 175.001,66.321 314.913,9.636 L314.913,9.636 C316.012,9.192 317.581,8.131 317.829,6.972 L317.829,6.972 C317.832,6.924 318.167,2.113 313.818,0.544 L313.818,0.544 C217.637,39.643 17.501,121.001 0.467,150.411" id="Fill-34" fill="url(#linearGradient-36)" mask="url(#mask-35)"></path>
                    </g>
                    <g id="Group-39" transform="translate(64.000000, 269.818000)">
                        <mask id="mask-38" fill="white">
                            <use xlink:href="#path-37"></use>
                        </mask>
                        <g id="Clip-38"></g>
                        <path d="M0.225,136.513 C2.616,140.124 3.157,140.516 5.755,142.404 L5.755,142.404 C33.696,112.927 158.503,60.204 276.904,12.518 L276.904,12.518 C280.236,11.176 286.558,10.336 287.451,6.857 L287.451,6.857 C287.456,6.81 287.995,2.128 283.808,0.64 L283.808,0.64 C199.64,34.604 24.5,105.278 0.225,136.513" id="Fill-37" fill="url(#linearGradient-39)" mask="url(#mask-38)"></path>
                    </g>
                    <g id="Group-42" transform="translate(86.000000, 279.818000)">
                        <mask id="mask-41" fill="white">
                            <use xlink:href="#path-40"></use>
                        </mask>
                        <g id="Clip-41"></g>
                        <path d="M0.695,149.928 C3.436,153.143 4.019,153.487 6.828,155.137 L6.828,155.137 C34.61,125.595 165.821,71.756 286.624,23.61 L286.624,23.61 C323.743,8.817 323.743,8.817 324.275,7.073 L324.275,7.073 C324.435,5.969 324.728,2.257 321.77,0.796 L321.77,0.796 C100.376,91.528 17.535,125.476 0.695,149.928" id="Fill-40" fill="url(#linearGradient-42)" mask="url(#mask-41)"></path>
                    </g>
                    <g id="Group-45" transform="translate(111.000000, 317.818000)">
                        <mask id="mask-44" fill="white">
                            <use xlink:href="#path-43"></use>
                        </mask>
                        <g id="Clip-44"></g>
                        <path d="M0.488,132.472 C3.53,135.263 4.15,135.555 7.119,136.954 L7.119,136.954 C31.255,110.924 143.775,64.048 261.771,17.267 L261.771,17.267 C284.581,8.226 284.581,8.226 285.139,6.716 L285.139,6.716 C285.572,5.006 285.401,4.464 284.456,1.46 L284.456,1.46 C284.02,1.253 283.439,0.982 283.005,0.775 L283.005,0.775 C163.263,48.761 14.241,108.481 0.488,132.472" id="Fill-43" fill="url(#linearGradient-45)" mask="url(#mask-44)"></path>
                    </g>
                    <g id="Group-48" transform="translate(138.000000, 365.818000)">
                        <mask id="mask-47" fill="white">
                            <use xlink:href="#path-46"></use>
                        </mask>
                        <g id="Clip-47"></g>
                        <path d="M0.027,101.634 C1.819,103.418 5.098,105.089 7.236,105.679 L7.236,105.679 C23.095,88.021 84.746,58.371 207.14,9.541 L207.14,9.541 C209.027,8.789 212.275,7.992 212.964,6.079 L212.964,6.079 C213.32,4.581 213.488,1.902 210.598,0.792 L210.598,0.792 C123.449,35.602 20.76,78.522 0.027,101.634" id="Fill-46" fill="url(#linearGradient-48)" mask="url(#mask-47)"></path>
                    </g>
                    <g id="Group-51" transform="translate(166.000000, 397.818000)">
                        <mask id="mask-50" fill="white">
                            <use xlink:href="#path-49"></use>
                        </mask>
                        <g id="Clip-50"></g>
                        <path d="M0.469,84.222 C0.621,84.311 4.219,86.405 7.791,87.126 L7.791,87.126 C19.756,72.724 70.213,47.952 166.577,9.165 L166.577,9.165 C172.298,6.861 172.334,6.71 172.566,5.733 L172.566,5.733 C172.887,4.383 173.032,1.97 170.422,0.977 L170.422,0.977 C63.713,43.917 6.534,71.925 0.469,84.222" id="Fill-49" fill="url(#linearGradient-51)" mask="url(#mask-50)"></path>
                    </g>
                    <g id="Group-54" transform="translate(195.000000, 425.818000)">
                        <mask id="mask-53" fill="white">
                            <use xlink:href="#path-52"></use>
                        </mask>
                        <g id="Clip-53"></g>
                        <path d="M0.88,67.064 C1.038,67.132 4.833,68.654 8.392,69.117 L8.392,69.117 C13.386,61.925 31.867,47.566 134.26,6.09 L134.26,6.09 C135.76,5.482 136.116,5.338 136.351,4.347 L136.351,4.347 C136.63,3.162 136.759,1.042 134.482,0.171 L134.482,0.171 C27.178,43.721 2.6,60.585 0.88,67.064" id="Fill-52" fill="url(#linearGradient-54)" mask="url(#mask-53)"></path>
                    </g>
                    <g id="Group-57" transform="translate(226.000000, 438.818000)">
                        <mask id="mask-56" fill="white">
                            <use xlink:href="#path-55"></use>
                        </mask>
                        <g id="Clip-56"></g>
                        <path d="M0.049,61.307 C0.215,61.349 4.141,62.275 7.654,62.463 L7.654,62.463 C9.771,56.888 23.624,45.069 119.078,6.98 L119.078,6.98 C122.108,5.77 122.108,5.77 122.484,4.867 L122.484,4.867 C123.133,3.305 122.749,1.885 122.623,1.42 L122.623,1.42 C122.363,1.288 122.013,1.113 121.752,0.979 L121.752,0.979 C41.718,32.95 0.772,53.246 0.049,61.307" id="Fill-55" fill="url(#linearGradient-57)" mask="url(#mask-56)"></path>
                    </g>
                    <g id="Group-60" transform="translate(256.000000, 460.818000)">
                        <mask id="mask-59" fill="white">
                            <use xlink:href="#path-58"></use>
                        </mask>
                        <g id="Clip-59"></g>
                        <path d="M0.219,42.576 C0.242,42.587 2.733,42.988 5.047,43 L5.047,43 L5.252,43 C6.308,42.994 7.311,42.902 8.003,42.646 L8.003,42.646 C7.737,40.479 7.026,34.717 79.864,5.302 L79.864,5.302 C81.355,4.7 81.412,4.676 81.73,3.946 L81.73,3.946 C82.286,2.68 82.032,1.568 81.937,1.149 L81.937,1.149 C81.734,1.04 81.463,0.896 81.259,0.789 L81.259,0.789 C46.104,15.011 -0.547,34.815 0.219,42.576" id="Fill-58" fill="url(#linearGradient-60)" mask="url(#mask-59)"></path>
                    </g>
                    <g id="Group-63" transform="translate(196.000000, 0.818000)">
                        <mask id="mask-62" fill="white">
                            <use xlink:href="#path-61"></use>
                        </mask>
                        <g id="Clip-62"></g>
                        <path d="M2.177,0.182 C2.121,0.182 2.066,0.189 2.014,0.205 L2.014,0.205 C1.495,0.411 0.976,0.614 0.457,0.822 L0.457,0.822 C0.438,0.83 0.413,0.841 0.394,0.852 L0.394,0.852 C-0.092,1.161 0.787,2.574 1.571,2.742 L1.571,2.742 C1.742,2.78 1.839,2.745 1.898,2.724 L1.898,2.724 C1.914,2.719 3.654,2.037 3.705,2.001 L3.705,2.001 C3.956,1.816 3.811,1.472 3.647,1.217 L3.647,1.217 C3.384,0.811 2.718,0.187 2.188,0.182 L2.188,0.182 L2.177,0.182 Z" id="Fill-61" fill="url(#linearGradient-63)" mask="url(#mask-62)"></path>
                    </g>
                    <g id="Group-66" transform="translate(207.000000, 6.818000)">
                        <mask id="mask-65" fill="white">
                            <use xlink:href="#path-64"></use>
                        </mask>
                        <g id="Clip-65"></g>
                        <path d="M3.026,0.508 C0.824,1.388 0.824,1.388 0.787,1.412 L0.787,1.412 C0.078,1.881 1.723,3.814 2.732,4.024 L2.732,4.024 C2.976,4.074 3.109,4.027 3.188,4 L3.188,4 C3.209,3.992 5.547,3.068 5.605,3.022 L5.605,3.022 C5.934,2.771 5.7,2.297 5.445,1.942 L5.445,1.942 C5.056,1.401 4.048,0.474 3.268,0.474 L3.268,0.474 C3.184,0.474 3.103,0.485 3.026,0.508" id="Fill-64" fill="url(#linearGradient-66)" mask="url(#mask-65)"></path>
                    </g>
                    <g id="Group-69" transform="translate(193.000000, 26.818000)">
                        <mask id="mask-68" fill="white">
                            <use xlink:href="#path-67"></use>
                        </mask>
                        <g id="Clip-68"></g>
                        <path d="M4.455,0.697 C1.103,2.042 1.103,2.042 0.934,2.403 L0.934,2.403 C0.549,3.223 1.089,5.186 2.065,5.794 L2.065,5.794 C2.438,6.027 2.739,5.941 2.743,5.94 L2.743,5.94 C3.035,5.852 6.21,4.549 6.22,4.541 L6.22,4.541 C6.617,4.29 6.749,3.706 6.579,2.939 L6.579,2.939 C6.393,2.104 5.665,0.655 4.729,0.655 L4.729,0.655 C4.639,0.655 4.548,0.668 4.455,0.697" id="Fill-67" fill="url(#linearGradient-69)" mask="url(#mask-68)"></path>
                    </g>
                    <g id="Group-72" transform="translate(213.000000, 37.818000)">
                        <mask id="mask-71" fill="white">
                            <use xlink:href="#path-70"></use>
                        </mask>
                        <g id="Clip-71"></g>
                        <path d="M4.491,0.573 C3.313,1.046 2.111,1.466 0.953,1.992 L0.953,1.992 C-0.503,2.653 1.176,5.902 2.568,6.465 L2.568,6.465 C2.984,6.634 3.258,6.545 3.406,6.496 L3.406,6.496 C3.436,6.487 7.121,5.023 7.236,4.944 L7.236,4.944 C7.838,4.53 7.616,3.625 7.432,3.122 L7.432,3.122 C7.082,2.17 5.975,0.524 4.829,0.523 L4.829,0.523 C4.716,0.523 4.604,0.539 4.491,0.573" id="Fill-70" fill="url(#linearGradient-72)" mask="url(#mask-71)"></path>
                    </g>
                    <g id="Group-75" transform="translate(252.000000, 44.818000)">
                        <mask id="mask-74" fill="white">
                            <use xlink:href="#path-73"></use>
                        </mask>
                        <g id="Clip-74"></g>
                        <path d="M4.723,0.226 C0.812,1.787 0.812,1.787 0.743,1.833 L0.743,1.833 C-0.504,2.661 2.172,6.205 3.884,6.611 L3.884,6.611 C4.289,6.706 4.513,6.629 4.648,6.581 L4.648,6.581 C4.684,6.569 8.663,4.999 8.766,4.919 L8.766,4.919 C9.337,4.48 9.011,3.614 8.638,2.965 L8.638,2.965 C8.048,1.942 6.445,0.172 5.11,0.172 L5.11,0.172 C4.978,0.172 4.849,0.189 4.723,0.226" id="Fill-73" fill="url(#linearGradient-75)" mask="url(#mask-74)"></path>
                    </g>
                    <g id="Group-78" transform="translate(305.000000, 48.818000)">
                        <mask id="mask-77" fill="white">
                            <use xlink:href="#path-76"></use>
                        </mask>
                        <g id="Clip-77"></g>
                        <path d="M4.725,0.416 C0.994,1.953 0.994,1.953 0.947,1.989 L0.947,1.989 C-0.109,2.776 3.499,6.814 5.493,7.071 L5.493,7.071 C6.228,7.166 9.918,5.422 9.939,5.401 L9.939,5.401 C10.322,5.036 10.133,4.353 9.375,3.37 L9.375,3.37 C8.534,2.279 6.457,0.369 5.076,0.369 L5.076,0.369 C4.953,0.369 4.836,0.384 4.725,0.416" id="Fill-76" fill="url(#linearGradient-78)" mask="url(#mask-77)"></path>
                    </g>
                    <g id="Group-81" transform="translate(309.000000, 74.818000)">
                        <mask id="mask-80" fill="white">
                            <use xlink:href="#path-79"></use>
                        </mask>
                        <g id="Clip-80"></g>
                        <path d="M5.743,0.776 C1.254,2.589 1.254,2.589 1.191,2.631 L1.191,2.631 C-0.218,3.604 3.053,7.966 5.06,8.5 L5.06,8.5 C5.533,8.626 5.789,8.537 5.941,8.484 L5.941,8.484 C5.983,8.471 10.453,6.693 10.577,6.593 L10.577,6.593 C11.209,6.082 10.802,5.023 10.348,4.224 L10.348,4.224 C9.625,2.951 7.684,0.721 6.143,0.721 L6.143,0.721 C6.006,0.721 5.872,0.739 5.743,0.776" id="Fill-79" fill="url(#linearGradient-81)" mask="url(#mask-80)"></path>
                    </g>
                    <g id="Group-84" transform="translate(236.000000, 134.818000)">
                        <mask id="mask-83" fill="white">
                            <use xlink:href="#path-82"></use>
                        </mask>
                        <g id="Clip-83"></g>
                        <path d="M7.176,0.341 C1.283,2.737 1.283,2.737 1.017,3.397 L1.017,3.397 C0.445,4.812 1.692,8.386 3.485,9.486 L3.485,9.486 C4.165,9.905 4.679,9.758 4.684,9.756 L4.684,9.756 C5.186,9.606 10.576,7.359 10.593,7.348 L10.593,7.348 C11.263,6.908 11.452,5.863 11.11,4.482 L11.11,4.482 C10.73,2.947 9.331,0.27 7.648,0.27 L7.648,0.27 C7.493,0.27 7.336,0.293 7.176,0.341" id="Fill-82" fill="url(#linearGradient-84)" mask="url(#mask-83)"></path>
                    </g>
                    <g id="Group-87" transform="translate(278.000000, 150.818000)">
                        <mask id="mask-86" fill="white">
                            <use xlink:href="#path-85"></use>
                        </mask>
                        <g id="Clip-86"></g>
                        <path d="M7.069,0.458 C0.99,2.917 0.99,2.917 0.736,3.603 L0.736,3.603 C0.196,5.073 1.647,8.81 3.569,9.972 L3.569,9.972 C4.298,10.413 4.829,10.264 4.833,10.263 L4.833,10.263 C5.351,10.11 10.89,7.812 10.908,7.801 L10.908,7.801 C11.593,7.346 11.754,6.257 11.348,4.813 L11.348,4.813 C10.895,3.202 9.326,0.387 7.552,0.387 L7.552,0.387 C7.393,0.387 7.231,0.41 7.069,0.458" id="Fill-85" fill="url(#linearGradient-87)" mask="url(#mask-86)"></path>
                    </g>
                    <g id="Group-90" transform="translate(330.000000, 164.818000)">
                        <mask id="mask-89" fill="white">
                            <use xlink:href="#path-88"></use>
                        </mask>
                        <g id="Clip-89"></g>
                        <path d="M6.609,0.523 C0.507,2.986 0.507,2.986 0.293,3.682 L0.293,3.682 C-0.267,5.5 1.678,9.561 3.545,10.473 L3.545,10.473 C4.173,10.78 4.588,10.647 4.81,10.576 L4.81,10.576 C4.855,10.561 10.44,8.326 10.617,8.199 L10.617,8.199 C11.536,7.537 11.253,5.979 11.002,5.11 L11.002,5.11 C10.514,3.423 8.87,0.456 7.071,0.456 L7.071,0.456 C6.918,0.456 6.764,0.477 6.609,0.523" id="Fill-88" fill="url(#linearGradient-90)" mask="url(#mask-89)"></path>
                    </g>
                    <g id="Group-93" transform="translate(378.000000, 181.818000)">
                        <mask id="mask-92" fill="white">
                            <use xlink:href="#path-91"></use>
                        </mask>
                        <g id="Clip-92"></g>
                        <path d="M6.7,0.162 C1.144,2.489 1.144,2.489 0.958,3.194 L0.958,3.194 C0.464,5.049 2.28,9.315 3.993,10.325 L3.993,10.325 C4.572,10.665 4.948,10.543 5.15,10.478 L5.15,10.478 C5.192,10.465 10.239,8.371 10.399,8.247 L10.399,8.247 C11.22,7.605 10.949,5.984 10.714,5.076 L10.714,5.076 C10.25,3.293 8.707,0.11 7.059,0.11 L7.059,0.11 C6.94,0.11 6.82,0.127 6.7,0.162" id="Fill-91" fill="url(#linearGradient-93)" mask="url(#mask-92)"></path>
                    </g>
                    <g id="Group-96" transform="translate(366.000000, 223.818000)">
                        <mask id="mask-95" fill="white">
                            <use xlink:href="#path-94"></use>
                        </mask>
                        <g id="Clip-95"></g>
                        <path d="M6.598,0.519 C0.536,3.005 0.536,3.005 0.249,3.746 L0.249,3.746 C-0.369,5.335 0.804,9.486 2.596,10.833 L2.596,10.833 C3.27,11.34 3.789,11.198 3.796,11.196 L3.796,11.196 C4.299,11.05 9.752,8.77 9.772,8.757 L9.772,8.757 C10.454,8.292 10.683,7.109 10.4,5.511 L10.4,5.511 C10.077,3.69 8.746,0.459 7.009,0.459 L7.009,0.459 C6.874,0.459 6.737,0.478 6.598,0.519" id="Fill-94" fill="url(#linearGradient-96)" mask="url(#mask-95)"></path>
                    </g>
                    <g id="Group-99" transform="translate(355.000000, 263.818000)">
                        <mask id="mask-98" fill="white">
                            <use xlink:href="#path-97"></use>
                        </mask>
                        <g id="Clip-98"></g>
                        <path d="M6.905,0.963 C0.713,3.454 0.713,3.454 0.381,4.19 L0.381,4.19 C-0.32,5.742 0.628,9.771 2.344,11.067 L2.344,11.067 C2.987,11.55 3.51,11.406 3.514,11.404 L3.514,11.404 C4.026,11.256 9.594,8.969 9.613,8.958 L9.613,8.958 C10.326,8.491 10.627,7.336 10.439,5.784 L10.439,5.784 C10.224,4.016 9.083,0.898 7.344,0.898 L7.344,0.898 C7.202,0.898 7.055,0.919 6.905,0.963" id="Fill-97" fill="url(#linearGradient-99)" mask="url(#mask-98)"></path>
                    </g>
                    <g id="Group-102" transform="translate(418.000000, 272.818000)">
                        <mask id="mask-101" fill="white">
                            <use xlink:href="#path-100"></use>
                        </mask>
                        <g id="Clip-101"></g>
                        <path d="M6.14,0.998 C1.08,3.123 1.08,3.123 0.787,3.809 L0.787,3.809 C0.026,5.605 0.728,9.814 1.962,10.847 L1.962,10.847 C2.372,11.191 2.704,11.084 2.883,11.027 L2.883,11.027 C2.919,11.015 7.466,9.137 7.619,9.022 L7.619,9.022 C8.363,8.465 8.502,7.065 8.508,6.155 L8.508,6.155 L8.508,6.03 C8.508,6.002 8.508,5.974 8.507,5.947 L8.507,5.947 C8.479,4.167 7.819,0.956 6.421,0.956 L6.421,0.956 C6.331,0.956 6.237,0.97 6.14,0.998" id="Fill-100" fill="url(#linearGradient-102)" mask="url(#mask-101)"></path>
                    </g>
                    <g id="Group-105" transform="translate(402.000000, 311.818000)">
                        <mask id="mask-104" fill="white">
                            <use xlink:href="#path-103"></use>
                        </mask>
                        <g id="Clip-104"></g>
                        <path d="M6.271,1.009 C1.048,3.135 1.048,3.135 0.688,3.806 L0.688,3.806 C-0.075,5.239 0.12,9.062 1.294,10.341 L1.294,10.341 C1.731,10.82 2.159,10.703 2.163,10.703 L2.163,10.703 C2.582,10.583 7.234,8.651 7.249,8.64 L7.249,8.64 C7.867,8.232 8.264,7.155 8.339,5.687 L8.339,5.687 C8.427,3.995 7.973,0.963 6.578,0.963 L6.578,0.963 C6.48,0.963 6.378,0.978 6.271,1.009" id="Fill-103" fill="url(#linearGradient-105)" mask="url(#mask-104)"></path>
                    </g>
                    <g id="Group-108" transform="translate(358.000000, 359.818000)">
                        <mask id="mask-107" fill="white">
                            <use xlink:href="#path-106"></use>
                        </mask>
                        <g id="Clip-107"></g>
                        <path d="M6.825,0.342 C1.449,2.474 1.449,2.474 1.194,2.895 L1.194,2.895 C0.173,4.591 0.784,7.809 1.696,8.854 L1.696,8.854 C2.176,9.405 2.631,9.338 2.76,9.303 L2.76,9.303 C3.081,9.223 7.978,7.242 8,7.23 L8,7.23 C8.628,6.86 9.035,5.84 9.087,4.506 L9.087,4.506 C9.145,2.98 8.621,0.287 7.191,0.287 L7.191,0.287 C7.075,0.287 6.953,0.304 6.825,0.342" id="Fill-106" fill="url(#linearGradient-108)" mask="url(#mask-107)"></path>
                    </g>
                    <g id="Group-111" transform="translate(342.000000, 393.818000)">
                        <mask id="mask-110" fill="white">
                            <use xlink:href="#path-109"></use>
                        </mask>
                        <g id="Clip-110"></g>
                        <path d="M6.411,0.182 C1.524,2.13 1.524,2.13 1.292,2.515 L1.292,2.515 C0.369,4.043 0.934,6.935 1.764,7.871 L1.764,7.871 C2.2,8.363 2.612,8.303 2.726,8.272 L2.726,8.272 C3.016,8.194 7.438,6.396 7.457,6.384 L7.457,6.384 C8.028,6.047 8.398,5.129 8.447,3.93 L8.447,3.93 C8.506,2.554 8.044,0.13 6.751,0.13 L6.751,0.13 C6.643,0.13 6.53,0.146 6.411,0.182" id="Fill-109" fill="url(#linearGradient-111)" mask="url(#mask-110)"></path>
                    </g>
                    <g id="Group-114" transform="translate(335.000000, 420.818000)">
                        <mask id="mask-113" fill="white">
                            <use xlink:href="#path-112"></use>
                        </mask>
                        <g id="Clip-113"></g>
                        <path d="M5.266,0.826 C0.972,2.548 0.972,2.548 0.764,2.889 L0.764,2.889 C-0.054,4.232 0.414,6.782 1.128,7.611 L1.128,7.611 C1.502,8.044 1.857,7.991 1.958,7.963 L1.958,7.963 C2.209,7.899 6.067,6.315 6.083,6.308 L6.083,6.308 C6.582,6.011 6.919,5.205 6.985,4.144 L6.985,4.144 C7.06,2.926 6.697,0.779 5.565,0.779 L5.565,0.779 C5.471,0.779 5.371,0.794 5.266,0.826" id="Fill-112" fill="url(#linearGradient-114)" mask="url(#mask-113)"></path>
                    </g>
                    <g id="Group-117" transform="translate(351.000000, 435.818000)">
                        <mask id="mask-116" fill="white">
                            <use xlink:href="#path-115"></use>
                        </mask>
                        <g id="Clip-116"></g>
                        <path d="M5.368,0.559 C1.58,2.059 1.58,2.059 1.349,2.369 L1.349,2.369 C0.445,3.58 0.345,5.941 0.766,6.724 L0.766,6.724 C0.982,7.13 1.275,7.089 1.361,7.067 L1.361,7.067 C1.573,7.012 4.957,5.646 4.973,5.635 L4.973,5.635 C5.431,5.374 5.861,4.634 6.119,3.663 L6.119,3.663 C6.421,2.532 6.545,0.522 5.604,0.522 L5.604,0.522 C5.531,0.522 5.453,0.533 5.368,0.559" id="Fill-115" fill="url(#linearGradient-117)" mask="url(#mask-116)"></path>
                    </g>
                    <g id="Group-120" transform="translate(340.000000, 457.818000)">
                        <mask id="mask-119" fill="white">
                            <use xlink:href="#path-118"></use>
                        </mask>
                        <g id="Clip-119"></g>
                        <path d="M4.315,0.958 C1.259,2.178 1.259,2.178 1.062,2.434 L1.062,2.434 C0.331,3.38 0.14,5.343 0.436,5.99 L0.436,5.99 C0.587,6.319 0.816,6.288 0.883,6.27 L0.883,6.27 C1.051,6.226 3.742,5.129 3.755,5.121 L3.755,5.121 C4.128,4.91 4.5,4.307 4.753,3.513 L4.753,3.513 C5.069,2.522 5.217,0.929 4.496,0.929 L4.496,0.929 C4.441,0.929 4.38,0.938 4.315,0.958" id="Fill-118" fill="url(#linearGradient-120)" mask="url(#mask-119)"></path>
                    </g>
                </g>
            </g>
        </g>
    </g>
</svg>