<svg xmlns="http://www.w3.org/2000/svg" width="125" height="92" viewBox="0 0 125 92">
    <g fill="none" fill-rule="evenodd">
        <g fill="#8C6DF0">
            <g>
                <g>
                    <path d="M67.995 81.12c-4.635 1.29-9.273 2.577-13.946 3.726-2.302.566-4.613 1.098-6.934 1.58-1.19.247-2.384.48-3.58.698-.265.048-.531.11-.798.143.856-.107-.177.03-.345.058-.632.105-1.264.206-1.897.302-2.328.352-4.666.636-7.012.832-.569.048-1.138.09-1.708.128-.256.016-1.223-.025-.27.019-.332-.015-.676.033-1.007.047-1.176.048-2.353.072-3.53.07-1.142-.001-2.282-.034-3.423-.081-.52-.022.284.017.315.018-.145-.006-.29-.017-.435-.026-.262-.017-.523-.036-.784-.057-.523-.042-1.046-.093-1.568-.153-.492-.056-.984-.121-1.474-.196-.099-.015-.92-.147-.401-.062.516.084-.062-.014-.14-.029-.143-.027-.285-.055-.427-.084-.483-.099-.964-.208-1.442-.33-.224-.057-.447-.117-.67-.18l-.415-.12c-.374-.112-.186.007.059.022-.25-.015-.578-.194-.816-.28-.269-.098-.537-.201-.803-.31-.53-.215-1.052-.45-1.563-.709-.101-.05-.207-.1-.306-.157.46.262-.048-.032-.11-.068-.25-.142-.495-.29-.738-.443-.487-.309-.96-.64-1.416-.995-.22-.17-.436-.347-.646-.53-.085-.072-.169-.147-.251-.221-.006-.005-.391-.368-.17-.152-.399-.39-.77-.812-1.11-1.253-.682-.883-1.224-1.86-1.589-2.92l.113.345c-.683-2.111-.555-4.305.118-6.4l-.112.344c1.09-3.252 3.24-6.028 5.615-8.423.244-.246.107-.108.053-.055l.185-.178.433-.414c.311-.293.625-.583.941-.87.61-.553 1.231-1.093 1.862-1.622 1.258-1.054 2.555-2.06 3.887-3.016 1.329-.955 2.692-1.86 4.084-2.718.72-.444 1.449-.875 2.184-1.294.319-.181.639-.36.96-.537.174-.095.347-.19.52-.283.352-.19.019-.014-.043.022.097-.056.2-.105.3-.158 2.91-1.528 5.915-2.867 8.982-4.034.797-.303 1.598-.595 2.404-.875.376-.131.753-.26 1.13-.386l.487-.161.325-.106c.085-.027.566-.182.17-.055-.39.125.257-.08.335-.104l.49-.15c.437-.134.875-.263 1.313-.39.796-.23 1.594-.45 2.394-.66 1.604-.422 3.218-.805 4.84-1.151.811-.174 1.624-.338 2.44-.493.392-.075.786-.148 1.18-.219.116-.02.813-.143.3-.054-.505.088.278-.046.386-.064 3.263-.545 6.547-.954 9.842-1.241.9-.079 1.802-.149 2.704-.208.227-.015.454-.03.681-.043.098-.006.195-.01.292-.018-.86.06-.443.024-.251.015.487-.025.974-.048 1.462-.066 1.884-.072 3.771-.088 5.656-.027.227.007.455.015.682.025.128.005.918.046.36.015-.528-.03.21.013.358.023.258.017.517.036.775.056.935.074 1.869.17 2.799.291.448.058.896.122 1.342.192.202.032.49.02.67.11.008.004-.599-.11-.275-.047l.476.088c.919.177 1.833.38 2.74.614.438.112.874.232 1.308.359.218.064.434.13.651.196.274.083.194-.06-.08-.026.092-.012.279.092.369.123.701.237 1.393.503 2.065.815.164.076.324.158.486.236.219.106.065.145-.083-.046.034.044.152.085.2.113.33.19.653.394.963.615.286.205.55.43.817.658.053.044.227.232.004-.002.051.053.103.106.153.16.134.144.262.293.383.447.45.575.787 1.216 1.02 1.91l-.113-.344c.41 1.354.326 2.73-.1 4.068l.111-.344c-.532 1.564-1.44 2.958-2.48 4.22-.268.325-.545.641-.83.95-.14.153-.284.305-.428.454l-.186.19c-.027.028-.327.33-.214.217-.108.107-.52.499-.748.713-.33.31-.662.62-.997.925-2.518 2.308-5.154 4.483-7.892 6.516-2.714 2.015-5.528 3.891-8.428 5.618-.725.432-1.456.855-2.191 1.268-.368.206-.737.41-1.108.612l-.556.301c-.217.118.069-.037.093-.05l-.32.17c-1.519.799-3.058 1.558-4.617 2.277-1.721.794-3.465 1.541-5.23 2.23-.22.087-.442.172-.665.252l-.253.09c-.178.063-.532.082.036-.003-.23.034-.468.139-.694.196-.234.06-.97.129-.123.053-.203.018-.408.051-.61.076-.4.047.716-.004.317-.022-.117-.006-.55-.017-.01.009.782.037-.392-.093.288.03.469.085.06-.004-.038-.02-.266-.045.216.062.23.077-.012-.013-.635-.296-.135-.027-1.274-.686-2.901-.848-4.302-.465-.487.133-1.166.304-1.445.775-.214.36-.05.801.317.999 4.93 2.653 10.34.417 15.035-1.64 3.78-1.655 7.463-3.55 11.022-5.649 6.957-4.1 13.611-9.05 19.303-14.838 2.67-2.714 5.38-6.565 4.025-10.573-1.272-3.762-5.492-5.386-8.908-6.465-8.845-2.793-18.33-2.721-27.47-1.931-7.75.67-15.486 1.985-22.97 4.15-7.576 2.192-14.913 5.213-21.668 9.352-3.2 1.962-6.25 4.18-9.086 6.653-2.968 2.59-5.882 5.436-7.738 8.98-.896 1.71-1.571 3.626-1.695 5.57-.123 1.93.361 3.893 1.314 5.564 1.974 3.46 5.723 5.783 9.325 7.139 4.184 1.575 8.627 2.133 13.06 2.334 4.681.212 9.391-.022 14.046-.537 9.16-1.012 18.154-3.182 27.042-5.591 2.124-.576 4.244-1.165 6.364-1.755.43-.12 1.184-.33 1.445-.775.227-.388.022-.767-.317-.999-1.125-.769-3.035-.818-4.303-.465M49.145 39.2c6.395-7.444 14.47-12.696 23.105-17.095 4.524-2.305 9.165-4.361 13.831-6.343.618-.263 1.236-.523 1.855-.782l.464-.194.07-.029 1.115-.46c1.303-.535 2.61-1.062 3.918-1.582 2.587-1.026 5.185-2.022 7.793-2.988 5.878-2.175 11.811-4.192 17.79-6.055.243-.076.914-.319.914-.708 0-.389-.67-.633-.914-.708-1.365-.423-3.043-.426-4.41 0-10.85 3.38-21.535 7.288-32.034 11.675-9.296 3.884-18.635 8.007-27.007 13.743-4.58 3.138-8.861 6.751-12.506 10.994-.727.846 1.844 1.206 2.179 1.231.794.06 1.62.066 2.403-.1.476-.102 1.096-.206 1.434-.6" transform="translate(-110 -2037) translate(-294.227 1278.396) translate(404.227 758.604)"/>
                    <path d="M119.688 2.844l-.795-.339c-4.802 3.623-8.886 8.173-11.945 13.38-.876 1.49-1.664 3.032-2.366 4.614-.086.195 2.865.35 3.09.348.727-.004 1.463-.008 2.185-.102.208-.027.806-.022.905-.246 2.815-6.339 7.06-11.977 12.343-16.426l-.11.093c.607-.508 1.226-1 1.858-1.476.36-.271-.729-.33-.795-.338L106.348.136c-1.425-.178-2.947-.184-4.37 0-.137.017-.906.058-.906.246 0 .191.89.244.905.246l17.711 2.216z" transform="translate(-110 -2037) translate(-294.227 1278.396) translate(404.227 758.604)"/>
                </g>
            </g>
        </g>
    </g>
</svg>
