<svg xmlns="http://www.w3.org/2000/svg" xmlns:xlink="http://www.w3.org/1999/xlink" width="148" height="38" viewBox="0 0 148 38">
    <defs>
        <path id="nhz1ha98oa" d="M0 0.023L16.978 0.023 16.978 37 0 37z"/>
        <path id="8xobap4smc" d="M0.023 0.024L19.875 0.024 19.875 30.925 0.023 30.925z"/>
        <path id="k5svgn4g6e" d="M0 0L20.875 0 20.875 33.846 0 33.846z"/>
    </defs>
    <g fill="none" fill-rule="evenodd">
        <g>
            <g>
                <g>
                    <g transform="translate(-545 -2118) translate(-294.227 1278.396) translate(840.04 839.604)">
                        <mask id="vopbk3y40b" fill="#fff">
                            <use xlink:href="#nhz1ha98oa"/>
                        </mask>
                        <path fill="#8C6DF0" d="M7.882 1.89l-.019-.002.003-.002c.099-.027.278.036.016.004m8.939 33.455l-.017-.062c-.1-.411-.198-.824-.292-1.237-.197-.867-.378-1.738-.544-2.611-.335-1.76-.603-3.532-.81-5.311.55-1.042.697-2.251.273-3.454-.075-.212-.377-.373-.625-.472-.02-.316-.04-.632-.056-.948-.048-.912-1.867-.892-2.374-.826-.884.114-1.663.032-2.7-.318-.735-.247-1.935-.215-2.565.308-.679.564.207 1.015.673 1.172 1.056.355 2.16.544 3.27.592.08 1.26.19 2.516.332 3.77-.084.128-.176.251-.274.366-.3.345-.654.617-1.055.791-.002-.003-.216.073-.249.081-.052.014-.072.022-.075.028-.034 0-.077.002-.134.005.298-.014-.073-.001-.166-.002-.104-.012-.208-.029-.312-.047-.045-.016-.237-.069-.27-.079-.014-.004-.281-.103-.28-.1-.286-.117-.575-.267-.835-.439-.522-.345-1.001-.81-1.38-1.32-.869-1.17-1.412-2.582-1.768-4.009-.771-3.088-1.032-6.33-.69-9.505.173-1.602.498-3.185 1.007-4.707.475-1.42 1.058-2.915 1.919-4.132.19-.27.402-.513.658-.718.05-.04.26-.19.364-.266.055.014.135.034.169.051.079.041.445.236.622.371 1.294.992 1.66 2.782 1.96 4.332.155.794 1.242.93 1.876.93.377 0 2.022-.175 1.875-.93-.359-1.844-.797-3.732-2.194-5.032C10.563.136 8.143-.3 6.12.254 4.342.74 3.22 2.132 2.41 3.781 1.527 5.58.895 7.513.494 9.491c-.785 3.863-.608 7.919.344 11.732.45 1.8 1.07 3.531 2.257 4.945 1.287 1.534 3.06 2.447 4.969 2.786 1.18.21 2.493.18 3.7-.17 0 .008.001.017.003.025.192 1.255.417 2.504.672 3.747.12.58.247 1.16.38 1.738.076.33.154.66.235.99.016.064.041.141.067.222-.327.441-.176.943.468 1.232.586.263 1.298.306 1.928.225.4-.052 1.152-.208 1.388-.634.097-.174.084-.367.039-.56.05-.148-.01-.294-.123-.424" mask="url(#vopbk3y40b)"/>
                    </g>
                    <path fill="#8C6DF0" d="M37.21 27.318c-.817-.217-1.817-.21-2.635 0-.301.077-.466.187-.484.3-.314-.024-.63-.043-.944-.054-1.376-.048-2.764.015-4.124.24-1.04.17-2.063.421-3.054.773-.082-.357-.124-.72-.173-1.1-.457-3.54-.855-7.086-1.197-10.638 1.782-.191 3.505-.119 5.313.204.63.113 1.95.056 2.292-.617.366-.72-.865-1.008-1.302-1.086-2.13-.38-4.312-.47-6.47-.289-.102-1.123-.2-2.247-.29-3.371-.21-2.627-.388-5.256-.536-7.887 1.551-.129 3.102-.221 4.63-.267.726-.022 1.452-.031 2.179-.043.714-.01 1.896.055 2.467-.481.603-.567-.396-.833-.86-.918-.63-.115-1.331-.11-1.966.004-.263.047-.67.117-.883.315-.03 0-.06 0-.09.002-.484.01-.968.024-1.452.042-1.092.04-2.184.089-3.275.16-.272.017-.543.038-.814.058-.041-.704-3.76-.617-3.727 0l.019.336c-.498.055-.996.113-1.494.175-.31.039-1.576.116-1.301.676.247.502 1.897.433 2.292.384.19-.024.38-.045.569-.068.323 5.595.784 11.182 1.39 16.754.167 1.539.346 3.077.535 4.613.09.729.181 1.456.276 2.184.073.563.056 1.313.533 1.718.518.44 1.347.502 1.991.544.94.062 1.911-.023 2.814-.294 1.173-.353 2.244-.889 3.465-1.1.703-.121 1.116-.153 1.737-.131-.092-.003.2.015.199.014.169.015.256.02.423.04.381.046.756.13 1.135.185.705.104 1.453.111 2.16.018.382-.05.88-.102 1.197-.357.61-.492-.051-.907-.545-1.038" transform="translate(-545 -2118) translate(-294.227 1278.396) translate(840.04 839.604)"/>
                    <g transform="translate(-545 -2118) translate(-294.227 1278.396) translate(840.04 839.604) translate(36)">
                        <mask id="4gyi8839yd" fill="#fff">
                            <use xlink:href="#8xobap4smc"/>
                        </mask>
                        <path fill="#8C6DF0" d="M15.682.41c.36 7.794.36 15.6.003 23.391L4.238 3.113c-.032-.343-.064-.686-.094-1.029C4.07 1.247 2.915.945 2.183.964 1.581.98.146 1.23.223 2.084c.01.123.022.245.033.368-.161.042-.256.09-.228.14l.288.52c.727 7.913 1.762 15.798 3.11 23.635.104.609.21 1.217.319 1.824.088.494.108 1.088.396 1.514.424.63 1.31.851 2.049.84.702-.01 1.849-.236 2.086-1 .095-.307.077-.633-.198-.864l-.076-.064c-.092-.078-.192-.147-.297-.208l-.017-.096-.13-.73c-.1-.567-.198-1.134-.294-1.702-.194-1.135-.38-2.272-.56-3.409-.368-2.313-.708-4.63-1.02-6.95-.18-1.337-.35-2.676-.513-4.015l10.14 18.327c.292.526 3.884.542 3.922 0 .706-9.919.83-19.87.37-29.803-.025-.556-3.943-.475-3.921 0" mask="url(#4gyi8839yd)"/>
                    </g>
                    <path fill="#8C6DF0" d="M72.022 28.026c.174-.062.155-.03 0 0m-.731.084c-.328.04-.656.08-.983.122l-2.125.264-2 .248-.847.106c-.046-.135-.087-.27-.126-.378-.177-.482-.335-.97-.476-1.464-.245-.857-.425-1.732-.568-2.61-.302-1.849-.425-3.72-.478-5.59-.025-.878-.034-1.755-.038-2.633 2.706-.072 5.415-.066 8.122.02.461.015 1.884-.068 1.914-.742.03-.675-1.555-.73-1.914-.742-2.709-.086-5.418-.092-8.127-.02-.004-2.411-.012-4.822-.241-7.223-.173-1.814-.49-3.61-.988-5.363 1.944.002 3.89-.048 5.832-.148.575-.03 1.915-.16 1.915-.978 0-.774-1.374-1.005-1.915-.977-3.109.162-6.222.192-9.334.09C58.34.074 57 .285 57 1.07c0 .656.907.88 1.538.95 1.286 4.147 1.284 8.51 1.284 12.833-.562.064-1.205.228-1.225.696-.02.43.658.623 1.227.7.003.782.01 1.56.03 2.337.072 2.805.313 5.601 1.017 8.328.331 1.282.632 3.183 1.964 3.794.867.399 1.822.31 2.742.195l2.5-.31c1.744-.218 3.523-.354 5.253-.662.748-.133 2.329-.871 1.37-1.779-.807-.764-2.534-.69-3.41-.042M144.022 28.026c.174-.062.155-.03 0 0m-.731.084c-.328.04-.656.08-.983.122l-2.125.264-2 .248-.847.106c-.046-.135-.087-.27-.126-.378-.177-.482-.335-.97-.476-1.464-.245-.857-.425-1.732-.568-2.61-.302-1.849-.425-3.72-.478-5.59-.025-.878-.034-1.755-.038-2.633 2.706-.072 5.415-.066 8.122.02.461.015 1.884-.068 1.914-.742.03-.675-1.555-.73-1.914-.742-2.709-.086-5.418-.092-8.127-.02-.004-2.411-.012-4.822-.241-7.223-.173-1.814-.49-3.61-.988-5.363 1.944.002 3.89-.048 5.832-.148.575-.03 1.915-.16 1.915-.978 0-.774-1.374-1.005-1.915-.977-3.109.162-6.222.192-9.334.09C130.34.074 129 .285 129 1.07c0 .656.907.88 1.538.95 1.286 4.147 1.284 8.51 1.284 12.833-.562.064-1.205.228-1.225.696-.02.43.658.623 1.227.7.003.782.01 1.56.03 2.337.072 2.805.313 5.601 1.017 8.328.331 1.282.632 3.183 1.964 3.794.867.399 1.822.31 2.742.195l2.5-.31c1.744-.218 3.523-.354 5.253-.662.748-.133 2.329-.871 1.37-1.779-.807-.764-2.534-.69-3.41-.042M99.288 18.845l.236-1.377 1.115-6.493c1.249 2.396 2.326 4.883 3.278 7.42l-4.63.45m-5.98 11.108c-.001-.007.039-.012.094-.016-.054.018-.09.026-.094.016M81.95 2.848c.684-.324 1.412-.6 2.158-.75.054-.011.374-.066.285-.054.525-.07.182.012.11-.005.146.035.454.156.626.235 1.246.565 2.197 1.689 2.86 2.843 1.496 2.607 1.829 5.904 1.311 8.82-.472 2.655-1.844 5.557-4.377 6.865-.53.274-1.278.495-1.625.573l-.105.015-.036.003c-.225-.042-.135-.019-.05.002h-.026l-.064-.013c-.334-.07.07.028-.232-.047-.042-.01-.084-.023-.127-.035-.63-.566-1.28-1.107-1.969-1.606-.004-1.192-.055-2.383-.156-3.582-.325-3.859-.958-7.724-.88-11.595.65-.688 1.44-1.262 2.297-1.669m1.172 18.556c.077.02.14.034-.022 0H83.121m28.392-3.747l-3.785.368c-1.269-3.375-2.759-6.663-4.607-9.789-.501-.848-1.03-1.681-1.583-2.497l.52-3.026c.08-.464-2.006-.76-3.173-.501-.1-.12-.197-.242-.298-.36-.475-.561-1.765-.484-2.417-.427-.237.021-1.807.238-1.372.751 1.003 1.184 1.93 2.413 2.79 3.678l-1.993 11.614-1.267 7.377c-.284 1.654-.63 3.325-.722 5.005-.034.014-.069.028-.103.04-.099-.022-.255-.06-.256-.06-.37-.097-.723-.237-1.07-.398-1.636-.758-3.06-1.916-4.375-3.123-1.37-1.258-2.646-2.625-3.983-3.922.584-.033 1.157-.1 1.703-.196 1.686-.295 3.301-.947 4.562-2.113 1.253-1.16 2.133-2.685 2.672-4.284 1.133-3.356.92-7.32-.727-10.48-.774-1.484-1.88-2.77-3.428-3.504-2.278-1.08-5.224-.95-7.615-.331-.384.1-.77.215-1.154.347.022-.18.045-.36.07-.54.04-.278-1.787-.28-1.964-.28-.237 0-1.915-.073-1.965.28-.145 1.019-.22 2.038-.247 3.056-.13.142-.258.286-.377.438-1.281 1.636-1.796 3.912-.897 5.835.21.45 1.063.496 1.64.498.173 1.667.37 3.334.51 4.999.072.844.117 1.686.141 2.526-.496.063-1.189.214-.958.57.28.435.608.816.973 1.152-.011 1.046-.056 2.092-.14 3.144-.198 2.503-.44 5.013-.05 7.51.05.312 1.542.272 1.704.275.418.007.837.002 1.253-.034.248-.021.71-.004.903-.166.722-.604 1.06-1.445.828-2.366-.048-.19-.5-.257-.963-.279-.023-1.604.117-3.212.245-4.816.011-.136.019-.272.029-.408 3.396 3.385 6.626 7.086 11.612 7.617.45.048.924.08 1.408.087.007.389.03.778.075 1.167.062.52 1.382.54 1.704.55.716.027 1.548.015 2.156-.4l.933-.638c.381-.26-.404-.49-.937-.608-.008-.302-.005-.604.007-.906.36-.21.692-.465.983-.776.282-.302-.377-.47-.88-.55.147-1.314.407-2.621.63-3.918l.65-3.788 5.768-.56c.64 1.846 1.224 3.714 1.768 5.588.699 2.408 1.343 4.832 1.982 7.256.236.894 3.951.863 3.93 0l-.034-1.327c-.005-.181-.172-.324-.432-.43-1.023-3.843-2.096-7.694-3.403-11.457l4.07-.396c.6-.058 1.737-.552 1.372-1.323-.379-.8-1.691-.821-2.416-.75" transform="translate(-545 -2118) translate(-294.227 1278.396) translate(840.04 839.604)"/>
                    <g transform="translate(-545 -2118) translate(-294.227 1278.396) translate(840.04 839.604) translate(107.116 1.03)">
                        <mask id="74z55mhjuf" fill="#fff">
                            <use xlink:href="#k5svgn4g6e"/>
                        </mask>
                        <path fill="#8C6DF0" d="M18.93 5.807l-6.363.076-.576-4.849C11.893.215 10.74 0 10.046 0c-.528 0-2.04.228-1.944 1.034l.582 4.895-6.74.081c-.453.006-1.911.04-1.944.704-.03.637 1.604.707 1.945.703l6.906-.082.966 8.124c.281 2.37.564 4.744.646 7.13.081 2.378-.125 4.759.003 7.136.036.68.1 1.36.21 2.034.09.547.124 1.142.573 1.538.722.638 1.986.657 2.856.377.794-.256 1.32-.928.668-1.612-.054-.057-.117-.107-.182-.153-.035-.209-.068-.418-.096-.627-.068-.517-.112-1.037-.14-1.557-.057-1.043-.045-2.089-.024-3.133.042-2.038.058-4.062-.098-6.096-.316-4.134-.91-8.254-1.4-12.372l-.099-.836 6.196-.074c.454-.006 1.912-.04 1.944-.704.031-.638-1.603-.707-1.944-.703" mask="url(#74z55mhjuf)"/>
                    </g>
                </g>
            </g>
        </g>
    </g>
</svg>
