<svg xmlns="http://www.w3.org/2000/svg" xmlns:xlink="http://www.w3.org/1999/xlink" width="152" height="30" viewBox="0 0 152 30">
    <defs>
        <path id="prefix__a" d="M0 0.324L23.609 0.324 23.609 22.923 0 22.923z"/>
        <path id="prefix__c" d="M0 29.195L151.989 29.195 151.989 0 0 0z"/>
    </defs>
    <g fill="none" fill-rule="evenodd">
        <path fill="#FFF" d="M32.997 13.003l.001-4.244c-1.132-.675-2.265-1.346-3.398-2.02v6.355c1.081-.078 2.211-.11 3.397-.091M27.716 5.534l-2.941-1.993v10.25c1.067-.238 2.198-.433 3.398-.567V6.378c0-.161 0-.33-.073-.474-.08-.16-.236-.268-.384-.37"/>
        <path fill="#FFF" d="M49.11 18.96c-.124-1.032-.376-2.054-.808-3-.638-1.394-1.679-2.565-3.013-3.324-.875-.5-1.854-.826-2.852-.967-.206-.028-.418-.054-.627-.055C40.957-.923 28.88-.238 25.66.17v2.147C41.46.34 39.593 13.632 39.593 13.632c1.927-.116 3.99.2 5.499 1.497.922.794 1.542 1.885 1.846 3.056.53 2.045-.132 4.52-1.441 6.153-1.288 1.605-3.187 2.49-5.197 2.625-2.433.16-4.873.1-7.307.043l.003-13.533c-1.042.088-2.187.226-3.397.44v13.111h-1.43l.004-12.827c-1.106.245-2.248.555-3.399.95v13.972c4.404.025 8.808.05 13.212.073 1.424.009 2.858.015 4.259-.248 3.149-.597 5.17-2.81 6.224-5.759.487-1.362.813-2.781.64-4.226M23.609 14.08V.437l-3.277 2.554V15.19c1.013-.42 2.102-.795 3.277-1.11M18.89 15.837V4.105l-3.337 2.284v11.43c.988-.703 2.095-1.374 3.337-1.982"/>
        <g transform="translate(0 6.155)">
            <mask id="prefix__b" fill="#fff">
                <use xlink:href="#prefix__a"/>
            </mask>
            <path fill="#FFF" d="M20.332 10.965v9.799H18.89V11.85c-1.17.778-2.293 1.68-3.337 2.731v6.244H9.208c-1.029 0-2.033.114-3.022-.232-.643-.225-1.26-.535-1.813-.934-1.602-1.153-2.543-3.168-2.205-5.134.2-1.163.703-2.318 1.609-3.102 1.255-1.084 2.998-1.17 4.562-.878 0 0 .15-7.034 5.832-8.116V.324S8.039.714 6.506 8.29c-.002.007-.478.028-.506.03-.43.047-.857.134-1.271.26-1.284.386-2.435 1.147-3.244 2.22C.143 12.585-.311 14.945.21 17.1c.37 1.525 1.158 2.945 2.348 3.98.509.442 1.08.808 1.688 1.098.345.164.703.303 1.067.42.767.246 1.477.318 2.279.325.864.007 1.728-.024 2.592-.024h13.424V9.418c-1.102.43-2.202.941-3.277 1.547" mask="url(#prefix__b)"/>
        </g>
        <path fill="#FFF" d="M65.911 10.425v2.426c-1.69-.83-3.246-1.244-4.666-1.244-1.822 0-3.357.588-4.605 1.765-1.248 1.177-1.871 2.622-1.871 4.336 0 1.747.637 3.204 1.914 4.373 1.276 1.168 2.875 1.752 4.796 1.752 1.395 0 2.873-.439 4.432-1.317v2.45c-1.42.755-2.959 1.133-4.617 1.133-2.43 0-4.506-.822-6.23-2.467-1.724-1.644-2.585-3.628-2.585-5.949 0-2.28.847-4.232 2.542-5.856 1.695-1.624 3.737-2.436 6.126-2.436 1.534 0 3.122.344 4.764 1.034"/>
        <mask id="prefix__d" fill="#fff">
            <use xlink:href="#prefix__c"/>
        </mask>
        <path fill="#FFF" d="M68.546 25.569L70.689 25.569 70.689 9.587 68.546 9.587zM82.029 20.454c0-.864-.329-1.614-.985-2.252-.657-.637-1.437-.956-2.34-.956-.928 0-1.725.323-2.395.969-.669.645-1.003 1.416-1.003 2.312 0 .856.339 1.604 1.016 2.246.677.641 1.47.962 2.382.962.887 0 1.663-.329 2.327-.987.665-.658.998-1.423.998-2.294m-8.816-.007c0-1.387.548-2.62 1.643-3.7 1.096-1.079 2.354-1.619 3.775-1.619 1.46 0 2.737.532 3.829 1.595 1.091 1.063 1.637 2.305 1.637 3.724 0 1.429-.535 2.687-1.607 3.774-1.07 1.088-2.308 1.632-3.712 1.632-1.502 0-2.805-.538-3.91-1.613-1.103-1.076-1.655-2.34-1.655-3.793M86.018 15.411h2.143v5.726c0 1.765.775 2.647 2.327 2.647.69 0 1.235-.236 1.637-.708.402-.472.604-1.118.604-1.94v-5.725h2.117v6.07c0 1.273-.414 2.32-1.243 3.14-.83.821-1.888 1.231-3.177 1.231-1.313 0-2.376-.41-3.189-1.23-.812-.821-1.219-1.893-1.219-3.214V15.41zM106.199 20.472c0-.911-.334-1.701-1-2.37-.666-.67-1.46-1.004-2.38-1.004-.954 0-1.762.327-2.424.98-.662.652-.993 1.45-.993 2.394 0 .903.337 1.693 1.011 2.37.675.677 1.46 1.016 2.357 1.016.953 0 1.763-.328 2.43-.985.665-.656.999-1.457.999-2.401zm-.247-10.884h2.118V25.57h-2.093v-2.118c-1.011 1.6-2.335 2.4-3.97 2.4-1.324 0-2.458-.529-3.404-1.588-.945-1.059-1.417-2.33-1.417-3.817 0-1.452.48-2.702 1.442-3.749.962-1.046 2.109-1.57 3.44-1.57.798 0 1.541.222 2.232.665.69.443 1.241 1.022 1.652 1.736V9.588zM124.501 9.231L128.792 25.57 126.693 25.57 124.096 15.586 119.625 26.173 115.142 15.499 112.509 25.57 110.422 25.57 114.713 9.231 119.624 20.921zM130.996 25.57h2.118V15.412h-2.118V25.57zm-.603-13.495c0-.443.164-.827.493-1.152.328-.324.718-.486 1.17-.486.443 0 .826.162 1.15.486.325.325.487.709.487 1.152 0 .451-.162.837-.486 1.157-.325.32-.708.48-1.152.48-.451 0-.841-.16-1.17-.48-.328-.32-.492-.706-.492-1.157zM136.611 25.569L138.753 25.569 138.753 9.587 136.611 9.587zM143.543 19.191h6.205c-.69-1.395-1.707-2.093-3.053-2.093-1.47 0-2.52.698-3.152 2.093m8.446 1.712h-8.668c.189 1.042.618 1.804 1.287 2.284.669.48 1.397.72 2.185.72 1.215 0 2.233-.505 3.054-1.514l1.563 1.182c-1.173 1.519-2.745 2.277-4.715 2.277-1.51 0-2.775-.516-3.792-1.55-1.018-1.035-1.527-2.32-1.527-3.855 0-1.436.515-2.682 1.545-3.737 1.03-1.054 2.288-1.582 3.774-1.582 1.46 0 2.713.536 3.755 1.607 1.043 1.071 1.556 2.46 1.54 4.168" mask="url(#prefix__d)"/>
    </g>
</svg>
