<svg xmlns="http://www.w3.org/2000/svg" xmlns:xlink="http://www.w3.org/1999/xlink" width="440" height="146" viewBox="0 0 440 146">
    <defs>
        <path id="prefix__a" d="M0.479 0.21L160.96 0.21 160.96 93.871 0.479 93.871z"/>
        <path id="prefix__c" d="M0 0.404L35.912 0.404 35.912 36 0 36z"/>
    </defs>
    <g fill="none" fill-rule="evenodd">
        <path fill="#FEFEFE" d="M369.788 92.798L371 89.66c3.44-8.89 13.26-16.177 22.371-16.592l16.783-.96c.767-.033 1.504-.592 1.757-1.331.162-.476.102-.974-.17-1.362-.256-.368-.675-.596-1.151-.62l-16.151-.96c-4-.187-7.294-1.796-9.27-4.54-2.149-2.974-2.625-7.019-1.345-11.398l2.98-10.191c.11-.38.4-.67.762-.797l-.038-.022L383.183 39c.002.326-.052.652-.172.96l-4.361 11.284c-3.439 8.89-13.26 16.18-22.33 16.592l-76.47.96c-.77.033-1.51.592-1.76 1.332-.163.474-.102.97.161 1.355.26.374.683.602 1.193.628l75.768.957c4 .188 7.293 1.8 9.27 4.54 2.148 2.975 2.625 7.023 1.345 11.402l-1.076 3.68c-.225.767-.93 1.291-1.73 1.31h7.563c-.606-.03-1.017-.634-.796-1.202"/>
        <g transform="translate(222)">
            <mask id="prefix__b" fill="#fff">
                <use xlink:href="#prefix__a"/>
            </mask>
            <path fill="#AAA" d="M142.688 92.562l1.065-3.664c1.269-4.359.797-8.39-1.333-11.35-1.959-2.727-5.225-4.332-9.19-4.519l-75.113-.952c-.506-.027-.924-.253-1.182-.627-.261-.383-.322-.876-.161-1.349.248-.736.981-1.292 1.745-1.325l75.81-.955c8.992-.41 18.728-7.667 22.137-16.516l4.324-11.234c.119-.306.172-.63.17-.954 0-.178-.015-.356-.053-.531C155.993 16.629 136.29.21 112.73.21c-21.71 0-40.143 13.934-46.753 33.3-4.267-3.183-9.726-4.875-15.593-4.293-10.417 1.03-18.786 9.369-19.82 19.726-.272 2.688-.051 5.283.572 7.72C14.124 57.157.48 71.019.48 88.057c0 1.542.118 3.057.335 4.54.108.719.717 1.258 1.447 1.258l138.672.017c.014 0 .026-.006.039-.007.793-.018 1.492-.54 1.716-1.302" mask="url(#prefix__b)"/>
        </g>
        <path fill="#AAA" d="M389.043 41c-.694 0-1.386.02-2.074.053-.114.006-.221.034-.325.07-.36.126-.646.416-.755.793l-2.946 10.15c-1.266 4.36-.795 8.388 1.33 11.351 1.954 2.732 5.212 4.334 9.168 4.521l15.974.957c.471.023.886.25 1.14.616.267.386.327.883.167 1.356-.251.737-.98 1.293-1.738 1.326l-16.6.956c-9.01.414-18.723 7.67-22.125 16.523l-1.2 3.125c-.218.566.189 1.168.788 1.198.016 0 .03.005.045.005h57.115c.682 0 1.29-.443 1.473-1.096.992-3.518 1.52-7.227 1.52-11.062C430 59.285 411.664 41 389.043 41"/>
        <path fill="#B5B4B4" d="M436.497 114.806c.344 0 .684-.178.684-.674 0-.5-.264-.674-.684-.674h-1.292v1.348h1.292zm1.524 2.302h-.948l-.796-1.537h-1.072v1.526h-.828v-4.404h2.11c.926 0 1.512.566 1.512 1.44 0 .63-.365 1.137-.915 1.337l.937 1.638zm-2.019-5.368c-1.77 0-3.206 1.46-3.206 3.254 0 1.806 1.436 3.266 3.206 3.266 1.766 0 3.201-1.46 3.201-3.266 0-1.794-1.435-3.254-3.201-3.254zm0 7.26c-2.21 0-4.002-1.79-4.002-4.006 0-2.203 1.791-3.994 4.002-3.994 2.207 0 3.998 1.79 3.998 3.994 0 2.215-1.79 4.006-3.998 4.006z"/>
        <path fill="#AAA" d="M48 111L57.463 111 57.463 136.745 74 136.745 74 145 48 145zM110.284 128.597v-.095c0-4.857-3.581-9.088-8.831-9.088-5.202 0-8.686 4.136-8.686 8.992v.096c0 4.856 3.58 9.086 8.783 9.086 5.25 0 8.734-4.134 8.734-8.99m-27.284 0v-.096C83 118.838 90.95 111 101.55 111c10.6 0 18.45 7.742 18.45 17.406v.096c0 9.663-7.95 17.498-18.547 17.498C90.853 146 83 138.26 83 128.597M132 130.293V111h9.368v19.098c0 4.958 2.424 7.313 6.132 7.313 3.708 0 6.132-2.257 6.132-7.068V111H163v19.047c0 11.095-6.132 15.953-15.594 15.953-9.463 0-15.406-4.956-15.406-15.707M192.138 136.645c5.582 0 9.286-3.11 9.286-8.599v-.096c0-5.44-3.704-8.598-9.286-8.598h-3.802v17.293h3.802zM179 111h12.993c12.029 0 19.007 6.993 19.007 16.804v.1c0 9.81-7.074 17.096-19.199 17.096H179v-34zM224 111L252 111 252 119.258 233.701 119.258 233.701 125.037 250.252 125.037 250.252 132.857 233.701 132.857 233.701 145 224 145zM265 111L274.463 111 274.463 136.745 291 136.745 291 145 265 145zM324.711 131.69l-3.784-9.598-3.835 9.598h7.62zM316.464 111h9.072L340 145h-10.094l-2.478-6.028h-13.103L311.9 145H302l14.464-34zM367.5 127.32c3.177 0 5.007-1.555 5.007-4.031v-.097c0-2.673-1.926-4.031-5.057-4.031h-6.112v8.158h6.162zM352 111h15.932c5.153 0 8.712 1.361 10.974 3.691 1.976 1.944 2.986 4.566 2.986 7.918v.097c0 5.196-2.745 8.644-6.93 10.441L383 145h-10.783l-6.785-10.298h-4.094V145H352v-34zM397 111L424.753 111 424.753 119.016 406.466 119.016 406.466 124.162 423.03 124.162 423.03 131.595 406.466 131.595 406.466 136.988 425 136.988 425 145 397 145z"/>
        <g transform="translate(0 110)">
            <mask id="prefix__d" fill="#fff">
                <use xlink:href="#prefix__c"/>
            </mask>
            <path fill="#AAA" d="M25.879 22.312c-1.305 2.995-4.057 5.13-7.707 5.13-5.098 0-8.607-4.303-8.607-9.241v-.097c0-4.94 3.414-9.145 8.511-9.145 3.842 0 6.768 2.403 8.004 5.673h9.832C34.337 6.486 27.299.404 18.172.404 7.786.404 0 8.373 0 18.201v.097C0 28.126 7.691 36 18.076 36c8.883 0 15.826-5.85 17.658-13.688H25.88z" mask="url(#prefix__d)"/>
        </g>
    </g>
</svg>
