<svg xmlns="http://www.w3.org/2000/svg" width="44" height="26" viewBox="0 0 44 26">
    <g fill="#FFF" fill-rule="evenodd">
        <path d="M29.038 11.442V7.708c-.996-.594-1.993-1.185-2.99-1.777v5.592c.951-.069 1.946-.097 2.99-.08M24.39 4.87l-2.588-1.754v9.02c.939-.21 1.935-.38 2.99-.499V5.613c0-.142 0-.29-.064-.418-.07-.14-.207-.236-.338-.325"/>
        <path d="M43.216 16.684c-.108-.908-.33-1.807-.71-2.64-.562-1.226-1.478-2.256-2.651-2.924-.77-.44-1.632-.727-2.51-.851-.182-.025-.368-.047-.552-.049C36.042-.812 25.415-.21 22.58.15v1.889C36.484.3 34.843 11.996 34.843 11.996c1.695-.102 3.512.176 4.838 1.317.812.7 1.358 1.66 1.625 2.69.467 1.8-.116 3.978-1.268 5.415-1.133 1.412-2.804 2.19-4.573 2.309-2.14.14-4.288.089-6.43.039l.003-11.91c-.918.078-1.926.2-2.99.388v11.537H24.79l.003-11.288c-.973.216-1.978.49-2.99.836v12.295c3.875.023 7.75.045 11.625.065 1.254.008 2.516.014 3.748-.219 2.772-.525 4.55-2.471 5.477-5.067.43-1.199.716-2.447.563-3.719M20.776 12.39V.386l-2.884 2.247v10.734c.892-.37 1.85-.7 2.884-.977M16.623 13.937V3.612l-2.937 2.01v10.06c.87-.62 1.844-1.21 2.937-1.745"/>
        <path d="M17.892 15.066v8.623h-1.269v-7.844c-1.029.684-2.018 1.477-2.936 2.403v5.495H8.102c-.904 0-1.788.1-2.659-.205-.565-.197-1.108-.47-1.595-.821-1.41-1.015-2.238-2.788-1.94-4.518.176-1.024.618-2.04 1.415-2.73 1.105-.954 2.64-1.03 4.016-.772 0 0 .132-6.191 5.131-7.143V5.702s-5.396.343-6.745 7.01c-.001.005-.42.024-.445.026-.378.04-.754.118-1.119.228-1.13.34-2.143 1.01-2.854 1.954-1.18 1.57-1.58 3.647-1.121 5.544.325 1.342 1.018 2.591 2.066 3.503.448.388.95.71 1.485.965.304.145.619.267.94.37.674.216 1.3.28 2.004.286.76.006 1.522-.021 2.281-.021H20.776V13.705c-.97.378-1.938.828-2.884 1.361"/>
    </g>
</svg>
