<?xml version="1.0" encoding="UTF-8"?>
<svg width="440px" height="65px" viewBox="0 0 440 65" version="1.1" xmlns="http://www.w3.org/2000/svg" xmlns:xlink="http://www.w3.org/1999/xlink">
    <title>6D4F6EC7-CB9D-41C4-A5DD-00CCC4C9701B</title>
    <defs>
        <polygon id="path-1" points="0.0791258578 0.145396269 43.802431 0.145396269 43.802431 64.8059701 0.0791258578 64.8059701"></polygon>
        <polygon id="path-3" points="0 0.130009701 48.7510579 0.130009701 48.7510579 64.7905545 0 64.7905545"></polygon>
    </defs>
    <g id="product-page" stroke="none" stroke-width="1" fill="none" fill-rule="evenodd">
        <g id="milelync-laptop" transform="translate(-180.000000, -635.000000)">
            <g id="logo-milelync" transform="translate(180.000000, 635.000000)">
                <g id="Group-9">
                    <g id="Group-3" transform="translate(54.796569, 0.000000)">
                        <mask id="mask-2" fill="white">
                            <use xlink:href="#path-1"></use>
                        </mask>
                        <g id="Clip-2"></g>
                        <path d="M9.79520613,0.869370149 L0.801598284,9.88186269 C-0.161698284,10.8469672 -0.161698284,12.4118179 0.801598284,13.3771164 L5.82410074,18.4102507 C6.28667672,18.8737881 6.91402966,19.1341761 7.56810319,19.1341761 L10.5176301,19.1341761 C11.1717037,19.1341761 11.7992502,19.3945642 12.2616326,19.8581015 L23.1092233,30.7280418 C24.0723262,31.6931463 24.0723262,33.258191 23.1092233,34.2232955 L12.2616326,45.0934299 C11.7992502,45.5567731 11.1717037,45.8173552 10.5176301,45.8173552 L7.56810319,45.8173552 C6.91402966,45.8173552 6.28667672,46.0777433 5.82410074,46.5412806 L0.801598284,51.5742209 C-0.161698284,52.5395194 -0.161698284,54.1043701 0.801598284,55.0696687 L9.79520613,64.0821612 C10.7585027,65.0472657 12.3201081,65.0472657 13.2834047,64.0821612 L43.0799586,34.2232955 C44.0432551,33.258191 44.0432551,31.6931463 43.0799586,30.7280418 L13.2834047,0.869370149 C12.3201081,-0.0959283582 10.7585027,-0.0959283582 9.79520613,0.869370149" id="Fill-1" fill="#253136" mask="url(#mask-2)"></path>
                    </g>
                    <path d="M55.7964801,27.3737701 L42.6119998,27.3737701 C41.9577326,27.3737701 41.3305733,27.6341582 40.8678037,28.0975015 L38.2584801,30.7126358 C37.2951836,31.6779343 37.2951836,33.2427851 38.2584801,34.2078896 L40.8678037,36.8228299 C41.3305733,37.2863672 41.9577326,37.5467552 42.6119998,37.5467552 L55.7964801,37.5467552 C56.4507473,37.5467552 57.0779066,37.2863672 57.5406762,36.8228299 L60.1499998,34.2078896 C61.1132963,33.2427851 61.1132963,31.6779343 60.1499998,30.7126358 L57.5406762,28.0975015 C57.0779066,27.6341582 56.4507473,27.3737701 55.7964801,27.3737701" id="Fill-4" fill="#ED7B4C"></path>
                    <g id="Group-8">
                        <mask id="mask-4" fill="white">
                            <use xlink:href="#path-3"></use>
                        </mask>
                        <g id="Clip-7"></g>
                        <path d="M31.5408468,45.0780433 L20.6934498,34.207909 C19.7301532,33.2428045 19.7301532,31.6779537 20.6934498,30.7126552 L31.5408468,19.8425209 C32.0034228,19.3789836 32.6307757,19.1185955 33.2848493,19.1185955 L46.2795748,19.1185955 C48.4770527,19.1185955 49.5774375,16.456506 48.0237708,14.8994164 L34.0070797,0.853983582 C33.0441703,-0.111314925 31.4823713,-0.111314925 30.5192684,0.853983582 L0.722327206,30.7126552 C-0.240775735,31.6779537 -0.240775735,33.2428045 0.722327206,34.207909 L30.5192684,64.0665806 C31.4823713,65.0318791 33.0441703,65.0318791 34.0070797,64.0665806 L48.0237708,50.0211478 C49.5774375,48.4640582 48.4770527,45.8017746 46.2795748,45.8017746 L33.2848493,45.8017746 C32.6307757,45.8017746 32.0034228,45.5415806 31.5408468,45.0780433" id="Fill-6" fill="#4C595F" mask="url(#mask-4)"></path>
                    </g>
                </g>
                <g id="Group-28" transform="translate(117.000000, 12.000000)">
                    <path d="M46.8677069,38.8709896 L50.0984819,38.8709896 C50.9897837,38.8709896 51.7125131,38.1474522 51.7125131,37.2547209 L51.7125131,3.29949701 C51.7125131,1.51325821 50.2662792,0.065019403 48.4823194,0.065019403 L46.8677069,0.065019403 C45.9762114,0.065019403 45.2536757,0.788556716 45.2536757,1.68128806 L45.2536757,37.2547209 C45.2536757,38.1474522 45.9762114,38.8709896 46.8677069,38.8709896" id="Fill-10" fill="#253136"></path>
                    <path d="M268.45338,27.6790179 L245.957699,0.646779104 C245.650975,0.278122388 245.196605,0.0650776119 244.717239,0.0650776119 L242.244071,0.0650776119 C240.460692,0.0650776119 239.014846,1.51292836 239.014846,3.2987791 L239.014846,35.6373463 C239.014846,37.423391 240.460692,38.8710478 242.244071,38.8710478 L243.858877,38.8710478 C244.75076,38.8710478 245.47349,38.1471224 245.47349,37.254197 L245.47349,12.2922567 C245.47349,10.7799881 247.361887,10.0954507 248.328755,11.2571075 L270.824242,38.2893463 C271.130967,38.657809 271.58553,38.8710478 272.064702,38.8710478 L274.537871,38.8710478 C276.321249,38.8710478 277.767096,37.423391 277.767096,35.6373463 L277.767096,3.2987791 C277.767096,1.51292836 276.321249,0.0650776119 274.537871,0.0650776119 L272.923064,0.0650776119 C272.031375,0.0650776119 271.308452,0.789002985 271.308452,1.68192836 L271.308452,26.6438687 C271.308452,28.1561373 269.420055,28.8406746 268.45338,27.6790179" id="Fill-12" fill="#253136"></path>
                    <path d="M61.4005561,0.0650970149 L59.7857499,0.0650970149 C58.8938669,0.0650970149 58.1711374,0.789022388 58.1711374,1.68194776 L58.1711374,32.4034701 L58.1711374,35.6371716 C58.1711374,37.4234104 59.6169839,38.8710672 61.4003624,38.8710672 L64.6297811,38.8710672 L95.3087745,38.8710672 C96.2004638,38.8710672 96.923387,38.1471418 96.923387,37.2542164 L96.923387,35.6371716 C96.923387,33.8511269 95.4775406,32.4034701 93.694162,32.4034701 L66.2445873,32.4034701 C65.3527043,32.4034701 64.6297811,31.6793507 64.6297811,30.7864254 L64.6297811,3.29879851 C64.6297811,1.51275373 63.1839347,0.0650970149 61.4005561,0.0650970149" id="Fill-14" fill="#253136"></path>
                    <path d="M151.822536,0.0650970149 L150.20773,0.0650970149 C149.315847,0.0650970149 148.593118,0.789022388 148.593118,1.68194776 L148.593118,32.4034701 L148.593118,35.6371716 C148.593118,37.4234104 150.038964,38.8710672 151.822343,38.8710672 L155.051761,38.8710672 L185.730561,38.8710672 C186.622444,38.8710672 187.345367,38.1471418 187.345367,37.2542164 L187.345367,35.6371716 C187.345367,33.8511269 185.899521,32.4034701 184.116142,32.4034701 L156.666374,32.4034701 C155.774685,32.4034701 155.051761,31.6793507 155.051761,30.7864254 L155.051761,3.29879851 C155.051761,1.51275373 153.605915,0.0650970149 151.822536,0.0650970149" id="Fill-16" fill="#253136"></path>
                    <path d="M117.913562,22.7019 L134.061625,22.7019 C134.952926,22.7019 135.675656,21.9783627 135.675656,21.0856313 L135.675656,17.8505716 C135.675656,16.9578403 134.952926,16.234303 134.061625,16.234303 L117.913562,16.234303 C117.022067,16.234303 116.299531,16.9578403 116.299531,17.8505716 L116.299531,21.0856313 C116.299531,21.9783627 117.022067,22.7019 117.913562,22.7019" id="Fill-18" fill="#ED7B4C"></path>
                    <path d="M106.611449,0.0650970149 C104.827877,0.0650970149 103.382031,1.51275373 103.382031,3.29879851 L103.382031,6.53269403 L103.382031,32.4034701 L103.382031,35.6371716 C103.382031,37.4234104 104.827877,38.8710672 106.611449,38.8710672 L109.840868,38.8710672 L138.905055,38.8710672 C140.688628,38.8710672 142.13428,37.4234104 142.13428,35.6371716 L142.13428,34.0203209 C142.13428,33.1272015 141.411551,32.4034701 140.519668,32.4034701 L111.455481,32.4034701 C110.563598,32.4034701 109.840868,31.6793507 109.840868,30.7864254 L109.840868,8.14973881 C109.840868,7.2566194 110.563598,6.53269403 111.455481,6.53269403 L140.519668,6.53269403 C141.411551,6.53269403 142.13428,5.80876866 142.13428,4.91584328 L142.13428,3.29879851 C142.13428,1.51275373 140.688628,0.0650970149 138.905055,0.0650970149 L109.840868,0.0650970149 L106.611449,0.0650970149 Z" id="Fill-20" fill="#253136"></path>
                    <path d="M232.55626,3.29957463 C232.55626,1.51314179 231.11022,0.0650970149 229.32626,0.0650970149 L227.711454,0.0650970149 C226.820152,0.0650970149 226.097423,0.788828358 226.097423,1.68136567 L226.097423,16.2341866 L201.877267,16.2341866 C200.985384,16.2341866 200.262655,15.5102612 200.262655,14.6173358 L200.262655,1.68136567 C200.262655,0.788828358 199.540119,0.0650970149 198.648623,0.0650970149 L197.033236,0.0650970149 C195.249857,0.0650970149 193.804011,1.51275373 193.804011,3.29879851 L193.804011,16.2341866 L193.804011,21.0849328 C193.804011,21.9778582 194.526934,22.7019776 195.418817,22.7019776 L224.48281,22.7019776 C225.374694,22.7019776 226.097423,23.425709 226.097423,24.3188284 L226.097423,30.7864254 C226.097423,31.6793507 225.374694,32.4034701 224.48281,32.4034701 L195.418817,32.4034701 C194.526934,32.4034701 193.804011,33.1272015 193.804011,34.0203209 L193.804011,35.6373657 C193.804011,37.4232164 195.249857,38.8710672 197.033236,38.8710672 L229.326842,38.8710672 C231.11022,38.8710672 232.55626,37.4232164 232.55626,35.6371716 L232.55626,21.4898731 L232.55626,21.4898731 L232.55626,3.29957463 Z" id="Fill-22" fill="#253136"></path>
                    <path d="M290.684635,30.7865224 L290.684635,8.14964179 C290.684635,7.25652239 291.407364,6.53279104 292.299247,6.53279104 L321.363434,6.53279104 C322.255317,6.53279104 322.978047,5.80886567 322.978047,4.9159403 L322.978047,3.29889552 C322.978047,1.51285075 321.5322,0.0651940299 319.748822,0.0651940299 L290.684635,0.0651940299 L287.455216,0.0651940299 C285.671644,0.0651940299 284.225797,1.51285075 284.225797,3.29889552 L284.225797,6.53279104 L284.225797,32.4033731 L284.225797,35.6372687 C284.225797,37.4231194 285.671644,38.8709701 287.455216,38.8709701 L290.684635,38.8709701 L319.748822,38.8709701 C321.5322,38.8709701 322.978047,37.4231194 322.978047,35.6372687 L322.978047,34.0202239 C322.978047,33.1271045 322.255317,32.4033731 321.363434,32.4033731 L292.299247,32.4033731 C291.407364,32.4033731 290.684635,31.6794478 290.684635,30.7865224" id="Fill-24" fill="#253136"></path>
                    <path d="M32.3361752,0.0650970149 L20.5605292,11.8570672 C19.9300301,12.4884403 18.9075519,12.4884403 18.2768591,11.8570672 L6.50140678,0.0650970149 L6.50121302,0.0650970149 L3.27198806,0.0650970149 C1.48860954,0.0650970149 0.0427631074,1.51275373 0.0427631074,3.29879851 L0.0427631074,35.6371716 C0.0427631074,37.4234104 1.48860954,38.8710672 3.27198806,38.8710672 L3.27218182,38.8710672 C5.05556035,38.8710672 6.50140678,37.4234104 6.50140678,35.6371716 L6.50140678,13.1155448 C6.50140678,11.6748731 8.2408015,10.9536642 9.25785429,11.9723209 L14.8517415,17.5737687 L19.4186941,22.1472463 L19.4188879,22.1472463 L29.5797277,11.9723209 C30.5969743,10.9536642 32.3361752,11.6748731 32.3361752,13.1155448 L32.3361752,35.6371716 C32.3361752,37.4234104 33.7820217,38.8710672 35.5655939,38.8710672 L35.5657877,38.8710672 C37.3491662,38.8710672 38.7950127,37.4234104 38.7950127,35.6371716 L38.7950127,3.29879851 C38.7950127,1.51275373 37.3491662,0.0650970149 35.5657877,0.0650970149 L32.336369,0.0650970149 L32.3361752,0.0650970149 Z" id="Fill-26" fill="#253136"></path>
                </g>
            </g>
        </g>
    </g>
</svg>