<svg xmlns="http://www.w3.org/2000/svg" xmlns:xlink="http://www.w3.org/1999/xlink" width="53" height="29" viewBox="0 0 53 29">
    <defs>
        <path id="prefix__a" d="M0 0L27.106 0 27.106 12.375 0 12.375z"/>
        <path id="prefix__c" d="M0 0L6.912 0 6.912 6.912 0 6.912z"/>
        <path id="prefix__e" d="M0 0L6.912 0 6.912 6.912 0 6.912z"/>
    </defs>
    <g fill="none" fill-rule="evenodd">
        <path fill="#000000" d="M29.232 9.216c0-1.59-1.29-2.88-2.88-2.88-1.59 0-2.88 1.29-2.88 2.88 0 1.59 1.29 2.88 2.88 2.88 1.59 0 2.88-1.29 2.88-2.88"/>
        <path fill="#000000" d="M34.467 6.17l-2.36 2.36c-.144.144-.225.34-.225.543v.143c0 .155-.008.309-.021.46-.234 2.839-2.61 5.07-5.509 5.07H11.924c-.203 0-.399.08-.543.224l-2.805 2.806c-.242.242-.071.656.271.656h17.397c5.146 0 9.378-4.17 9.323-9.315-.01-.977-.173-1.918-.465-2.8-.09-.27-.434-.348-.635-.147"/>
        <g transform="translate(17.136)">
            <mask id="prefix__b" fill="#fff">
                <use xlink:href="#prefix__a"/>
            </mask>
            <path fill="#000000" d="M26.72 0H9.325C4.178 0-.054 4.17 0 9.315c.01.977.174 1.918.466 2.8.09.27.434.348.635.147l2.36-2.36c.144-.144.225-.34.225-.543v-.143c0-.155.008-.309.021-.46.234-2.839 2.61-5.07 5.509-5.07h14.427c.204 0 .4-.08.544-.225L26.992.655c.242-.241.071-.655-.271-.655" mask="url(#prefix__b)"/>
        </g>
        <g transform="translate(46.08 21.888)">
            <mask id="prefix__d" fill="#fff">
                <use xlink:href="#prefix__c"/>
            </mask>
            <path fill="#000000" d="M5.76 0v3.915c0 .256-.309.383-.49.203L1.153 0H.574C.257 0 0 .257 0 .574v5.764c0 .317.257.574.574.574h.578V2.321c0-.256.309-.384.49-.203L5.76 6.236v.676h.578c.317 0 .574-.257.574-.574V.574C6.912.257 6.655 0 6.338 0H5.76z" mask="url(#prefix__d)"/>
        </g>
        <path fill="#000000" d="M9.216 28.8c.318 0 .576-.258.576-.576v-5.762c0-.317-.257-.574-.574-.574H8.64v6.336c0 .318.258.576.576.576M12.098 21.888h-.578v6.338c0 .317.257.574.574.574h6.338v-.578c0-.317-.257-.574-.574-.574H12.96c-.159 0-.288-.13-.288-.288v-4.898c0-.317-.257-.574-.574-.574M20.734 21.888c-.317 0-.574.257-.574.574v5.764c0 .317.257.574.574.574h5.764c.317 0 .574-.257.574-.574v-.578H21.6c-.159 0-.288-.13-.288-.288v-1.152c0-.159.13-.288.288-.288h3.744c.318 0 .576-.258.576-.576 0-.318-.258-.576-.576-.576H21.6c-.159 0-.288-.13-.288-.288v-1.152c0-.159.13-.288.288-.288h5.472v-.578c0-.317-.257-.574-.574-.574h-5.764zM40.896 23.04c1.283 0 2.32 1.048 2.304 2.335-.017 1.266-1.072 2.273-2.338 2.273H38.88c-.159 0-.288-.13-.288-.288v-4.032c0-.159.13-.288.288-.288h2.016zm0 5.76c1.917 0 3.47-1.561 3.456-3.482-.014-1.906-1.594-3.43-3.5-3.43h-2.838c-.317 0-.574.257-.574.574v5.764c0 .317.257.574.574.574h2.882zM35.712 27.648H32.29c-1.266 0-2.321-1.007-2.338-2.273-.017-1.287 1.021-2.335 2.304-2.335H35.712v-.578c0-.317-.257-.574-.574-.574h-2.839c-1.905 0-3.485 1.524-3.499 3.43-.014 1.92 1.539 3.482 3.456 3.482h2.882c.317 0 .574-.257.574-.574v-.578z"/>
        <g transform="translate(0 21.888)">
            <mask id="prefix__f" fill="#fff">
                <use xlink:href="#prefix__e"/>
            </mask>
            <path fill="#000000" d="M5.268 2.12c.182-.18.492-.052.492.205v3.998c0 .323.264.595.587.589.313-.006.565-.262.565-.576V.576C6.912.258 6.654 0 6.336 0H5.76l-2.1 2.1c-.113.113-.295.113-.408 0L1.152 0H.576C.258 0 0 .258 0 .576v5.747c0 .323.264.595.587.589.313-.006.565-.262.565-.576V2.325c0-.257.31-.386.492-.204l.997.998.408.407c.225.225.59.225.814 0l.408-.407.997-.998z" mask="url(#prefix__f)"/>
        </g>
    </g>
</svg>
