<svg xmlns="http://www.w3.org/2000/svg" xmlns:xlink="http://www.w3.org/1999/xlink" width="109" height="120" viewBox="0 0 109 120">
    <g transform="translate(-467 -2102) translate(-294.227 1278.396) rotate(-27 2166.29 -1156.667)">
        <path fill="#8C6DF0" d="M69.38 68.808c-.847.008-1.728.024-2.553.222-.344.083-.924.151-1.058.536l-4.462 12.863c-1.428-4.202-2.911-8.385-4.488-12.534-2.686-7.07-5.641-14.044-9.033-20.81-3.15-6.284-6.68-12.386-10.692-18.169-3.894-5.613-8.177-10.956-12.977-15.834-4.79-4.869-10.08-9.279-15.794-13.042-.712-.468-1.431-.926-2.157-1.374-1.39-.859-3.724-.917-5.106 0C.558 1-.048 1.506.003 2.181c.051.68.49 1.165 1.057 1.515 1.422.878 2.819 1.796 4.187 2.754.67.469 1.333.947 1.99 1.434.313.233.624.468.935.704l.061.048c.18.14.361.281.54.423 2.618 2.065 5.122 4.271 7.51 6.594 4.749 4.62 9.039 9.696 12.905 15.064l.188.261c.048.07.212.3.248.35.245.35.49.7.732 1.051.484.703.962 1.41 1.432 2.122.905 1.369 1.785 2.753 2.64 4.153 1.874 3.066 3.629 6.203 5.283 9.39 3.452 6.652 6.46 13.522 9.185 20.496 2.71 6.94 5.141 13.986 7.463 21.063-3.685-2.968-7.107-6.255-10.215-9.826-.276-.317-1.336-.411-1.659-.453-.904-.115-1.873-.14-2.782-.076-.365.025-3.123.24-2.522.932 5.15 5.919 11.16 11.065 17.813 15.254 1.06.666 2.778.576 3.961.542.685-.019 1.406-.048 2.074-.208.343-.082.924-.151 1.057-.536l8.904-25.666c.222-.64-3.295-.76-3.61-.758"/>
    </g>
</svg>
