<svg xmlns="http://www.w3.org/2000/svg" width="71" height="68" viewBox="0 0 71 68">
    <g fill="none" fill-rule="evenodd">
        <g fill="#8C6DF0">
            <g>
                <g>
                    <path d="M19.721 36.52c-.371-.314-1.055-.3-1.495-.184-3.514.924-6.908 2.277-10.075 4.034-.37.205-.405.53 0 .726.418.204 1.127.233 1.546 0 3.035-1.683 6.264-2.988 9.632-3.873.317-.084.76-.392.392-.703M9.425 21.674l-.463-.14c-.4-.122-.919-.104-1.338-.06-.132.014-.733.114-.351.23l.105.03c-1.778.311-3.549.405-5.34.241-.398-.036-.966-.083-1.338.06-.35.136.207.216.351.23 2.74.25 5.546.142 8.221-.388.152-.03.438-.116.153-.203M18.468 8.174c.138.201.962.131 1.186.131.279 0 .56-.006.838-.038.033-.004.375-.052.347-.093L16.213 1.46c-.138-.201-.962-.131-1.185-.131-.28 0-.562.006-.839.038-.033.004-.375.052-.347.093l4.626 6.714M31.953 9.411c.366.048 1.01.038 1.247-.327.986-1.521 2.087-2.964 3.303-4.299.597-.656 1.224-1.284 1.872-1.887.32-.297.65-.585.978-.872.323-.282.646-.585.818-.99.28-.658-1.707-.834-1.956-.25-.16.378-.438.613-.737.873-.335.29-.664.586-.986.89-.668.627-1.307 1.285-1.925 1.964-1.22 1.345-2.33 2.791-3.323 4.321-.237.366.504.55.709.577M46.277 37.076c-.059-.06-.122-.133-.163-.168-.12-.101-.24-.202-.362-.302-.207-.172-.416-.342-.626-.51-.458-.368-.92-.728-1.39-1.082-.933-.704-1.89-1.379-2.868-2.025-.392-.259-1.08-.22-1.521-.131-.25.05-.796.239-.399.5 1.11.734 2.193 1.504 3.245 2.312.515.396 1.02.802 1.52 1.217.239.199.47.433.729.608.45.305 1.028.328 1.56.272.205-.021.963-.105.777-.45-.073-.134-.273-.205-.502-.241" transform="translate(-676 -2065) translate(-294.227 1278.396) rotate(29 -1024.099 2315.136)"/>
                    <path d="M35.446 42.51l.447 2.004c-2.572.782-5.198 1.375-7.863 1.756-.05.007-.103.012-.158.016-.025-.075-.07-.167-.083-.227-.04-.18-.075-.359-.115-.537-.023-.103-.048-.206-.072-.308 2.535-1.184 5.104-2.293 7.706-3.324l.138.62m-8.296.992c-.08-.274-.163-.547-.248-.82 1.495-.789 3.062-1.445 4.633-2.075 1.067-.428 2.138-.848 3.198-1.295l.397 1.779c-2.617.997-5.203 2.07-7.755 3.22-.073-.27-.147-.54-.225-.809m-1.324-4.005l-.074-.21c2.646-1.386 5.363-2.638 8.14-3.745l.516 2.313.101.453-.147.068-.388.175c-.223.1-.446.197-.67.293-.485.209-.974.41-1.464.609-.998.404-2.003.796-3 1.205-.764.313-1.524.639-2.272.988-.24-.719-.49-1.434-.742-2.149m-4.387-5.28c-1.168-.44-2.269-1.067-3.263-1.815-2.083-1.567-3.761-3.67-4.737-6.077-.968-2.388-1.152-5.131-.315-7.586.813-2.384 2.523-4.265 4.755-5.449 1.087-.576 2.188-.975 3.379-1.281 1.188-.306 2.449-.497 3.763-.591 1.288-.093 2.682-.05 4.015.16 1.288.202 2.58.59 3.762 1.183 2.1 1.05 3.886 2.763 4.872 4.886 1.172 2.526.889 5.407-.073 7.953-.518 1.37-1.216 2.665-1.966 3.922-.378.632-.77 1.255-1.161 1.878-.13.204-.274.411-.412.623-1.643-3.83-2.838-7.833-3.553-11.934-.057-.331-.472-.446-.761-.486-.384-.052-.857-.013-1.171.231-.67.523-1.363 1.126-1.941 1.805-.095-.042-.19-.08-.29-.113-.275-.09-.577-.147-.887-.166-.04-.359-.114-.711-.25-1.033-.604-1.432-3.125-1.797-3.988-.422-.296.472-.337 1.093-.332 1.634.007.814.028 1.628.048 2.442.043 1.649.113 3.298.267 4.94.153 1.639.39 3.27.766 4.873.051.219.105.436.161.654-.24-.073-.477-.152-.688-.231m3.192 1.676l.338.006c.297.002 1.037-.084 1.037-.504 0-.419-.76-.502-1.037-.503-.169-.001-.337-.006-.505-.013l-.045-.001-.015-.001-.067-.006c-.313-1.139-.576-2.29-.759-3.467-.368-2.37-.498-4.765-.564-7.16.395.379 1.455.336 1.798-.005.477-.472.652-1.066.678-1.715.123.092.225.199.307.315-.44.82-.664 1.727-.501 2.718.11.666 1.558.631 1.932.254.618-.623 1.04-1.497.885-2.388-.035-.198-.096-.384-.177-.557.229-.382.51-.741.82-1.079.772 3.73 1.93 7.379 3.461 10.873.145.332.813.433 1.344.344-.024.078-.044.156-.058.236-.063.344.03.689.104 1.024l.112.5c-2.825 1.054-5.592 2.25-8.29 3.59-.28-.818-.55-1.637-.798-2.461m-1.297-13.861c-.143.14-.265.299-.361.47-.022-.609-.073-1.244.051-1.837.019-.089.046-.188.082-.282.281.448.285 1.077.305 1.581-.026.023-.052.044-.077.068m15.598 18.114c-.426-.043-1.003-.09-1.418.06l-.47.171-.435-1.953c.113-.136.065-.253-.076-.338l-.704-3.157-.028-.121c.476-.177.954-.35 1.433-.517l.15-.01c.144-.013.356-.009.477-.09.121-.08.242-.16.363-.242.158-.104-.577-.174-.6-.175-.399-.025-.91-.07-1.295.06-.034.013-.069.025-.103.036h-.001l-.001.001-.595.204c-.081-.429-.096-.855.13-1.266.366-.666.811-1.297 1.213-1.943.81-1.3 1.594-2.621 2.22-4.019 1.215-2.717 1.812-5.799.801-8.673-.85-2.418-2.727-4.366-4.914-5.678-2.61-1.567-5.763-2.141-8.785-2.13-2.897.013-5.848.494-8.535 1.585-2.454.997-4.692 2.653-5.966 4.993-1.33 2.44-1.59 5.375-.886 8.039 1.406 5.307 6.125 9.598 11.553 10.671.265.901.56 1.794.867 2.682.484 1.404.995 2.798 1.448 4.212-.55.3-1.09.62-1.616.964-.36.236.16.389.372.427.389.071 1.062.122 1.419-.112.06-.04.12-.077.181-.116.128.438.248.878.355 1.32l.03.134c-.392.183-.783.367-1.173.554-.19.091.686.206.725.208.179.008.385.02.591.015.09.41.227.804.537 1.046.818.64 2.105.301 3.039.156.954-.148 1.902-.325 2.848-.52 1.833-.38 3.644-.853 5.428-1.417.15-.047.566-.199.513-.435l-.807-3.622c.693-.263 1.39-.52 2.087-.773.39-.14-.269-.221-.372-.231" transform="translate(-676 -2065) translate(-294.227 1278.396) rotate(29 -1024.099 2315.136)"/>
                    <path d="M52.382 20.658c-.19-.388-.847-.397-1.21-.363l-9.975.922c-.299.028-.87.267-.687.64.19.387.848.396 1.21.362l9.975-.922c.3-.028.87-.267.687-.64" transform="translate(-676 -2065) translate(-294.227 1278.396) rotate(29 -1024.099 2315.136)"/>
                </g>
            </g>
        </g>
    </g>
</svg>
