<svg xmlns="http://www.w3.org/2000/svg" xmlns:xlink="http://www.w3.org/1999/xlink" width="208" height="49" viewBox="0 0 208 49">
    <defs>
        <path id="gbyjja44oa" d="M0 0L14.675 0 14.675 16.488 0 16.488z"/>
        <path id="92n9jo5htc" d="M21.887 0l-.244.002C18.59.068 15.41.64 12.095 1.728c-1.728.568-3.52 1.242-5.391 2.025-1.87.784-3.53 1.723-4.97 2.824-.706.52-1.21 1.072-1.501 1.65-.291.578-.312 1.26-.047 2.042l10.867 31.867c.622 1.82 2.13 2.774 4.518 2.858.944.026 1.918-.03 2.931-.167 1.003-.139 2.003-.31 2.992-.514.987-.203 1.922-.44 2.815-.709.889-.265 1.715-.523 2.465-.77 3.27-1.073 6.093-2.483 8.472-4.228 2.377-1.745 4.223-3.786 5.542-6.123 1.312-2.336 2.041-4.983 2.189-7.95.143-2.963-.379-6.202-1.579-9.716-1.166-3.425-2.732-6.24-4.685-8.444-1.96-2.199-4.191-3.828-6.718-4.88C27.665.517 25.102.022 22.317 0h-.43zM9.78 10.517c.722-.334 1.487-.669 2.28-1 .793-.335 1.702-.668 2.719-1.002 1.896-.622 3.749-.931 5.546-.917 1.795.015 3.47.38 5.017 1.1 1.55.72 2.95 1.83 4.193 3.324 1.247 1.497 2.273 3.414 3.07 5.754 1.569 4.596 1.625 8.437.164 11.52-1.454 3.08-4.234 5.295-8.343 6.644-.927.304-1.883.58-2.85.826-.973.247-1.869.408-2.68.48l-9.116-26.73z"/>
        <linearGradient id="r951bnwm4d" x1="-.001%" x2="100.001%" y1="49.999%" y2="49.999%">
            <stop offset="0%" stop-color="#01D6B6"/>
            <stop offset="100%" stop-color="#01D6B6"/>
        </linearGradient>
    </defs>
    <g fill="none" fill-rule="evenodd">
        <g>
            <g>
                <g>
                    <g>
                        <path fill="#FFF" d="M13.219 26.381c.508-1.567 1.04-3.173 1.595-4.812.557-1.639 1.1-3.255 1.637-4.85.53-1.592 1.046-3.122 1.529-4.6.49-1.473.943-2.801 1.359-3.989h.345l5.64 18.251H13.218zm19.65-3.708c-1.142-3.611-2.263-7.117-3.375-10.515C28.38 8.76 27.36 5.752 26.43 3.137c-.368-1.093-1.23-1.89-2.568-2.389C22.51.248 21.03 0 19.407 0c-1.203 0-2.399.168-3.581.497-1.181.335-2.078.67-2.676 1-.516 1.38-1.127 3.03-1.848 4.954-.718 1.926-1.459 3.994-2.22 6.206-.769 2.21-1.57 4.49-2.405 6.845-.835 2.352-1.61 4.633-2.33 6.843-.72 2.212-1.393 4.256-2.017 6.133-.625 1.879-1.121 3.485-1.494 4.814-.23.714-.428 1.344-.59 1.892C.081 39.73 0 40.286 0 40.857c0 1.188.442 2.104 1.324 2.743.876.646 2.106.965 3.69.965.787 0 1.446-.072 1.975-.215.537-.142 1.032-.31 1.502-.498.366-1.236.841-2.802 1.419-4.708.585-1.9 1.129-3.729 1.638-5.49H27.13l2.085 7.131c.373 1.285.89 2.223 1.562 2.815.672.596 1.821.893 3.444.893 1.114 0 2.078-.179 2.886-.533.815-.36 1.453-.797 1.916-1.319-.836-2.758-1.786-5.87-2.852-9.343-1.068-3.47-2.167-7.01-3.302-10.625zM88.382 32.102l-1.568-.394c-.659-.152-1.125-.348-1.389-.59-.269-.24-.4-.545-.4-.918 0-.502.233-.89.703-1.163.468-.272 1.118-.41 1.952-.41.4 0 .815.037 1.229.115.416.076.81.17 1.184.278.372.11.712.229 1.024.36.306.131.558.263.75.394.234-.173.436-.41.609-.704.167-.295.256-.64.256-1.032 0-.417-.134-.78-.401-1.098-.267-.316-.639-.59-1.12-.82-.477-.231-1.043-.404-1.693-.524-.652-.12-1.361-.181-2.126-.181-2.006 0-3.563.443-4.668 1.328-1.112.886-1.664 2.037-1.664 3.457 0 1.247.377 2.24 1.135 2.983.757.742 1.925 1.302 3.502 1.673l1.79.425c1.279.283 1.92.875 1.92 1.772 0 .522-.225.933-.673 1.228-.449.295-1.108.443-1.983.443-1.023 0-1.923-.154-2.703-.46-.778-.305-1.465-.655-2.061-1.047-.3.196-.537.447-.719.753-.18.305-.271.667-.271 1.082 0 .436.143.835.43 1.195.289.362.693.666 1.215.92.522.25 1.14.441 1.855.57.713.132 1.508.199 2.382.199 2.13 0 3.751-.433 4.86-1.295 1.108-.862 1.663-2.06 1.663-3.588 0-1.29-.395-2.334-1.182-3.131-.79-.798-2.067-1.405-3.838-1.82M109.278 25.971c-.375-.26-.838-.392-1.393-.392-.317 0-.644.038-.975.114-.33.076-.623.193-.88.345-.445 1.989-.969 4.003-1.563 6.047-.602 2.045-1.207 4.028-1.825 5.949h-.128c-.084-.284-.197-.638-.337-1.066-.137-.425-.282-.872-.43-1.342-.15-.47-.303-.95-.463-1.443-.163-.491-.306-.954-.434-1.393l-1.599-5.408c-.19-.678-.462-1.148-.815-1.41-.35-.262-.802-.393-1.357-.393-.43 0-.838.093-1.231.278-.396.187-.699.411-.912.672.173.678.386 1.443.655 2.296.266.852.554 1.738.862 2.655.31.918.635 1.839.978 2.77.34.927.67 1.808.99 2.638.321.83.618 1.572.895 2.229.279.655.513 1.169.704 1.54.193.373.505.64.941.803.438.166.968.248 1.584.248.513 0 .98-.056 1.41-.166.423-.108.746-.25.958-.426.297-.568.627-1.266.99-2.098.361-.83.723-1.71 1.087-2.638.36-.93.713-1.875 1.055-2.837.343-.959.646-1.855.912-2.687.267-.83.48-1.561.638-2.195.16-.634.242-1.095.242-1.378 0-.61-.188-1.05-.56-1.312M121.315 38.166c-.234.175-.605.323-1.117.441-.513.122-1.077.181-1.696.181-1.025 0-1.764-.173-2.222-.523-.46-.35-.69-.842-.69-1.476s.227-1.098.673-1.393c.45-.295 1.1-.485 1.952-.573l3.1-.295v3.638zm2.063-11.342c-1.247-.917-2.915-1.376-5.004-1.376-.81 0-1.608.067-2.399.196-.789.132-1.493.328-2.111.59-.446.22-.77.467-.973.739-.202.272-.303.628-.303 1.064 0 .35.078.674.236.969.164.293.36.527.594.702.619-.306 1.32-.561 2.112-.769.787-.21 1.598-.312 2.428-.312 1.066 0 1.892.196 2.48.59.584.394.877 1.005.877 1.837v.588l-4.38.459c-1.728.177-3.043.653-3.947 1.426-.91.776-1.361 1.898-1.361 3.361 0 1.683.614 2.943 1.838 3.786 1.227.84 2.904 1.26 5.037 1.26 1.17 0 2.217-.108 3.135-.327.915-.217 1.67-.512 2.27-.885.381-.24.702-.512.959-.818.256-.307.384-.722.384-1.247v-7.573c0-1.92-.624-3.342-1.872-4.26zM141.477 26.94c-1.205-.996-2.904-1.493-5.098-1.493-1.237 0-2.368.149-3.39.442-1.022.297-1.843.662-2.461 1.098-.448.309-.778.625-.992.952-.213.327-.32.754-.32 1.28v10.52c0 .723.181 1.226.543 1.508.362.283.917.426 1.664.426.403 0 .765-.032 1.086-.099.32-.065.576-.12.769-.162V29.546c.38-.24.833-.438 1.357-.59.524-.153 1.094-.23 1.712-.23.893 0 1.603.218 2.126.654.522.44.782 1.129.782 2.067v8.292c0 .723.176 1.226.527 1.508.353.283.912.426 1.68.426.385 0 .74-.032 1.07-.099.332-.065.581-.12.754-.162V31.316c0-1.925-.603-3.383-1.809-4.376M155.114 29.48c.427 0 .769-.131 1.023-.394.257-.263.385-.676.385-1.245 0-.327-.043-.634-.128-.92-.084-.283-.18-.511-.286-.687h-4.7v-2.722c0-.72-.178-1.222-.53-1.507-.352-.284-.902-.425-1.646-.425-.384 0-.741.033-1.072.1-.33.064-.58.12-.75.161V36.89c0 1.79.485 3.074 1.456 3.852.967.773 2.295 1.161 3.977 1.161 1.282 0 2.208-.21 2.784-.64.577-.426.865-.964.865-1.621 0-.327-.061-.617-.178-.868-.117-.251-.26-.464-.431-.64-.297.132-.635.24-1.006.328-.375.087-.743.131-1.105.131-.747 0-1.328-.152-1.744-.459-.414-.306-.62-.807-.62-1.51V29.48h3.706zM168.54 38.166c-.233.175-.604.323-1.117.441-.512.122-1.077.181-1.695.181-1.025 0-1.764-.173-2.223-.523-.458-.35-.689-.842-.689-1.476s.227-1.098.672-1.393c.45-.295 1.1-.485 1.952-.573l3.1-.295v3.638zm2.066-11.342c-1.25-.917-2.917-1.376-5.006-1.376-.81 0-1.608.067-2.397.196-.791.132-1.493.328-2.112.59-.447.22-.772.467-.974.739-.203.272-.303.628-.303 1.064 0 .35.078.674.238.969.161.293.358.527.592.702.618-.306 1.32-.561 2.111-.769.787-.21 1.599-.312 2.429-.312 1.066 0 1.892.196 2.479.59.584.394.878 1.005.878 1.837v.588l-4.38.459c-1.727.177-3.042.653-3.948 1.426-.908.776-1.361 1.898-1.361 3.361 0 1.683.615 2.943 1.838 3.786 1.228.84 2.904 1.26 5.038 1.26 1.171 0 2.217-.108 3.134-.327.916-.217 1.671-.512 2.271-.885.38-.24.702-.512.958-.818.256-.307.384-.722.384-1.247v-7.573c0-1.92-.623-3.342-1.87-4.26zM186.13 36.79c-.32.24-.7.447-1.136.623-.438.173-.965.262-1.584.262-.508 0-.99-.078-1.435-.23-.45-.152-.837-.404-1.17-.754-.33-.35-.586-.809-.767-1.376-.18-.57-.27-1.266-.27-2.098 0-1.53.354-2.661 1.069-3.394.717-.73 1.658-1.096 2.83-1.096.555 0 1.03.064 1.424.196.393.131.739.283 1.04.457v7.41zm2.686-9.933c-.556-.373-1.296-.698-2.223-.984-.927-.283-1.946-.424-3.054-.424-1.17 0-2.236.162-3.198.491-.958.327-1.782.819-2.477 1.475-.692.655-1.225 1.47-1.597 2.44-.377.975-.56 2.094-.56 3.362 0 1.397.183 2.583.56 3.556.372.973.877 1.765 1.517 2.376.64.613 1.385 1.054 2.238 1.328.852.274 1.758.41 2.718.41.747 0 1.402-.077 1.966-.23.567-.153 1.063-.338 1.488-.557v1.409c0 1.114-.364 1.923-1.088 2.425-.724.503-1.725.756-3.003.756-.897 0-1.74-.132-2.527-.394-.79-.263-1.461-.568-2.015-.92-.237.156-.436.385-.607.69-.172.306-.258.668-.258 1.083 0 .763.353 1.376 1.057 1.835.406.262 1.017.498 1.84.704.817.207 1.78.312 2.89.312 1.069 0 2.058-.12 2.975-.36.916-.242 1.716-.618 2.4-1.132.68-.514 1.22-1.175 1.613-1.984.394-.807.59-1.768.59-2.884V28.988c0-.501-.109-.918-.334-1.245-.224-.328-.527-.625-.911-.886z" transform="translate(-535 -169) translate(-89.514 -548.085) translate(624.514 717.085) translate(0 1)"/>
                        <g transform="translate(-535 -169) translate(-89.514 -548.085) translate(624.514 717.085) translate(0 1) translate(193.325 25.448)">
                            <mask id="bc4e4vbjob" fill="#fff">
                                <use xlink:href="#gbyjja44oa"/>
                            </mask>
                            <path fill="#FFF" d="M3.771 7.21c.084-1.31.481-2.32 1.185-3.032.702-.71 1.576-1.064 2.618-1.064 1.047 0 1.836.299 2.367.902.535.6.843 1.306.929 2.115L3.77 7.211zm10.44.985c.31-.307.465-.766.465-1.377 0-.984-.178-1.897-.529-2.737-.353-.841-.836-1.56-1.454-2.164-.618-.602-1.365-1.07-2.24-1.409C9.58.17 8.622 0 7.574 0c-1.018 0-1.99.164-2.905.491-.92.33-1.723.832-2.414 1.508-.692.677-1.242 1.519-1.649 2.524C.2 5.528 0 6.708 0 8.063c0 1.4.206 2.622.62 3.672.416 1.05.994 1.929 1.727 2.639.737.71 1.621 1.24 2.655 1.59 1.033.35 2.178.524 3.437.524.788 0 1.525-.066 2.208-.198.681-.13 1.272-.316 1.773-.555.5-.242.897-.532 1.185-.87.288-.34.43-.726.43-1.163 0-.35-.096-.678-.287-.985-.193-.304-.437-.546-.737-.72-.468.306-1.08.597-1.839.869-.755.272-1.58.41-2.477.41-1.195 0-2.194-.252-3.006-.755-.81-.502-1.364-1.311-1.662-2.425l8.89-1.311c.554-.088.985-.284 1.293-.59z" mask="url(#bc4e4vbjob)"/>
                        </g>
                    </g>
                    <g transform="translate(-535 -169) translate(-89.514 -548.085) translate(624.514 717.085) translate(35)">
                        <mask id="t3hyf5is7e" fill="#fff">
                            <use xlink:href="#92n9jo5htc"/>
                        </mask>
                        <path fill="url(#r951bnwm4d)" d="M21.887 0l-.244.002C18.59.068 15.41.64 12.095 1.728c-1.728.568-3.52 1.242-5.391 2.025-1.87.784-3.53 1.723-4.97 2.824-.706.52-1.21 1.072-1.501 1.65-.291.578-.312 1.26-.047 2.042l10.867 31.867c.622 1.82 2.13 2.774 4.518 2.858.944.026 1.918-.03 2.931-.167 1.003-.139 2.003-.31 2.992-.514.987-.203 1.922-.44 2.815-.709.889-.265 1.715-.523 2.465-.77 3.27-1.073 6.093-2.483 8.472-4.228 2.377-1.745 4.223-3.786 5.542-6.123 1.312-2.336 2.041-4.983 2.189-7.95.143-2.963-.379-6.202-1.579-9.716-1.166-3.425-2.732-6.24-4.685-8.444-1.96-2.199-4.191-3.828-6.718-4.88C27.665.517 25.102.022 22.317 0h-.43zM9.78 10.517c.722-.334 1.487-.669 2.28-1 .793-.335 1.702-.668 2.719-1.002 1.896-.622 3.749-.931 5.546-.917 1.795.015 3.47.38 5.017 1.1 1.55.72 2.95 1.83 4.193 3.324 1.247 1.497 2.273 3.414 3.07 5.754 1.569 4.596 1.625 8.437.164 11.52-1.454 3.08-4.234 5.295-8.343 6.644-.927.304-1.883.58-2.85.826-.973.247-1.869.408-2.68.48l-9.116-26.73z" mask="url(#t3hyf5is7e)"/>
                    </g>
                </g>
            </g>
        </g>
    </g>
</svg>
