<svg xmlns="http://www.w3.org/2000/svg" width="60" height="32" viewBox="0 0 60 32">
    <g fill="none" fill-rule="evenodd">
        <g fill="#8C6DF0">
            <g>
                <g>
                    <path d="M26.35 1.216l27.053 11.371-.199-.416-21.898 16.516c-.512.386 1.273.656 1.379.664.738.057 1.798.099 2.428-.377l21.899-16.516c.207-.156-.085-.368-.2-.416L29.76.671c-.817-.344-1.84-.337-2.701-.194-.287.048-1.506.403-.709.739" transform="translate(-979 -3039) translate(38 2747) rotate(-1 17293.11 -53809.703)"/>
                    <path d="M.73 7.651c5.922 2.015 11.856 3.603 17.797 4.78 5.902 1.17 11.81 1.919 17.72 2.247 3.322.185 6.645.235 9.967.155.24-.006.862-.18.874-1.416.012-1.208-.673-1.42-.874-1.416-5.872.142-11.745-.127-17.614-.814-5.832-.683-11.656-1.773-17.474-3.285C7.812 7.04 4.502 6.045 1.194 4.92.896 4.819.287 4.755.118 5.91-.05 7.06.535 7.585.73 7.65" transform="translate(-979 -3039) translate(38 2747) rotate(-1 17293.11 -53809.703)"/>
                </g>
            </g>
        </g>
    </g>
</svg>
