<svg xmlns="http://www.w3.org/2000/svg" xmlns:xlink="http://www.w3.org/1999/xlink" width="92" height="36" viewBox="0 0 92 36">
    <defs>
        <path id="mlytbi11wa" d="M0 0L16.809 0 16.809 32.855 0 32.855z"/>
    </defs>
    <g fill="none" fill-rule="evenodd">
        <g>
            <g>
                <g>
                    <path fill="#8C6DF0" d="M4.02 32.815c.065-10.009.218-20.017.464-30.022.027-1.092-3.978-1.144-4.006 0C.212 13.58.053 24.369 0 35.158c-.003.499.918.667 1.231.72.673.111 1.554.135 2.189-.163.9-.423 1.608-1.104 1.58-2.17-.01-.36-.423-.602-.98-.73M25.33 3.988c.902 7.566 1.413 15.174 1.537 22.79-4.159-7.128-7.62-14.645-11.059-22.137-.106-.23-.376-.36-.693-.431l-.012-.215c-.049-.855-1.402-1.04-2.051-1.04-.556 0-2.099.193-2.05 1.04l1.696 29.92c.033.59.788.851 1.26.952.733.156 1.56.114 2.241-.215 1.014-.49 1.594-1.529 1.103-2.597-.108-.235-.34-.413-.638-.537-.35-6.154-.698-12.308-1.047-18.463 2.303 4.841 4.718 9.628 7.436 14.256 1.233 2.1 2.53 4.162 3.899 6.178.37.545 4.018.63 4.028-.138.13-9.81-.387-19.62-1.548-29.363-.103-.862-4.178-.637-4.102 0M51.727 16.314c-.531 2.437-2.23 4.411-4.504 5.435-.514.23-1.037.397-1.582.52-.183-.025-.368-.048-.544-.093-.957-.241-1.868-.64-2.71-1.15-.612-5.063-1.275-10.12-1.993-15.17.111-.008.221-.018.331-.03.18-.022.465-.02.595-.161.775-.837 1.759-1.439 2.854-1.77.151-.045.333-.066.505-.097.327.106.654.241.76.282 2.235.856 3.962 2.678 5.059 4.758 1.184 2.247 1.777 4.967 1.23 7.476M43.972 3.665l-.026.006.026-.006m.07-.007c-.015 0-.03 0-.042.002l.042-.002m.07.002l-.044-.002c.014 0 .028 0 .043.002m.91.046c-.03.043-.1.057-.187.057.054-.015.107-.031.155-.052.051-.023.042-.019.033-.005m2.837-.173c-2.102-.416-4.462-.414-6.567-.018-.408.076-.804.181-1.188.315l-.04-.282c-.134-.92-4.158-.652-4.063 0 .796 5.48 1.528 10.97 2.199 16.467-.263.008-.528.027-.77.094-.103.029-.367.045-.204.175.353.28.72.533 1.098.761.534 4.429 1.03 8.862 1.482 13.3.084.826 4.033.798 4.063 0l.111-2.958c.006-.162-.174-.292-.461-.39-.299-2.806-.614-5.61-.946-8.413 1.804.313 3.688.298 5.512.086 2.919-.34 5.721-1.858 7.07-4.544 1.474-2.932.861-6.583-.643-9.379-1.385-2.575-3.724-4.634-6.653-5.214" transform="translate(-166 -2133) translate(-294.227 1278.396) translate(460.227 854.65)"/>
                    <path fill="#DE3A68" d="M68.016 29.96l.014-.01c-.033-.016-.06-.018-.06.011l.026.009.02-.01" transform="translate(-166 -2133) translate(-294.227 1278.396) translate(460.227 854.65)"/>
                    <path fill="#8C6DF0" d="M70.726 3.784c-.478-1.327-4.468-1.012-3.893.584 1.303 3.618 2.212 7.351 2.699 11.157.238 1.868.378 3.748.418 5.63.034 1.623.085 3.31-.215 4.914-.117.628-.327 1.248-.646 1.807-.114.199-.229.366-.368.512-.106.111-.224.225-.352.315.095-.071.07-.062-.07.027.09.042.223.177-.006.032l-.028-.014-.012.006-.012-.003-.002-.011c-.036-.01-.061-.009-.025.003-.3-.082-.59-.248-.838-.424-.434-.307-.912-.84-1.234-1.335-.794-1.22-1.258-2.62-1.634-4.009-.49-1.81-.902-3.645-1.294-5.478-.943-4.418-1.664-8.879-2.172-13.364-.098-.864-1.292-1.098-2.019-1.098-.559 0-2.115.246-2.019 1.098.494 4.358 1.189 8.693 2.094 12.988.447 2.125.93 4.248 1.492 6.348.419 1.562.946 3.149 1.92 4.475 1.17 1.593 2.869 2.713 4.897 2.958 2.154.26 4.338-.445 5.492-2.301.818-1.319 1.016-2.99 1.069-4.5.073-2.086.02-4.176-.154-6.256-.4-4.79-1.454-9.527-3.088-14.06" transform="translate(-166 -2133) translate(-294.227 1278.396) translate(460.227 854.65)"/>
                    <g transform="translate(-166 -2133) translate(-294.227 1278.396) translate(460.227 854.65) translate(75.121)">
                        <mask id="ieh7n7bhcb" fill="#fff">
                            <use xlink:href="#mlytbi11wa"/>
                        </mask>
                        <path fill="#8C6DF0" d="M15.28 5.734c-1.586-.158-3.177-.254-4.77-.292l-.035-.72c-.051-1.052-.314-2.322.19-3.298C11.45-.093 7.338-.553 6.635.81c-.55 1.062-.422 2.241-.366 3.384l.064 1.291c-1.606.07-3.209.202-4.804.4-.41.05-1.86.272-1.46.956.376.641 1.971.617 2.571.543 1.26-.156 2.516-.266 3.77-.331l.054 1.108.384 7.802.775 15.736c.044.893 1.356 1.157 2.09 1.157.652 0 2.134-.267 2.09-1.157l-.761-15.472-.378-7.67-.076-1.553c1.191.035 2.384.111 3.58.23.668.067 2.166.126 2.572-.543.41-.676-1.103-.92-1.46-.956" mask="url(#ieh7n7bhcb)"/>
                    </g>
                </g>
            </g>
        </g>
    </g>
</svg>
