<svg xmlns="http://www.w3.org/2000/svg" width="116" height="90" viewBox="0 0 116 90">
    <g fill="none" fill-rule="evenodd">
        <g fill="#8C6DF0">
            <g>
                <g>
                    <path d="M8.78 22.1C5.06 28.725 2.132 35.76.053 43.07c-.273.962.57 1.617 1.47 1.807 9.29 1.963 18.373 4.831 27.076 8.634 1.368.598 3.17.703 4.526 0 1.092-.565 1.242-1.72 0-2.262-9.128-3.99-18.625-7.075-28.37-9.134l1.47 1.806c2.079-7.31 5.007-14.345 8.729-20.97 1.13-2.013-5.106-2.749-6.172-.85" transform="translate(-694 -3011) translate(38 2747) rotate(22 -340.573 1873.47)"/>
                    <path d="M97.224.747C85.31 1.947 74.534 7.554 63.95 12.66c-11.032 5.322-21.968 10.838-32.836 16.476-6.152 3.191-12.282 6.423-18.397 9.68-1.29.687.526 1.549 1.147 1.694 1.42.33 3.082.246 4.378-.444 10.518-5.603 21.08-11.128 31.72-16.506 10.394-5.255 20.824-10.567 31.505-15.242 5.57-2.439 11.353-4.569 17.458-5.184.642-.064 2.842-.449 2.235-1.522-.586-1.035-3-.959-3.936-.865" transform="translate(-694 -3011) translate(38 2747) rotate(22 -340.573 1873.47)"/>
                </g>
            </g>
        </g>
    </g>
</svg>
