<svg xmlns="http://www.w3.org/2000/svg" xmlns:xlink="http://www.w3.org/1999/xlink" width="151" height="49" viewBox="0 0 151 49">
    <defs>
        <path id="mkkp8r55la" d="M0.022 0.068L23.952 0.068 23.952 42 0.022 42z"/>
    </defs>
    <g fill="none" fill-rule="evenodd">
        <g>
            <g>
                <g>
                    <path fill="#8C6DF0" d="M49.282 1.89c.806.014 1.618-.035 2.397-.175l1.683-.302c.444-.073.885-.151 1.322-.237 1.017-.2-.73-.455-.902-.469C52.646.613 51.46.63 50.342.83l-.797.143c-.682.113-1.37.2-2.063.253-.22.017-.376.026-.527.032-.086.004-.628.02-.321.014-.59.011-.65.014-1.31-.026-1.801-.108-3.865-.52-5.681-1.04-1.034-.296-2.369-.211-3.44-.123-.31.026-1.842.2-.902.469 4.407 1.262 9.264 1.67 13.981 1.338zM40.421 40.408c.03.014.05.032.052.053 0-.006-.02-.025-.052-.053M16.568 10.895c.174-1.754.364-3.506.565-5.256 1.358-.354 2.68-.599 4.013-.748l.09-.01.061-.001c.206-.003.412-.01.618-.008.069 0 .412.019.421.016l.146.012c.147.014.293.033.44.052-.166-.02.299.052.36.066.159.035.317.075.474.12-.064-.012.445.165.502.19.445.188 1.012.522 1.449 1.01.54.603.899 1.35 1.015 2.146.302 2.068-.663 4.046-1.68 5.784-1.88 3.216-4.385 6.052-7.35 8.328-.707.542-1.437 1.049-2.184 1.522.27-4.414.622-8.823 1.06-13.223m38.115 27.607c-.917-.56-2.411-.48-3.418-.297L40.907 40.08c-.244.044-.489.087-.733.132-.167-.129-.346-.265-.378-.3-.246-.269-.46-.569-.651-.877-.74-1.19-1.046-2.57-1.196-3.946-.34-3.127-.139-6.36-.047-9.497.06-2.035.154-4.07.275-6.101.164-.008.31-.02.425-.031 3.862-.404 7.895-.51 11.674-.277.805.05 2.576.179 3.073-.662.483-.82-1.323-1.14-1.745-1.167-4.438-.273-8.878-.229-13.304.177.052-.755.107-1.51.167-2.265.308-3.842.728-7.673 1.25-11.492.14-1.016-4.814-1.323-4.995 0-1.018 7.437-1.635 14.924-1.832 22.426-.048 1.825-.072 3.65-.07 5.475 0 .977.007 1.959.087 2.934-.569.087-1.103.285-1.421.692-.543.695-1.228 1.256-2.041 1.612-.465.204-.591.229-1.038.338-.088.022-.14.036-.168.045-.024 0-.072.002-.158.009-.107.009-.496.025-.424.029h-.263c-.206-.026-.538-.053-.661-.074-.37-.06-.932-.196-1.365-.33-1.12-.342-2.2-.837-3.251-1.344-2.398-1.156-4.729-2.454-6.991-3.86.055-1.394.118-2.786.19-4.179 5.906-2.597 11.04-6.913 14.363-12.437 1.148-1.907 2.328-4.21 2.054-6.5-.237-1.974-1.507-3.466-3.236-4.374-3.337-1.75-7.382-1.636-11.085-.96l.142-1.17c.17-1.358-4.798-1.587-4.995 0-.103.823-.201 1.646-.298 2.47C7.95 5.967 3.882 8.086.313 10.86c-.86.668.257 1.231.896 1.388.969.237 2.568.296 3.417-.364 2.253-1.75 4.703-3.245 7.306-4.414-.698 6.392-1.222 12.803-1.568 19.223-1.27.48-2.567.867-3.883 1.15-.608.13-1.802.732-.896 1.387 1.475 1.068 2.983 2.091 4.522 3.066l-.031.803c-.104 2.945-.17 5.892-.201 8.84-.01.929 1.88 1.071 2.497 1.06.66-.013 2.43-.106 2.498-1.06l.161-2.285c.01-.146-.035-.278-.121-.396.024-1.357.056-2.713.097-4.07 1.748.97 3.537 1.886 5.379 2.64 3.894 1.593 9.339 2.354 13.248.247.316.835.752 1.627 1.345 2.276 1.45 1.59 3.771 1.793 5.807 1.593 2.21-.217 4.42-.755 6.603-1.15l6.398-1.159c.504-.09 1.812-.575.896-1.134M84.685 40.508l-1.477-13.134-.895-7.967c-.287-2.546-.63-5.094-.742-7.655-.11-2.562.063-5.133.884-7.572.059-.162.115-.326.174-.489.181-.499-4.52-1.267-4.997 0-.059.156-.114.313-.167.47-2.976 8.281-5.386 16.753-7.218 25.35-2.948-6.857-4.947-14.11-6.702-21.35-.052-.216-.252-.376-.541-.49-.003-1.104-.006-2.206-.007-3.31 0-.402-4.997-.414-4.997 0 .002 11.794.163 23.587.484 35.375.011.444 5.007.374 4.997 0-.142-5.205-.25-10.41-.33-15.616 1.575 4.421 3.445 8.732 5.777 12.841.146.256.94.378 1.149.412.525.088 1.062.102 1.593.082.48-.018 2.052-.019 2.167-.677.958-5.52 2.156-10.996 3.586-16.413.52 4.635 1.042 9.27 1.563 13.904l1.016 9.04c.08.717 2.018.695 2.499.69.364-.005 2.538-.005 2.498-.69l-.143-2.508c-.006-.11-.07-.207-.171-.293M94.508 40.337c-.666-9.67-.806-19.375-.404-29.06.123-2.969.299-5.935.52-8.898.029-.376-4.832-.62-4.878 0-.782 10.421-.953 20.887-.495 31.328.13 2.969.313 5.934.542 8.896.038.49 4.789.568 4.88 0l.326-2.044c.016-.101-.191-.172-.491-.222M118.072 3.432c-.443 10.838-.881 21.675-1.329 32.513-2.798-7.038-5.218-14.23-7.235-21.542-.349-1.263-.683-2.53-1.008-3.8.124-1.158.252-2.316.39-3.472.062-.516-.616-.868-1.487-1.019l-.035-.147c-.115-.494-2.105-.391-2.464-.389-.193.002-2.542.053-2.464.389.36 1.548.739 3.092 1.133 4.632-1.005 9.422-1.515 18.893-1.529 28.37-.03.074-.045.156-.044.245l.066 3.735c.017.934 1.848 1.064 2.464 1.052.571-.01 2.477-.108 2.464-1.052-.085-6.385.059-12.77.424-19.143 1.245 3.803 2.597 7.57 4.059 11.294 1.06 2.698 2.177 5.372 3.346 8.022.206.467 1.788.374 2.136.382.524.01 1.05.004 1.571-.046.282-.027.939-.011 1.133-.233.03-.033.056-.069.084-.103h.003v-.002c1.355-1.617 1.72-3.65 1.852-5.728.169-2.656.227-5.324.336-7.984l.678-16.586.384-9.388c.02-.504-4.901-.644-4.928 0" transform="translate(-819 -3022) translate(38 2747) translate(781 275.102)"/>
                    <g transform="translate(-819 -3022) translate(38 2747) translate(781 275.102) translate(127 6)">
                        <mask id="c18ope9a3b" fill="#fff">
                            <use xlink:href="#mkkp8r55la"/>
                        </mask>
                        <path fill="#8C6DF0" d="M13.296 34.106c-1.28 1.212-2.76 2.187-4.454 2.65-.88.241-1.413.296-2.366.249.096.003-.032-.008-.164-.02-.06-11.448.232-22.896.874-34.326l.059.01c-.01.006.56.154.51.14.168.048.337.1.504.158.4.137.808.322 1.21.522 1.47.73 2.779 1.728 3.953 2.872 2.336 2.276 4.046 5.256 4.925 8.397 1.84 6.574-.044 14.603-5.051 19.348M18.15 5.529C14.541 1.782 9.43-.461 4.197.176 3.64.244 2.417.612 2.365 1.31c-.064.122-.105.26-.114.414-.666 11.507-.975 23.034-.93 34.56-.212.059-.418.137-.615.24-.819.423-1 1.37 0 1.761.208.081.417.157.628.23.005.696.011 1.392.02 2.089.021 1.858 4.984 1.865 4.987 0l.001-1.129c2.982.13 5.989-.518 8.569-2.085 3.465-2.103 5.995-5.489 7.482-9.232 3.076-7.743 1.567-16.6-4.242-22.63" mask="url(#c18ope9a3b)"/>
                    </g>
                </g>
            </g>
        </g>
    </g>
</svg>
