<svg xmlns="http://www.w3.org/2000/svg" width="8" height="8" viewBox="0 0 8 8">
    <g fill="none" fill-rule="evenodd">
        <g fill="#8AB2E4">
            <g>
                <g>
                    <g>
                        <path d="M4.95 4l2.852-2.852c.263-.263.263-.689 0-.951-.262-.263-.688-.263-.95 0L4 3.049 1.148.197C.885-.066.459-.066.197.197c-.263.262-.263.688 0 .95L3.049 4 .197 6.852c-.263.262-.263.688 0 .95.262.263.688.263.95 0L4 4.95l2.852 2.852c.262.263.688.263.95 0 .263-.262.263-.688 0-.95L4.95 4z" transform="translate(-142 -178) translate(59 142) translate(9 29) translate(74 7)"/>
                    </g>
                </g>
            </g>
        </g>
    </g>
</svg>
