<?xml version="1.0" encoding="UTF-8"?>
<svg width="20px" height="21px" viewBox="0 0 20 21" version="1.1" xmlns="http://www.w3.org/2000/svg" xmlns:xlink="http://www.w3.org/1999/xlink">
    <title>4992E6E1-C0BA-4071-B004-B9120F3DC774</title>
    <g id="other-page" stroke="none" stroke-width="1" fill="none" fill-rule="evenodd">
        <g id="download-laptop" transform="translate(-632.000000, -614.000000)" fill="#F2800B" fill-rule="nonzero">
            <g id="icon/download" transform="translate(632.000000, 614.000000)">
                <path d="M10,16.0078125 C10.1822917,16.0078125 10.3385417,15.9427083 10.46875,15.8125 L13.515625,12.765625 C13.6588542,12.6354167 13.7304688,12.4791667 13.7304688,12.296875 C13.7304688,12.1145833 13.6621094,11.9550781 13.5253906,11.8183594 C13.3886719,11.6816406 13.2291667,11.6132812 13.046875,11.6132812 C12.8645833,11.6132812 12.7083333,11.6848958 12.578125,11.828125 L10.6835938,13.703125 L10.6835938,2.43359375 C10.6835938,2.23828125 10.6152344,2.07552083 10.4785156,1.9453125 C10.3417969,1.81510417 10.1822917,1.75 10,1.75 C9.81770833,1.75 9.66145833,1.81510417 9.53125,1.9453125 C9.40104167,2.07552083 9.3359375,2.23828125 9.3359375,2.43359375 L9.3359375,13.703125 L7.44140625,11.8085938 C7.29817708,11.6783854 7.13541667,11.6132812 6.953125,11.6132812 C6.77083333,11.6132812 6.61458333,11.6816406 6.484375,11.8183594 C6.35416667,11.9550781 6.2890625,12.1145833 6.2890625,12.296875 C6.2890625,12.4791667 6.35416667,12.6354167 6.484375,12.765625 L9.53125,15.8125 C9.66145833,15.9427083 9.81770833,16.0078125 10,16.0078125 Z M17.5195312,19.25 C17.8580729,19.25 18.1445312,19.1295573 18.3789062,18.8886719 C18.6132812,18.6477865 18.7304688,18.3645833 18.7304688,18.0390625 L18.7304688,13.6835938 C18.7304688,13.5013021 18.6653646,13.3450521 18.5351562,13.2148438 C18.4049479,13.0716146 18.2454427,13 18.0566406,13 C17.8678385,13 17.7083333,13.0683594 17.578125,13.2050781 C17.4479167,13.3417969 17.3828125,13.5013021 17.3828125,13.6835938 L17.3828125,17.4921875 C17.3828125,17.609375 17.34375,17.7070312 17.265625,17.7851562 C17.1875,17.8632812 17.0898438,17.9023438 16.9726562,17.9023438 L2.98828125,17.9023438 C2.87109375,17.9023438 2.7734375,17.8632812 2.6953125,17.7851562 C2.6171875,17.7070312 2.578125,17.609375 2.578125,17.4921875 L2.578125,13.6835938 C2.578125,13.5013021 2.51302083,13.3417969 2.3828125,13.2050781 C2.25260417,13.0683594 2.09309896,13 1.90429688,13 C1.71549479,13 1.55598958,13.0683594 1.42578125,13.2050781 C1.29557292,13.3417969 1.23046875,13.5013021 1.23046875,13.6835938 L1.23046875,18.0390625 C1.23046875,18.3776042 1.34765625,18.6640625 1.58203125,18.8984375 C1.81640625,19.1328125 2.10286458,19.25 2.44140625,19.25 L17.5195312,19.25 Z" id=""></path>
            </g>
        </g>
    </g>
</svg>