<?xml version="1.0" encoding="UTF-8"?>
<svg width="18px" height="18px" viewBox="0 0 18 18" version="1.1" xmlns="http://www.w3.org/2000/svg" xmlns:xlink="http://www.w3.org/1999/xlink">
    <title>0290B3AA-2951-4EB8-9ECB-4BE95ECB75B4</title>
    <g id="product-page" stroke="none" stroke-width="1" fill="none" fill-rule="evenodd">
        <g id="milelync-laptop" transform="translate(-43.000000, -2269.000000)" fill="#0B6DD7" fill-rule="nonzero">
            <g id="Support-Level" transform="translate(17.000000, 1722.000000)">
                <g id="essential" transform="translate(0.000000, 116.000000)">
                    <path d="M34.5714388,448.428573 C39.3035873,448.428573 43.1428776,444.589283 43.1428776,439.857134 C43.1428776,435.124986 39.3035873,431.285696 34.5714388,431.285696 C29.8392903,431.285696 26,435.124986 26,439.857134 C26,444.589283 29.8392903,448.428573 34.5714388,448.428573 Z M33.5558126,444.823658 C33.3772409,444.823658 33.1875086,444.745533 33.0535798,444.611604 L29.0133964,440.571421 C28.8794677,440.437492 28.8125034,440.258921 28.8125034,440.069188 C28.8125034,439.879456 28.8794677,439.689723 29.0133964,439.555795 L30.0290227,438.551329 C30.1629514,438.4174 30.341523,438.339275 30.5312554,438.339275 C30.7209878,438.339275 30.8995594,438.4174 31.0334881,438.551329 L33.5558126,441.073654 L38.1093894,436.531238 C38.2433182,436.397309 38.4218898,436.319184 38.6116222,436.319184 C38.8013545,436.319184 38.9799262,436.397309 39.1138549,436.531238 L40.1294811,437.535703 C40.2634099,437.669632 40.3303742,437.859364 40.3303742,438.049096 C40.3303742,438.238829 40.2634099,438.4174 40.1294811,438.551329 L34.069206,444.611604 C33.9352773,444.745533 33.7455449,444.823658 33.5558126,444.823658 Z" id="ï˜"></path>
                </g>
            </g>
        </g>
    </g>
</svg>