<?xml version="1.0" encoding="UTF-8"?>
<svg width="256px" height="303px" viewBox="0 0 256 303" version="1.1" xmlns="http://www.w3.org/2000/svg" xmlns:xlink="http://www.w3.org/1999/xlink">
    <!-- Generator: Sketch 59 (86127) - https://sketch.com -->
    <title>go-global</title>
    <desc>Created with Sketch.</desc>
    <defs>
        <path d="M0.5892,35.658 C10.8276,27.0534 39.9336,15.144 71.415,2.6694 L71.415,2.6694 C72.1536,2.3772 73.1022,1.8906 73.7862,1.4868 L73.7862,1.4868 C73.7802,1.4112 73.7094,0.744 72.9462,0.5754 L72.9462,0.5754 C19.9818,21.4776 8.4246,27.6684 0.5892,35.658" id="path-1"></path>
        <linearGradient x1="-0.000285831387%" y1="49.9998238%" x2="99.9998728%" y2="49.9998238%" id="linearGradient-3">
            <stop stop-color="#3D87ED" offset="0%"></stop>
            <stop stop-color="#62E8F9" offset="100%"></stop>
        </linearGradient>
        <path d="M3.6798,41.781 C3.2784,42.2226 1.5312,44.2752 0.5916,45.594 L0.5916,45.594 C12.0546,35.0292 49.1766,19.7118 92.8956,2.2464 L92.8956,2.2464 L93.075,1.83 C93.0534,1.7274 92.835,0.8232 91.6962,0.5904 L91.6962,0.5904 C50.1372,17.1744 14.829,31.7202 3.6798,41.781" id="path-4"></path>
        <linearGradient x1="-0.000225186358%" y1="49.9996332%" x2="100.000176%" y2="49.9996332%" id="linearGradient-6">
            <stop stop-color="#3D87ED" offset="0%"></stop>
            <stop stop-color="#62E8F9" offset="100%"></stop>
        </linearGradient>
        <path d="M0.162,48.5106 C9.5478,39.3672 37.4022,25.8402 93.2982,3.2826 L93.2982,3.2826 C93.7326,3.1074 94.4106,2.7912 94.5408,2.343 L94.5408,2.343 C94.5426,2.328 94.7532,0.8916 93.414,0.492 L93.414,0.492 C13.011,32.9364 3.4236,41.7198 0.162,48.5106" id="path-7"></path>
        <linearGradient x1="-0.000157322875%" y1="50.0000891%" x2="100.000065%" y2="50.0000891%" id="linearGradient-9">
            <stop stop-color="#3D87ED" offset="0%"></stop>
            <stop stop-color="#62E8F9" offset="100%"></stop>
        </linearGradient>
        <path d="M0.0174,58.0098 C10.5606,47.313 42.9108,31.6584 111.6798,3.9756 L111.6798,3.9756 C112.3764,3.6948 113.6406,3.3462 113.7774,2.607 L113.7774,2.607 C113.7726,2.328 113.6646,0.9144 112.1052,0.5082 L112.1052,0.5082 C13.2552,40.3014 2.6802,50.4138 0.0174,58.0098" id="path-10"></path>
        <linearGradient x1="0.000291402954%" y1="50.0000152%" x2="100.000077%" y2="50.0000152%" id="linearGradient-12">
            <stop stop-color="#3D87ED" offset="0%"></stop>
            <stop stop-color="#62E8F9" offset="100%"></stop>
        </linearGradient>
        <path d="M0.2778,71.4948 C15.5502,55.5384 79.7874,29.0424 144.2754,3.2718 L144.2754,3.2718 C144.363,3.0564 144.5628,2.7864 144.5682,2.553 L144.5682,2.553 C144.5082,2.256 144.1056,0.7512 142.1652,0.3192 L142.1652,0.3192 C38.145,41.8932 2.3424,59.853 0.2778,71.4948" id="path-13"></path>
        <linearGradient x1="-0.000352040053%" y1="50.0001039%" x2="100.000229%" y2="50.0001039%" id="linearGradient-15">
            <stop stop-color="#3D87ED" offset="0%"></stop>
            <stop stop-color="#62E8F9" offset="100%"></stop>
        </linearGradient>
        <path d="M0.4512,86.9784 C18.2802,67.9506 105.0558,33.33 168.4164,8.0508 L168.4164,8.0508 C178.9392,3.8532 178.9392,3.8532 180.8034,2.4198 L180.8034,2.4198 C180.7296,2.2296 180.018,0.546 177.7752,0.0474 L177.7752,0.0474 C74.9436,41.4246 0.648,71.3202 0.4512,86.9784" id="path-16"></path>
        <linearGradient x1="8.83937096e-05%" y1="50.0000734%" x2="100.00005%" y2="50.0000734%" id="linearGradient-18">
            <stop stop-color="#3D87ED" offset="0%"></stop>
            <stop stop-color="#62E8F9" offset="100%"></stop>
        </linearGradient>
        <path d="M0,89.1402 L0,89.2212 C0,89.436 0.018,89.646 0.0492,89.8542 L0.0492,89.8542 C19.1028,69.3 112.8606,31.8744 181.32,4.548 L181.32,4.548 C182.1906,4.2 183.2034,3.414 183.8958,2.784 L183.8958,2.784 C183.8118,2.4228 183.2736,0.5952 180.9438,0.033 L180.9438,0.033 C64.0044,46.7016 0.1218,74.9124 0,89.1402" id="path-19"></path>
        <linearGradient x1="0%" y1="50.0002486%" x2="100.000143%" y2="50.0002486%" id="linearGradient-21">
            <stop stop-color="#3D87ED" offset="0%"></stop>
            <stop stop-color="#62E8F9" offset="100%"></stop>
        </linearGradient>
        <path d="M0.369,73.338 C13.0422,59.6538 55.2828,38.553 137.3316,4.9188 L137.3316,4.9188 C137.9958,4.647 139.014,4.077 139.1568,3.3744 L139.1568,3.3744 C139.2036,2.6046 139.068,0.744 136.7874,0.0792 L136.7874,0.0792 C12.3636,51.0948 -1.9944,65.7402 0.369,73.338" id="path-22"></path>
        <linearGradient x1="0.000168930211%" y1="49.9997998%" x2="99.9999932%" y2="49.9997998%" id="linearGradient-24">
            <stop stop-color="#3D87ED" offset="0%"></stop>
            <stop stop-color="#62E8F9" offset="100%"></stop>
        </linearGradient>
        <path d="M0.9042,82.8408 C14.3898,67.9788 62.3664,44.247 156.4656,5.8914 L156.4656,5.8914 C157.6356,5.4156 159.7896,4.8534 160.002745,3.6078 L160.002745,3.6078 C160.023,2.8056 159.8112,0.8634 157.377,0.156 L157.377,0.156 C12.819,59.0124 -2.8416,74.982 0.9042,82.8408" id="path-25"></path>
        <linearGradient x1="1.51874814e-05%" y1="49.9995803%" x2="100.000068%" y2="49.9995803%" id="linearGradient-27">
            <stop stop-color="#3D87ED" offset="0%"></stop>
            <stop stop-color="#62E8F9" offset="100%"></stop>
        </linearGradient>
        <path d="M39.0624,63.8688 C-3.9264,86.0742 -0.564,91.1556 1.6608,94.5186 L1.6608,94.5186 C20.154,74.166 100.7394,39.7104 185.0688,5.508 L185.0688,5.508 C185.706,5.25 186.6462,4.6278 186.747,3.948 L186.747,3.948 C186.747,3.9204 186.7296,1.1784 183.999,0.3372 L183.999,0.3372 C123.0204,25.032 75.0372,45.2868 39.0624,63.8688" id="path-28"></path>
        <linearGradient x1="-6.91007372e-05%" y1="49.9996848%" x2="100.000108%" y2="49.9996848%" id="linearGradient-30">
            <stop stop-color="#3D87ED" offset="0%"></stop>
            <stop stop-color="#62E8F9" offset="100%"></stop>
        </linearGradient>
        <path d="M0.4866,98.2752 C1.428,100.8606 1.6818,101.1522 2.9022,102.555 L2.9022,102.555 C21.7158,82.1646 109.0998,45.4434 196.9908,9.5796 L196.9908,9.5796 C208.4694,4.896 208.4694,4.896 208.6092,3.894 L208.6092,3.894 C208.5786,3.2124 208.3038,0.9228 206.0172,0.0756 L206.0172,0.0756 C115.5684,37.32 13.0524,79.533 0.4866,98.2752" id="path-31"></path>
        <linearGradient x1="-7.12368575e-05%" y1="50.0001504%" x2="99.9999558%" y2="50.0001504%" id="linearGradient-33">
            <stop stop-color="#3D87ED" offset="0%"></stop>
            <stop stop-color="#62E8F9" offset="100%"></stop>
        </linearGradient>
        <path d="M0.2802,90.2466 C1.4808,92.6298 1.7736,92.8938 3.177,94.1646 L3.177,94.1646 C21.5064,74.6316 105.0006,39.7926 188.9478,5.7816 L188.9478,5.7816 C189.6072,5.5152 190.5486,4.8786 190.6974,4.1832 L190.6974,4.1832 C190.6992,4.1544 190.9002,1.2678 188.2908,0.3264 L188.2908,0.3264 C130.5822,23.7858 10.5006,72.6006 0.2802,90.2466" id="path-34"></path>
        <linearGradient x1="1.65422569e-05%" y1="50.0000343%" x2="99.9998978%" y2="50.0000343%" id="linearGradient-36">
            <stop stop-color="#3D87ED" offset="0%"></stop>
            <stop stop-color="#62E8F9" offset="100%"></stop>
        </linearGradient>
        <path d="M0.135,81.9078 C1.5696,84.0744 1.8942,84.3096 3.453,85.4424 L3.453,85.4424 C20.2176,67.7562 95.1018,36.1224 166.1424,7.5108 L166.1424,7.5108 C168.1416,6.7056 171.9348,6.2016 172.4706,4.1142 L172.4706,4.1142 C172.4736,4.086 172.797,1.2768 170.2848,0.384 L170.2848,0.384 C119.784,20.7624 14.7,63.1668 0.135,81.9078" id="path-37"></path>
        <linearGradient x1="-5.10006759e-05%" y1="50.0002175%" x2="99.9999291%" y2="50.0002175%" id="linearGradient-39">
            <stop stop-color="#3D87ED" offset="0%"></stop>
            <stop stop-color="#62E8F9" offset="100%"></stop>
        </linearGradient>
        <path d="M0.417,89.9568 C2.0616,91.8858 2.4114,92.0922 4.0968,93.0822 L4.0968,93.0822 C20.766,75.357 99.4926,43.0536 171.9744,14.166 L171.9744,14.166 C194.2458,5.2902 194.2458,5.2902 194.565,4.2438 L194.565,4.2438 C194.661,3.5814 194.8368,1.3542 193.062,0.4776 L193.062,0.4776 C60.2256,54.9168 10.521,75.2856 0.417,89.9568" id="path-40"></path>
        <linearGradient x1="0.000169616%" y1="49.9997771%" x2="99.9999643%" y2="49.9997771%" id="linearGradient-42">
            <stop stop-color="#3D87ED" offset="0%"></stop>
            <stop stop-color="#62E8F9" offset="100%"></stop>
        </linearGradient>
        <path d="M0.2928,79.4832 C2.118,81.1578 2.49,81.333 4.2714,82.1724 L4.2714,82.1724 C18.753,66.5544 86.265,38.4288 157.0626,10.3602 L157.0626,10.3602 C170.7486,4.9356 170.7486,4.9356 171.0834,4.0296 L171.0834,4.0296 C171.3432,3.0036 171.2406,2.6784 170.6736,0.876 L170.6736,0.876 C170.412,0.7518 170.0634,0.5892 169.803,0.465 L169.803,0.465 C97.9578,29.2566 8.5446,65.0886 0.2928,79.4832" id="path-43"></path>
        <linearGradient x1="-0.000158384412%" y1="50.0004496%" x2="99.9999833%" y2="50.0004496%" id="linearGradient-45">
            <stop stop-color="#3D87ED" offset="0%"></stop>
            <stop stop-color="#62E8F9" offset="100%"></stop>
        </linearGradient>
        <path d="M0.0162,60.9804 C1.0914,62.0508 3.0588,63.0534 4.3416,63.4074 L4.3416,63.4074 C13.857,52.8126 50.8476,35.0226 124.284,5.7246 L124.284,5.7246 C125.4162,5.2734 127.365,4.7952 127.7784,3.6474 L127.7784,3.6474 C127.992,2.7486 128.0928,1.1412 126.3588,0.4752 L126.3588,0.4752 C74.0694,21.3612 12.456,47.1132 0.0162,60.9804" id="path-46"></path>
        <linearGradient x1="-0.000160888239%" y1="50.0002003%" x2="100.000099%" y2="50.0002003%" id="linearGradient-48">
            <stop stop-color="#3D87ED" offset="0%"></stop>
            <stop stop-color="#62E8F9" offset="100%"></stop>
        </linearGradient>
        <path d="M0.2814,50.5332 C0.3726,50.5866 2.5314,51.843 4.6746,52.2756 L4.6746,52.2756 C11.8536,43.6344 42.1278,28.7712 99.9462,5.499 L99.9462,5.499 C103.3788,4.1166 103.4004,4.026 103.5396,3.4398 L103.5396,3.4398 C103.7322,2.6298 103.8192,1.182 102.2532,0.5862 L102.2532,0.5862 C38.2278,26.3502 3.9204,43.155 0.2814,50.5332" id="path-49"></path>
        <linearGradient x1="3.20429154e-05%" y1="50.0001265%" x2="99.9998711%" y2="50.0001265%" id="linearGradient-51">
            <stop stop-color="#3D87ED" offset="0%"></stop>
            <stop stop-color="#62E8F9" offset="100%"></stop>
        </linearGradient>
        <path d="M0.528,40.2384 C0.6228,40.2792 2.8998,41.1924 5.0352,41.4702 L5.0352,41.4702 C8.0316,37.155 19.1202,28.5396 80.556,3.654 L80.556,3.654 C81.456,3.2892 81.6696,3.2028 81.8106,2.6082 L81.8106,2.6082 C81.978,1.8972 82.0554,0.6252 80.6892,0.1026 L80.6892,0.1026 C16.3068,26.2326 1.56,36.351 0.528,40.2384" id="path-52"></path>
        <linearGradient x1="-0.000626452264%" y1="49.9992158%" x2="100.000012%" y2="49.9992158%" id="linearGradient-54">
            <stop stop-color="#3D87ED" offset="0%"></stop>
            <stop stop-color="#62E8F9" offset="100%"></stop>
        </linearGradient>
        <path d="M0.0294,36.7842 C0.129,36.8094 2.4846,37.365 4.5924,37.4778 L4.5924,37.4778 C5.8626,34.1328 14.1744,27.0414 71.4468,4.188 L71.4468,4.188 C73.2648,3.462 73.2648,3.462 73.4904,2.9202 L73.4904,2.9202 C73.8798,1.983 73.6494,1.131 73.5738,0.852 L73.5738,0.852 C73.4178,0.7728 73.2078,0.6678 73.0512,0.5874 L73.0512,0.5874 C25.0308,19.77 0.4632,31.9476 0.0294,36.7842" id="path-55"></path>
        <linearGradient x1="3.39571434e-05%" y1="50.0008324%" x2="99.9996987%" y2="50.0008324%" id="linearGradient-57">
            <stop stop-color="#3D87ED" offset="0%"></stop>
            <stop stop-color="#62E8F9" offset="100%"></stop>
        </linearGradient>
        <path d="M0.1314,25.5456 C0.1452,25.5522 1.6398,25.7928 3.0282,25.8 L3.0282,25.8 L3.1512,25.8 C3.7848,25.7964 4.3866,25.7412 4.8018,25.5876 L4.8018,25.5876 C4.6422,24.2874 4.2156,20.8302 47.9184,3.1812 L47.9184,3.1812 C48.813,2.82 48.8472,2.8056 49.038,2.3676 L49.038,2.3676 C49.3716,1.608 49.2192,0.9408 49.1622,0.6894 L49.1622,0.6894 C49.0404,0.624 48.8778,0.5376 48.7554,0.4734 L48.7554,0.4734 C27.6624,9.0066 -0.3282,20.889 0.1314,25.5456" id="path-58"></path>
        <linearGradient x1="7.25157662e-05%" y1="50.0004852%" x2="99.9997722%" y2="50.0004852%" id="linearGradient-60">
            <stop stop-color="#3D87ED" offset="0%"></stop>
            <stop stop-color="#62E8F9" offset="100%"></stop>
        </linearGradient>
        <path d="M1.3062,0.1092 C1.2726,0.1092 1.2396,0.1134 1.2084,0.123 L1.2084,0.123 C0.897,0.2466 0.5856,0.3684 0.2742,0.4932 L0.2742,0.4932 C0.2628,0.498 0.2478,0.5046 0.2364,0.5112 L0.2364,0.5112 C-0.0552,0.6966 0.4722,1.5444 0.9426,1.6452 L0.9426,1.6452 C1.0452,1.668 1.1034,1.647 1.1388,1.6344 L1.1388,1.6344 C1.1484,1.6314 2.1924,1.2222 2.223,1.2006 L2.223,1.2006 C2.3736,1.0896 2.2866,0.8832 2.1882,0.7302 L2.1882,0.7302 C2.0304,0.4866 1.6308,0.1122 1.3128,0.1092 L1.3128,0.1092 L1.3062,0.1092 Z" id="path-61"></path>
        <linearGradient x1="0.0135725892%" y1="49.9966819%" x2="99.9854807%" y2="49.9966819%" id="linearGradient-63">
            <stop stop-color="#3D87ED" offset="0%"></stop>
            <stop stop-color="#62E8F9" offset="100%"></stop>
        </linearGradient>
        <path d="M1.8156,0.3048 C0.4944,0.8328 0.4944,0.8328 0.4722,0.8472 L0.4722,0.8472 C0.0468,1.1286 1.0338,2.2884 1.6392,2.4144 L1.6392,2.4144 C1.7856,2.4444 1.8654,2.4162 1.9128,2.4 L1.9128,2.4 C1.9254,2.3952 3.3282,1.8408 3.363,1.8132 L3.363,1.8132 C3.5604,1.6626 3.42,1.3782 3.267,1.1652 L3.267,1.1652 C3.0336,0.8406 2.4288,0.2844 1.9608,0.2844 L1.9608,0.2844 C1.9104,0.2844 1.8618,0.291 1.8156,0.3048" id="path-64"></path>
        <linearGradient x1="0.00632018993%" y1="49.9946504%" x2="99.994491%" y2="49.9946504%" id="linearGradient-66">
            <stop stop-color="#3D87ED" offset="0%"></stop>
            <stop stop-color="#62E8F9" offset="100%"></stop>
        </linearGradient>
        <path d="M2.673,0.4182 C0.6618,1.2252 0.6618,1.2252 0.5604,1.4418 L0.5604,1.4418 C0.3294,1.9338 0.6534,3.1116 1.239,3.4764 L1.239,3.4764 C1.4628,3.6162 1.6434,3.5646 1.6458,3.564 L1.6458,3.564 C1.821,3.5112 3.726,2.7294 3.732,2.7246 L3.732,2.7246 C3.9702,2.574 4.0494,2.2236 3.9474,1.7634 L3.9474,1.7634 C3.8358,1.2624 3.399,0.393 2.8374,0.393 L2.8374,0.393 C2.7834,0.393 2.7288,0.4008 2.673,0.4182" id="path-67"></path>
        <linearGradient x1="-0.000694482438%" y1="50.001787%" x2="99.9917401%" y2="50.001787%" id="linearGradient-69">
            <stop stop-color="#3D87ED" offset="0%"></stop>
            <stop stop-color="#62E8F9" offset="100%"></stop>
        </linearGradient>
        <path d="M2.6946,0.3438 C1.9878,0.6276 1.2666,0.8796 0.5718,1.1952 L0.5718,1.1952 C-0.3018,1.5918 0.7056,3.5412 1.5408,3.879 L1.5408,3.879 C1.7904,3.9804 1.9548,3.927 2.0436,3.8976 L2.0436,3.8976 C2.0616,3.8922 4.2726,3.0138 4.3416,2.9664 L4.3416,2.9664 C4.7028,2.718 4.5696,2.175 4.4592,1.8732 L4.4592,1.8732 C4.2492,1.302 3.585,0.3144 2.8974,0.3138 L2.8974,0.3138 C2.8296,0.3138 2.7624,0.3234 2.6946,0.3438" id="path-70"></path>
        <linearGradient x1="0.00386829809%" y1="50.0024406%" x2="100.003733%" y2="50.0024406%" id="linearGradient-72">
            <stop stop-color="#3D87ED" offset="0%"></stop>
            <stop stop-color="#62E8F9" offset="100%"></stop>
        </linearGradient>
        <path d="M2.8338,0.1356 C0.4872,1.0722 0.4872,1.0722 0.4458,1.0998 L0.4458,1.0998 C-0.3024,1.5966 1.3032,3.723 2.3304,3.9666 L2.3304,3.9666 C2.5734,4.0236 2.7078,3.9774 2.7888,3.9486 L2.7888,3.9486 C2.8104,3.9414 5.1978,2.9994 5.2596,2.9514 L5.2596,2.9514 C5.6022,2.688 5.4066,2.1684 5.1828,1.779 L5.1828,1.779 C4.8288,1.1652 3.867,0.1032 3.066,0.1032 L3.066,0.1032 C2.9868,0.1032 2.9094,0.1134 2.8338,0.1356" id="path-73"></path>
        <linearGradient x1="0.00442691057%" y1="49.994535%" x2="100.00011%" y2="49.994535%" id="linearGradient-75">
            <stop stop-color="#3D87ED" offset="0%"></stop>
            <stop stop-color="#62E8F9" offset="100%"></stop>
        </linearGradient>
        <path d="M2.835,0.2496 C0.5964,1.1718 0.5964,1.1718 0.5682,1.1934 L0.5682,1.1934 C-0.0654,1.6656 2.0994,4.0884 3.2958,4.2426 L3.2958,4.2426 C3.7368,4.2996 5.9508,3.2532 5.9634,3.2406 L5.9634,3.2406 C6.1932,3.0216 6.0798,2.6118 5.625,2.022 L5.625,2.022 C5.1204,1.3674 3.8742,0.2214 3.0456,0.2214 L3.0456,0.2214 C2.9718,0.2214 2.9016,0.2304 2.835,0.2496" id="path-76"></path>
        <linearGradient x1="-0.00370591587%" y1="49.9998593%" x2="100.001922%" y2="49.9998593%" id="linearGradient-78">
            <stop stop-color="#3D87ED" offset="0%"></stop>
            <stop stop-color="#62E8F9" offset="100%"></stop>
        </linearGradient>
        <path d="M3.4458,0.4656 C0.7524,1.5534 0.7524,1.5534 0.7146,1.5786 L0.7146,1.5786 C-0.1308,2.1624 1.8318,4.7796 3.036,5.1 L3.036,5.1 C3.3198,5.1756 3.4734,5.1222 3.5646,5.0904 L3.5646,5.0904 C3.5898,5.0826 6.2718,4.0158 6.3462,3.9558 L6.3462,3.9558 C6.7254,3.6492 6.4812,3.0138 6.2088,2.5344 L6.2088,2.5344 C5.775,1.7706 4.6104,0.4326 3.6858,0.4326 L3.6858,0.4326 C3.6036,0.4326 3.5232,0.4434 3.4458,0.4656" id="path-79"></path>
        <linearGradient x1="0.00209526937%" y1="50.0042494%" x2="100.002108%" y2="50.0042494%" id="linearGradient-81">
            <stop stop-color="#3D87ED" offset="0%"></stop>
            <stop stop-color="#62E8F9" offset="100%"></stop>
        </linearGradient>
        <path d="M4.3056,0.2046 C0.7698,1.6422 0.7698,1.6422 0.6102,2.0382 L0.6102,2.0382 C0.267,2.8872 1.0152,5.0316 2.091,5.6916 L2.091,5.6916 C2.499,5.943 2.8074,5.8548 2.8104,5.8536 L2.8104,5.8536 C3.1116,5.7636 6.3456,4.4154 6.3558,4.4088 L6.3558,4.4088 C6.7578,4.1448 6.8712,3.5178 6.666,2.6892 L6.666,2.6892 C6.438,1.7682 5.5986,0.162 4.5888,0.162 L4.5888,0.162 C4.4958,0.162 4.4016,0.1758 4.3056,0.2046" id="path-82"></path>
        <linearGradient x1="0.000775736%" y1="49.9997942%" x2="100.003332%" y2="49.9997942%" id="linearGradient-84">
            <stop stop-color="#3D87ED" offset="0%"></stop>
            <stop stop-color="#62E8F9" offset="100%"></stop>
        </linearGradient>
        <path d="M4.2414,0.2748 C0.594,1.7502 0.594,1.7502 0.4416,2.1618 L0.4416,2.1618 C0.1176,3.0438 0.9882,5.286 2.1414,5.9832 L2.1414,5.9832 C2.5788,6.2478 2.8974,6.1584 2.8998,6.1578 L2.8998,6.1578 C3.2106,6.066 6.534,4.6872 6.5448,4.6806 L6.5448,4.6806 C6.9558,4.4076 7.0524,3.7542 6.8088,2.8878 L6.8088,2.8878 C6.537,1.9212 5.5956,0.2322 4.5312,0.2322 L4.5312,0.2322 C4.4358,0.2322 4.3386,0.246 4.2414,0.2748" id="path-85"></path>
        <linearGradient x1="0.00449641311%" y1="49.9976961%" x2="100.000676%" y2="49.9976961%" id="linearGradient-87">
            <stop stop-color="#3D87ED" offset="0%"></stop>
            <stop stop-color="#62E8F9" offset="100%"></stop>
        </linearGradient>
        <path d="M3.9654,0.3138 C0.3042,1.7916 0.3042,1.7916 0.1758,2.2092 L0.1758,2.2092 C-0.1602,3.3 1.0068,5.7366 2.127,6.2838 L2.127,6.2838 C2.5038,6.468 2.7528,6.3882 2.886,6.3456 L2.886,6.3456 C2.913,6.3366 6.264,4.9956 6.3702,4.9194 L6.3702,4.9194 C6.9216,4.5222 6.7518,3.5874 6.6012,3.066 L6.6012,3.066 C6.3084,2.0538 5.322,0.2736 4.2426,0.2736 L4.2426,0.2736 C4.1508,0.2736 4.0584,0.2862 3.9654,0.3138" id="path-88"></path>
        <linearGradient x1="0.000667653112%" y1="49.9989421%" x2="100.001354%" y2="49.9989421%" id="linearGradient-90">
            <stop stop-color="#3D87ED" offset="0%"></stop>
            <stop stop-color="#62E8F9" offset="100%"></stop>
        </linearGradient>
        <path d="M4.02,0.0972 C0.6864,1.4934 0.6864,1.4934 0.5748,1.9164 L0.5748,1.9164 C0.2784,3.0294 1.368,5.589 2.3958,6.195 L2.3958,6.195 C2.7432,6.399 2.9688,6.3258 3.09,6.2868 L3.09,6.2868 C3.1152,6.279 6.1434,5.0226 6.2394,4.9482 L6.2394,4.9482 C6.732,4.563 6.5694,3.5904 6.4284,3.0456 L6.4284,3.0456 C6.15,1.9758 5.2242,0.066 4.2354,0.066 L4.2354,0.066 C4.164,0.066 4.092,0.0762 4.02,0.0972" id="path-91"></path>
        <linearGradient x1="-0.00474015295%" y1="49.9995785%" x2="100.000035%" y2="49.9995785%" id="linearGradient-93">
            <stop stop-color="#3D87ED" offset="0%"></stop>
            <stop stop-color="#62E8F9" offset="100%"></stop>
        </linearGradient>
        <path d="M3.9588,0.3114 C0.3216,1.803 0.3216,1.803 0.1494,2.2476 L0.1494,2.2476 C-0.2214,3.201 0.4824,5.6916 1.5576,6.4998 L1.5576,6.4998 C1.962,6.804 2.2734,6.7188 2.2776,6.7176 L2.2776,6.7176 C2.5794,6.63 5.8512,5.262 5.8632,5.2542 L5.8632,5.2542 C6.2724,4.9752 6.4098,4.2654 6.24,3.3066 L6.24,3.3066 C6.0462,2.214 5.2476,0.2754 4.2054,0.2754 L4.2054,0.2754 C4.1244,0.2754 4.0422,0.2868 3.9588,0.3114" id="path-94"></path>
        <linearGradient x1="-0.00333039909%" y1="49.9992546%" x2="99.9970007%" y2="49.9992546%" id="linearGradient-96">
            <stop stop-color="#3D87ED" offset="0%"></stop>
            <stop stop-color="#62E8F9" offset="100%"></stop>
        </linearGradient>
        <path d="M4.143,0.5778 C0.4278,2.0724 0.4278,2.0724 0.2286,2.514 L0.2286,2.514 C-0.192,3.4452 0.3768,5.8626 1.4064,6.6402 L1.4064,6.6402 C1.7922,6.93 2.106,6.8436 2.1084,6.8424 L2.1084,6.8424 C2.4156,6.7536 5.7564,5.3814 5.7678,5.3748 L5.7678,5.3748 C6.1956,5.0946 6.3762,4.4016 6.2634,3.4704 L6.2634,3.4704 C6.1344,2.4096 5.4498,0.5388 4.4064,0.5388 L4.4064,0.5388 C4.3212,0.5388 4.233,0.5514 4.143,0.5778" id="path-97"></path>
        <linearGradient x1="0.000576911101%" y1="49.9990056%" x2="100.000095%" y2="49.9990056%" id="linearGradient-99">
            <stop stop-color="#3D87ED" offset="0%"></stop>
            <stop stop-color="#62E8F9" offset="100%"></stop>
        </linearGradient>
        <path d="M3.684,0.5988 C0.648,1.8738 0.648,1.8738 0.4722,2.2854 L0.4722,2.2854 C0.0156,3.363 0.4368,5.8884 1.1772,6.5082 L1.1772,6.5082 C1.4232,6.7146 1.6224,6.6504 1.7298,6.6162 L1.7298,6.6162 C1.7514,6.609 4.4796,5.4822 4.5714,5.4132 L4.5714,5.4132 C5.0178,5.079 5.1012,4.239 5.1048,3.693 L5.1048,3.693 L5.1048,3.618 C5.1048,3.6012 5.1048,3.5844 5.1042,3.5682 L5.1042,3.5682 C5.0874,2.5002 4.6914,0.5736 3.8526,0.5736 L3.8526,0.5736 C3.7986,0.5736 3.7422,0.582 3.684,0.5988" id="path-100"></path>
        <linearGradient x1="-0.00116574561%" y1="49.9992724%" x2="100.002354%" y2="49.9992724%" id="linearGradient-102">
            <stop stop-color="#3D87ED" offset="0%"></stop>
            <stop stop-color="#62E8F9" offset="100%"></stop>
        </linearGradient>
        <path d="M3.7626,0.6054 C0.6288,1.881 0.6288,1.881 0.4128,2.2836 L0.4128,2.2836 C-0.045,3.1434 0.072,5.4372 0.7764,6.2046 L0.7764,6.2046 C1.0386,6.492 1.2954,6.4218 1.2978,6.4218 L1.2978,6.4218 C1.5492,6.3498 4.3404,5.1906 4.3494,5.184 L4.3494,5.184 C4.7202,4.9392 4.9584,4.293 5.0034,3.4122 L5.0034,3.4122 C5.0562,2.397 4.7838,0.5778 3.9468,0.5778 L3.9468,0.5778 C3.888,0.5778 3.8268,0.5868 3.7626,0.6054" id="path-103"></path>
        <linearGradient x1="3.03810699e-05%" y1="50.0024364%" x2="100.000467%" y2="50.0024364%" id="linearGradient-105">
            <stop stop-color="#3D87ED" offset="0%"></stop>
            <stop stop-color="#62E8F9" offset="100%"></stop>
        </linearGradient>
        <path d="M4.095,0.2052 C0.8694,1.4844 0.8694,1.4844 0.7164,1.737 L0.7164,1.737 C0.1038,2.7546 0.4704,4.6854 1.0176,5.3124 L1.0176,5.3124 C1.3056,5.643 1.5786,5.6028 1.656,5.5818 L1.656,5.5818 C1.8486,5.5338 4.7868,4.3452 4.8,4.338 L4.8,4.338 C5.1768,4.116 5.421,3.504 5.4522,2.7036 L5.4522,2.7036 C5.487,1.788 5.1726,0.1722 4.3146,0.1722 L4.3146,0.1722 C4.245,0.1722 4.1718,0.1824 4.095,0.2052" id="path-106"></path>
        <linearGradient x1="0.00353902177%" y1="49.996423%" x2="99.9911794%" y2="49.996423%" id="linearGradient-108">
            <stop stop-color="#3D87ED" offset="0%"></stop>
            <stop stop-color="#62E8F9" offset="100%"></stop>
        </linearGradient>
        <path d="M3.8466,0.1092 C0.9144,1.278 0.9144,1.278 0.7752,1.509 L0.7752,1.509 C0.2214,2.4258 0.5604,4.161 1.0584,4.7226 L1.0584,4.7226 C1.32,5.0178 1.5672,4.9818 1.6356,4.9632 L1.6356,4.9632 C1.8096,4.9164 4.4628,3.8376 4.4742,3.8304 L4.4742,3.8304 C4.8168,3.6282 5.0388,3.0774 5.0682,2.358 L5.0682,2.358 C5.1036,1.5324 4.8264,0.078 4.0506,0.078 L4.0506,0.078 C3.9858,0.078 3.918,0.0876 3.8466,0.1092" id="path-109"></path>
        <linearGradient x1="-0.00121878141%" y1="49.9976418%" x2="100.006023%" y2="49.9976418%" id="linearGradient-111">
            <stop stop-color="#3D87ED" offset="0%"></stop>
            <stop stop-color="#62E8F9" offset="100%"></stop>
        </linearGradient>
        <path d="M3.1596,0.4956 C0.5832,1.5288 0.5832,1.5288 0.4584,1.7334 L0.4584,1.7334 C-0.0324,2.5392 0.2484,4.0692 0.6768,4.5666 L0.6768,4.5666 C0.9012,4.8264 1.1142,4.7946 1.1748,4.7778 L1.1748,4.7778 C1.3254,4.7394 3.6402,3.789 3.6498,3.7848 L3.6498,3.7848 C3.9492,3.6066 4.1514,3.123 4.191,2.4864 L4.191,2.4864 C4.236,1.7556 4.0182,0.4674 3.339,0.4674 L3.339,0.4674 C3.2826,0.4674 3.2226,0.4764 3.1596,0.4956" id="path-112"></path>
        <linearGradient x1="-0.00574437803%" y1="50.001285%" x2="99.9970495%" y2="50.001285%" id="linearGradient-114">
            <stop stop-color="#3D87ED" offset="0%"></stop>
            <stop stop-color="#62E8F9" offset="100%"></stop>
        </linearGradient>
        <path d="M3.2208,0.3354 C0.948,1.2354 0.948,1.2354 0.8094,1.4214 L0.8094,1.4214 C0.267,2.148 0.207,3.5646 0.4596,4.0344 L0.4596,4.0344 C0.5892,4.278 0.765,4.2534 0.8166,4.2402 L0.8166,4.2402 C0.9438,4.2072 2.9742,3.3876 2.9838,3.381 L2.9838,3.381 C3.2586,3.2244 3.5166,2.7804 3.6714,2.1978 L3.6714,2.1978 C3.8526,1.5192 3.927,0.3132 3.3624,0.3132 L3.3624,0.3132 C3.3186,0.3132 3.2718,0.3198 3.2208,0.3354" id="path-115"></path>
        <linearGradient x1="-0.00330619424%" y1="50.0023115%" x2="99.9954816%" y2="50.0023115%" id="linearGradient-117">
            <stop stop-color="#3D87ED" offset="0%"></stop>
            <stop stop-color="#62E8F9" offset="100%"></stop>
        </linearGradient>
        <path d="M2.589,0.5748 C0.7554,1.3068 0.7554,1.3068 0.6372,1.4604 L0.6372,1.4604 C0.1986,2.028 0.084,3.2058 0.2616,3.594 L0.2616,3.594 C0.3522,3.7914 0.4896,3.7728 0.5298,3.762 L0.5298,3.762 C0.6306,3.7356 2.2452,3.0774 2.253,3.0726 L2.253,3.0726 C2.4768,2.946 2.7,2.5842 2.8518,2.1078 L2.8518,2.1078 C3.0414,1.5132 3.1302,0.5574 2.6976,0.5574 L2.6976,0.5574 C2.6646,0.5574 2.628,0.5628 2.589,0.5748" id="path-118"></path>
        <linearGradient x1="-0.00191846016%" y1="49.9921511%" x2="99.9983876%" y2="49.9921511%" id="linearGradient-120">
            <stop stop-color="#3D87ED" offset="0%"></stop>
            <stop stop-color="#62E8F9" offset="100%"></stop>
        </linearGradient>
    </defs>
    <g id="product-page" stroke="none" stroke-width="1" fill="none" fill-rule="evenodd">
        <g id="china-access-mobile" transform="translate(-23.000000, -5815.000000)">
            <g id="cloudflare" transform="translate(20.000000, 5673.000000)">
                <g id="go-global" transform="translate(3.000000, 142.000000)">
                    <g id="Group-3" transform="translate(43.200000, 1.090800)">
                        <mask id="mask-2" fill="white">
                            <use xlink:href="#path-1"></use>
                        </mask>
                        <g id="Clip-2"></g>
                        <path d="M0.5892,35.658 C10.8276,27.0534 39.9336,15.144 71.415,2.6694 L71.415,2.6694 C72.1536,2.3772 73.1022,1.8906 73.7862,1.4868 L73.7862,1.4868 C73.7802,1.4112 73.7094,0.744 72.9462,0.5754 L72.9462,0.5754 C19.9818,21.4776 8.4246,27.6684 0.5892,35.658" id="Fill-1" fill="url(#linearGradient-3)" mask="url(#mask-2)"></path>
                    </g>
                    <g id="Group-6" transform="translate(30.600000, 5.290800)">
                        <mask id="mask-5" fill="white">
                            <use xlink:href="#path-4"></use>
                        </mask>
                        <g id="Clip-5"></g>
                        <path d="M3.6798,41.781 C3.2784,42.2226 1.5312,44.2752 0.5916,45.594 L0.5916,45.594 C12.0546,35.0292 49.1766,19.7118 92.8956,2.2464 L92.8956,2.2464 L93.075,1.83 C93.0534,1.7274 92.835,0.8232 91.6962,0.5904 L91.6962,0.5904 C50.1372,17.1744 14.829,31.7202 3.6798,41.781" id="Fill-4" fill="url(#linearGradient-6)" mask="url(#mask-5)"></path>
                    </g>
                    <g id="Group-9" transform="translate(20.400000, 17.890800)">
                        <mask id="mask-8" fill="white">
                            <use xlink:href="#path-7"></use>
                        </mask>
                        <g id="Clip-8"></g>
                        <path d="M0.162,48.5106 C9.5478,39.3672 37.4022,25.8402 93.2982,3.2826 L93.2982,3.2826 C93.7326,3.1074 94.4106,2.7912 94.5408,2.343 L94.5408,2.343 C94.5426,2.328 94.7532,0.8916 93.414,0.492 L93.414,0.492 C13.011,32.9364 3.4236,41.7198 0.162,48.5106" id="Fill-7" fill="url(#linearGradient-9)" mask="url(#mask-8)"></path>
                    </g>
                    <g id="Group-12" transform="translate(12.000000, 25.090800)">
                        <mask id="mask-11" fill="white">
                            <use xlink:href="#path-10"></use>
                        </mask>
                        <g id="Clip-11"></g>
                        <path d="M0.0174,58.0098 C10.5606,47.313 42.9108,31.6584 111.6798,3.9756 L111.6798,3.9756 C112.3764,3.6948 113.6406,3.3462 113.7774,2.607 L113.7774,2.607 C113.7726,2.328 113.6646,0.9144 112.1052,0.5082 L112.1052,0.5082 C13.2552,40.3014 2.6802,50.4138 0.0174,58.0098" id="Fill-10" fill="url(#linearGradient-12)" mask="url(#mask-11)"></path>
                    </g>
                    <g id="Group-15" transform="translate(5.400000, 29.290800)">
                        <mask id="mask-14" fill="white">
                            <use xlink:href="#path-13"></use>
                        </mask>
                        <g id="Clip-14"></g>
                        <path d="M0.2778,71.4948 C15.5502,55.5384 79.7874,29.0424 144.2754,3.2718 L144.2754,3.2718 C144.363,3.0564 144.5628,2.7864 144.5682,2.553 L144.5682,2.553 C144.5082,2.256 144.1056,0.7512 142.1652,0.3192 L142.1652,0.3192 C38.145,41.8932 2.3424,59.853 0.2778,71.4948" id="Fill-13" fill="url(#linearGradient-15)" mask="url(#mask-14)"></path>
                    </g>
                    <g id="Group-18" transform="translate(1.200000, 32.290800)">
                        <mask id="mask-17" fill="white">
                            <use xlink:href="#path-16"></use>
                        </mask>
                        <g id="Clip-17"></g>
                        <path d="M0.4512,86.9784 C18.2802,67.9506 105.0558,33.33 168.4164,8.0508 L168.4164,8.0508 C178.9392,3.8532 178.9392,3.8532 180.8034,2.4198 L180.8034,2.4198 C180.7296,2.2296 180.018,0.546 177.7752,0.0474 L177.7752,0.0474 C74.9436,41.4246 0.648,71.3202 0.4512,86.9784" id="Fill-16" fill="url(#linearGradient-18)" mask="url(#mask-17)"></path>
                    </g>
                    <g id="Group-21" transform="translate(0.000000, 48.490800)">
                        <mask id="mask-20" fill="white">
                            <use xlink:href="#path-19"></use>
                        </mask>
                        <g id="Clip-20"></g>
                        <path d="M0,89.1402 L0,89.2212 C0,89.436 0.018,89.646 0.0492,89.8542 L0.0492,89.8542 C19.1028,69.3 112.8606,31.8744 181.32,4.548 L181.32,4.548 C182.1906,4.2 183.2034,3.414 183.8958,2.784 L183.8958,2.784 C183.8118,2.4228 183.2736,0.5952 180.9438,0.033 L180.9438,0.033 C64.0044,46.7016 0.1218,74.9124 0,89.1402" id="Fill-19" fill="url(#linearGradient-21)" mask="url(#mask-20)"></path>
                    </g>
                    <g id="Group-24" transform="translate(0.600000, 84.490800)">
                        <mask id="mask-23" fill="white">
                            <use xlink:href="#path-22"></use>
                        </mask>
                        <g id="Clip-23"></g>
                        <path d="M0.369,73.338 C13.0422,59.6538 55.2828,38.553 137.3316,4.9188 L137.3316,4.9188 C137.9958,4.647 139.014,4.077 139.1568,3.3744 L139.1568,3.3744 C139.2036,2.6046 139.068,0.744 136.7874,0.0792 L136.7874,0.0792 C12.3636,51.0948 -1.9944,65.7402 0.369,73.338" id="Fill-22" fill="url(#linearGradient-24)" mask="url(#mask-23)"></path>
                    </g>
                    <g id="Group-27" transform="translate(3.600000, 94.690800)">
                        <mask id="mask-26" fill="white">
                            <use xlink:href="#path-25"></use>
                        </mask>
                        <g id="Clip-26"></g>
                        <path d="M0.9042,82.8408 C14.3898,67.9788 62.3664,44.247 156.4656,5.8914 L156.4656,5.8914 C157.6356,5.4156 159.7896,4.8534 160.002745,3.6078 L160.002745,3.6078 C160.023,2.8056 159.8112,0.8634 157.377,0.156 L157.377,0.156 C12.819,59.0124 -2.8416,74.982 0.9042,82.8408" id="Fill-25" fill="url(#linearGradient-27)" mask="url(#mask-26)"></path>
                    </g>
                    <g id="Group-30" transform="translate(9.000000, 102.490800)">
                        <mask id="mask-29" fill="white">
                            <use xlink:href="#path-28"></use>
                        </mask>
                        <g id="Clip-29"></g>
                        <path d="M39.0624,63.8688 C-3.9264,86.0742 -0.564,91.1556 1.6608,94.5186 L1.6608,94.5186 C20.154,74.166 100.7394,39.7104 185.0688,5.508 L185.0688,5.508 C185.706,5.25 186.6462,4.6278 186.747,3.948 L186.747,3.948 C186.747,3.9204 186.7296,1.1784 183.999,0.3372 L183.999,0.3372 C123.0204,25.032 75.0372,45.2868 39.0624,63.8688" id="Fill-28" fill="url(#linearGradient-30)" mask="url(#mask-29)"></path>
                    </g>
                    <g id="Group-33" transform="translate(16.200000, 112.690800)">
                        <mask id="mask-32" fill="white">
                            <use xlink:href="#path-31"></use>
                        </mask>
                        <g id="Clip-32"></g>
                        <path d="M0.4866,98.2752 C1.428,100.8606 1.6818,101.1522 2.9022,102.555 L2.9022,102.555 C21.7158,82.1646 109.0998,45.4434 196.9908,9.5796 L196.9908,9.5796 C208.4694,4.896 208.4694,4.896 208.6092,3.894 L208.6092,3.894 C208.5786,3.2124 208.3038,0.9228 206.0172,0.0756 L206.0172,0.0756 C115.5684,37.32 13.0524,79.533 0.4866,98.2752" id="Fill-31" fill="url(#linearGradient-33)" mask="url(#mask-32)"></path>
                    </g>
                    <g id="Group-36" transform="translate(26.400000, 137.890800)">
                        <mask id="mask-35" fill="white">
                            <use xlink:href="#path-34"></use>
                        </mask>
                        <g id="Clip-35"></g>
                        <path d="M0.2802,90.2466 C1.4808,92.6298 1.7736,92.8938 3.177,94.1646 L3.177,94.1646 C21.5064,74.6316 105.0006,39.7926 188.9478,5.7816 L188.9478,5.7816 C189.6072,5.5152 190.5486,4.8786 190.6974,4.1832 L190.6974,4.1832 C190.6992,4.1544 190.9002,1.2678 188.2908,0.3264 L188.2908,0.3264 C130.5822,23.7858 10.5006,72.6006 0.2802,90.2466" id="Fill-34" fill="url(#linearGradient-36)" mask="url(#mask-35)"></path>
                    </g>
                    <g id="Group-39" transform="translate(38.400000, 161.890800)">
                        <mask id="mask-38" fill="white">
                            <use xlink:href="#path-37"></use>
                        </mask>
                        <g id="Clip-38"></g>
                        <path d="M0.135,81.9078 C1.5696,84.0744 1.8942,84.3096 3.453,85.4424 L3.453,85.4424 C20.2176,67.7562 95.1018,36.1224 166.1424,7.5108 L166.1424,7.5108 C168.1416,6.7056 171.9348,6.2016 172.4706,4.1142 L172.4706,4.1142 C172.4736,4.086 172.797,1.2768 170.2848,0.384 L170.2848,0.384 C119.784,20.7624 14.7,63.1668 0.135,81.9078" id="Fill-37" fill="url(#linearGradient-39)" mask="url(#mask-38)"></path>
                    </g>
                    <g id="Group-42" transform="translate(51.600000, 167.890800)">
                        <mask id="mask-41" fill="white">
                            <use xlink:href="#path-40"></use>
                        </mask>
                        <g id="Clip-41"></g>
                        <path d="M0.417,89.9568 C2.0616,91.8858 2.4114,92.0922 4.0968,93.0822 L4.0968,93.0822 C20.766,75.357 99.4926,43.0536 171.9744,14.166 L171.9744,14.166 C194.2458,5.2902 194.2458,5.2902 194.565,4.2438 L194.565,4.2438 C194.661,3.5814 194.8368,1.3542 193.062,0.4776 L193.062,0.4776 C60.2256,54.9168 10.521,75.2856 0.417,89.9568" id="Fill-40" fill="url(#linearGradient-42)" mask="url(#mask-41)"></path>
                    </g>
                    <g id="Group-45" transform="translate(66.600000, 190.690800)">
                        <mask id="mask-44" fill="white">
                            <use xlink:href="#path-43"></use>
                        </mask>
                        <g id="Clip-44"></g>
                        <path d="M0.2928,79.4832 C2.118,81.1578 2.49,81.333 4.2714,82.1724 L4.2714,82.1724 C18.753,66.5544 86.265,38.4288 157.0626,10.3602 L157.0626,10.3602 C170.7486,4.9356 170.7486,4.9356 171.0834,4.0296 L171.0834,4.0296 C171.3432,3.0036 171.2406,2.6784 170.6736,0.876 L170.6736,0.876 C170.412,0.7518 170.0634,0.5892 169.803,0.465 L169.803,0.465 C97.9578,29.2566 8.5446,65.0886 0.2928,79.4832" id="Fill-43" fill="url(#linearGradient-45)" mask="url(#mask-44)"></path>
                    </g>
                    <g id="Group-48" transform="translate(82.800000, 219.490800)">
                        <mask id="mask-47" fill="white">
                            <use xlink:href="#path-46"></use>
                        </mask>
                        <g id="Clip-47"></g>
                        <path d="M0.0162,60.9804 C1.0914,62.0508 3.0588,63.0534 4.3416,63.4074 L4.3416,63.4074 C13.857,52.8126 50.8476,35.0226 124.284,5.7246 L124.284,5.7246 C125.4162,5.2734 127.365,4.7952 127.7784,3.6474 L127.7784,3.6474 C127.992,2.7486 128.0928,1.1412 126.3588,0.4752 L126.3588,0.4752 C74.0694,21.3612 12.456,47.1132 0.0162,60.9804" id="Fill-46" fill="url(#linearGradient-48)" mask="url(#mask-47)"></path>
                    </g>
                    <g id="Group-51" transform="translate(99.600000, 238.690800)">
                        <mask id="mask-50" fill="white">
                            <use xlink:href="#path-49"></use>
                        </mask>
                        <g id="Clip-50"></g>
                        <path d="M0.2814,50.5332 C0.3726,50.5866 2.5314,51.843 4.6746,52.2756 L4.6746,52.2756 C11.8536,43.6344 42.1278,28.7712 99.9462,5.499 L99.9462,5.499 C103.3788,4.1166 103.4004,4.026 103.5396,3.4398 L103.5396,3.4398 C103.7322,2.6298 103.8192,1.182 102.2532,0.5862 L102.2532,0.5862 C38.2278,26.3502 3.9204,43.155 0.2814,50.5332" id="Fill-49" fill="url(#linearGradient-51)" mask="url(#mask-50)"></path>
                    </g>
                    <g id="Group-54" transform="translate(117.000000, 255.490800)">
                        <mask id="mask-53" fill="white">
                            <use xlink:href="#path-52"></use>
                        </mask>
                        <g id="Clip-53"></g>
                        <path d="M0.528,40.2384 C0.6228,40.2792 2.8998,41.1924 5.0352,41.4702 L5.0352,41.4702 C8.0316,37.155 19.1202,28.5396 80.556,3.654 L80.556,3.654 C81.456,3.2892 81.6696,3.2028 81.8106,2.6082 L81.8106,2.6082 C81.978,1.8972 82.0554,0.6252 80.6892,0.1026 L80.6892,0.1026 C16.3068,26.2326 1.56,36.351 0.528,40.2384" id="Fill-52" fill="url(#linearGradient-54)" mask="url(#mask-53)"></path>
                    </g>
                    <g id="Group-57" transform="translate(135.600000, 263.290800)">
                        <mask id="mask-56" fill="white">
                            <use xlink:href="#path-55"></use>
                        </mask>
                        <g id="Clip-56"></g>
                        <path d="M0.0294,36.7842 C0.129,36.8094 2.4846,37.365 4.5924,37.4778 L4.5924,37.4778 C5.8626,34.1328 14.1744,27.0414 71.4468,4.188 L71.4468,4.188 C73.2648,3.462 73.2648,3.462 73.4904,2.9202 L73.4904,2.9202 C73.8798,1.983 73.6494,1.131 73.5738,0.852 L73.5738,0.852 C73.4178,0.7728 73.2078,0.6678 73.0512,0.5874 L73.0512,0.5874 C25.0308,19.77 0.4632,31.9476 0.0294,36.7842" id="Fill-55" fill="url(#linearGradient-57)" mask="url(#mask-56)"></path>
                    </g>
                    <g id="Group-60" transform="translate(153.600000, 276.490800)">
                        <mask id="mask-59" fill="white">
                            <use xlink:href="#path-58"></use>
                        </mask>
                        <g id="Clip-59"></g>
                        <path d="M0.1314,25.5456 C0.1452,25.5522 1.6398,25.7928 3.0282,25.8 L3.0282,25.8 L3.1512,25.8 C3.7848,25.7964 4.3866,25.7412 4.8018,25.5876 L4.8018,25.5876 C4.6422,24.2874 4.2156,20.8302 47.9184,3.1812 L47.9184,3.1812 C48.813,2.82 48.8472,2.8056 49.038,2.3676 L49.038,2.3676 C49.3716,1.608 49.2192,0.9408 49.1622,0.6894 L49.1622,0.6894 C49.0404,0.624 48.8778,0.5376 48.7554,0.4734 L48.7554,0.4734 C27.6624,9.0066 -0.3282,20.889 0.1314,25.5456" id="Fill-58" fill="url(#linearGradient-60)" mask="url(#mask-59)"></path>
                    </g>
                    <g id="Group-63" transform="translate(117.600000, 0.490800)">
                        <mask id="mask-62" fill="white">
                            <use xlink:href="#path-61"></use>
                        </mask>
                        <g id="Clip-62"></g>
                        <path d="M1.3062,0.1092 C1.2726,0.1092 1.2396,0.1134 1.2084,0.123 L1.2084,0.123 C0.897,0.2466 0.5856,0.3684 0.2742,0.4932 L0.2742,0.4932 C0.2628,0.498 0.2478,0.5046 0.2364,0.5112 L0.2364,0.5112 C-0.0552,0.6966 0.4722,1.5444 0.9426,1.6452 L0.9426,1.6452 C1.0452,1.668 1.1034,1.647 1.1388,1.6344 L1.1388,1.6344 C1.1484,1.6314 2.1924,1.2222 2.223,1.2006 L2.223,1.2006 C2.3736,1.0896 2.2866,0.8832 2.1882,0.7302 L2.1882,0.7302 C2.0304,0.4866 1.6308,0.1122 1.3128,0.1092 L1.3128,0.1092 L1.3062,0.1092 Z" id="Fill-61" fill="url(#linearGradient-63)" mask="url(#mask-62)"></path>
                    </g>
                    <g id="Group-66" transform="translate(124.200000, 4.090800)">
                        <mask id="mask-65" fill="white">
                            <use xlink:href="#path-64"></use>
                        </mask>
                        <g id="Clip-65"></g>
                        <path d="M1.8156,0.3048 C0.4944,0.8328 0.4944,0.8328 0.4722,0.8472 L0.4722,0.8472 C0.0468,1.1286 1.0338,2.2884 1.6392,2.4144 L1.6392,2.4144 C1.7856,2.4444 1.8654,2.4162 1.9128,2.4 L1.9128,2.4 C1.9254,2.3952 3.3282,1.8408 3.363,1.8132 L3.363,1.8132 C3.5604,1.6626 3.42,1.3782 3.267,1.1652 L3.267,1.1652 C3.0336,0.8406 2.4288,0.2844 1.9608,0.2844 L1.9608,0.2844 C1.9104,0.2844 1.8618,0.291 1.8156,0.3048" id="Fill-64" fill="url(#linearGradient-66)" mask="url(#mask-65)"></path>
                    </g>
                    <g id="Group-69" transform="translate(115.800000, 16.090800)">
                        <mask id="mask-68" fill="white">
                            <use xlink:href="#path-67"></use>
                        </mask>
                        <g id="Clip-68"></g>
                        <path d="M2.673,0.4182 C0.6618,1.2252 0.6618,1.2252 0.5604,1.4418 L0.5604,1.4418 C0.3294,1.9338 0.6534,3.1116 1.239,3.4764 L1.239,3.4764 C1.4628,3.6162 1.6434,3.5646 1.6458,3.564 L1.6458,3.564 C1.821,3.5112 3.726,2.7294 3.732,2.7246 L3.732,2.7246 C3.9702,2.574 4.0494,2.2236 3.9474,1.7634 L3.9474,1.7634 C3.8358,1.2624 3.399,0.393 2.8374,0.393 L2.8374,0.393 C2.7834,0.393 2.7288,0.4008 2.673,0.4182" id="Fill-67" fill="url(#linearGradient-69)" mask="url(#mask-68)"></path>
                    </g>
                    <g id="Group-72" transform="translate(127.800000, 22.690800)">
                        <mask id="mask-71" fill="white">
                            <use xlink:href="#path-70"></use>
                        </mask>
                        <g id="Clip-71"></g>
                        <path d="M2.6946,0.3438 C1.9878,0.6276 1.2666,0.8796 0.5718,1.1952 L0.5718,1.1952 C-0.3018,1.5918 0.7056,3.5412 1.5408,3.879 L1.5408,3.879 C1.7904,3.9804 1.9548,3.927 2.0436,3.8976 L2.0436,3.8976 C2.0616,3.8922 4.2726,3.0138 4.3416,2.9664 L4.3416,2.9664 C4.7028,2.718 4.5696,2.175 4.4592,1.8732 L4.4592,1.8732 C4.2492,1.302 3.585,0.3144 2.8974,0.3138 L2.8974,0.3138 C2.8296,0.3138 2.7624,0.3234 2.6946,0.3438" id="Fill-70" fill="url(#linearGradient-72)" mask="url(#mask-71)"></path>
                    </g>
                    <g id="Group-75" transform="translate(151.200000, 26.890800)">
                        <mask id="mask-74" fill="white">
                            <use xlink:href="#path-73"></use>
                        </mask>
                        <g id="Clip-74"></g>
                        <path d="M2.8338,0.1356 C0.4872,1.0722 0.4872,1.0722 0.4458,1.0998 L0.4458,1.0998 C-0.3024,1.5966 1.3032,3.723 2.3304,3.9666 L2.3304,3.9666 C2.5734,4.0236 2.7078,3.9774 2.7888,3.9486 L2.7888,3.9486 C2.8104,3.9414 5.1978,2.9994 5.2596,2.9514 L5.2596,2.9514 C5.6022,2.688 5.4066,2.1684 5.1828,1.779 L5.1828,1.779 C4.8288,1.1652 3.867,0.1032 3.066,0.1032 L3.066,0.1032 C2.9868,0.1032 2.9094,0.1134 2.8338,0.1356" id="Fill-73" fill="url(#linearGradient-75)" mask="url(#mask-74)"></path>
                    </g>
                    <g id="Group-78" transform="translate(183.000000, 29.290800)">
                        <mask id="mask-77" fill="white">
                            <use xlink:href="#path-76"></use>
                        </mask>
                        <g id="Clip-77"></g>
                        <path d="M2.835,0.2496 C0.5964,1.1718 0.5964,1.1718 0.5682,1.1934 L0.5682,1.1934 C-0.0654,1.6656 2.0994,4.0884 3.2958,4.2426 L3.2958,4.2426 C3.7368,4.2996 5.9508,3.2532 5.9634,3.2406 L5.9634,3.2406 C6.1932,3.0216 6.0798,2.6118 5.625,2.022 L5.625,2.022 C5.1204,1.3674 3.8742,0.2214 3.0456,0.2214 L3.0456,0.2214 C2.9718,0.2214 2.9016,0.2304 2.835,0.2496" id="Fill-76" fill="url(#linearGradient-78)" mask="url(#mask-77)"></path>
                    </g>
                    <g id="Group-81" transform="translate(185.400000, 44.890800)">
                        <mask id="mask-80" fill="white">
                            <use xlink:href="#path-79"></use>
                        </mask>
                        <g id="Clip-80"></g>
                        <path d="M3.4458,0.4656 C0.7524,1.5534 0.7524,1.5534 0.7146,1.5786 L0.7146,1.5786 C-0.1308,2.1624 1.8318,4.7796 3.036,5.1 L3.036,5.1 C3.3198,5.1756 3.4734,5.1222 3.5646,5.0904 L3.5646,5.0904 C3.5898,5.0826 6.2718,4.0158 6.3462,3.9558 L6.3462,3.9558 C6.7254,3.6492 6.4812,3.0138 6.2088,2.5344 L6.2088,2.5344 C5.775,1.7706 4.6104,0.4326 3.6858,0.4326 L3.6858,0.4326 C3.6036,0.4326 3.5232,0.4434 3.4458,0.4656" id="Fill-79" fill="url(#linearGradient-81)" mask="url(#mask-80)"></path>
                    </g>
                    <g id="Group-84" transform="translate(141.600000, 80.890800)">
                        <mask id="mask-83" fill="white">
                            <use xlink:href="#path-82"></use>
                        </mask>
                        <g id="Clip-83"></g>
                        <path d="M4.3056,0.2046 C0.7698,1.6422 0.7698,1.6422 0.6102,2.0382 L0.6102,2.0382 C0.267,2.8872 1.0152,5.0316 2.091,5.6916 L2.091,5.6916 C2.499,5.943 2.8074,5.8548 2.8104,5.8536 L2.8104,5.8536 C3.1116,5.7636 6.3456,4.4154 6.3558,4.4088 L6.3558,4.4088 C6.7578,4.1448 6.8712,3.5178 6.666,2.6892 L6.666,2.6892 C6.438,1.7682 5.5986,0.162 4.5888,0.162 L4.5888,0.162 C4.4958,0.162 4.4016,0.1758 4.3056,0.2046" id="Fill-82" fill="url(#linearGradient-84)" mask="url(#mask-83)"></path>
                    </g>
                    <g id="Group-87" transform="translate(166.800000, 90.490800)">
                        <mask id="mask-86" fill="white">
                            <use xlink:href="#path-85"></use>
                        </mask>
                        <g id="Clip-86"></g>
                        <path d="M4.2414,0.2748 C0.594,1.7502 0.594,1.7502 0.4416,2.1618 L0.4416,2.1618 C0.1176,3.0438 0.9882,5.286 2.1414,5.9832 L2.1414,5.9832 C2.5788,6.2478 2.8974,6.1584 2.8998,6.1578 L2.8998,6.1578 C3.2106,6.066 6.534,4.6872 6.5448,4.6806 L6.5448,4.6806 C6.9558,4.4076 7.0524,3.7542 6.8088,2.8878 L6.8088,2.8878 C6.537,1.9212 5.5956,0.2322 4.5312,0.2322 L4.5312,0.2322 C4.4358,0.2322 4.3386,0.246 4.2414,0.2748" id="Fill-85" fill="url(#linearGradient-87)" mask="url(#mask-86)"></path>
                    </g>
                    <g id="Group-90" transform="translate(198.000000, 98.890800)">
                        <mask id="mask-89" fill="white">
                            <use xlink:href="#path-88"></use>
                        </mask>
                        <g id="Clip-89"></g>
                        <path d="M3.9654,0.3138 C0.3042,1.7916 0.3042,1.7916 0.1758,2.2092 L0.1758,2.2092 C-0.1602,3.3 1.0068,5.7366 2.127,6.2838 L2.127,6.2838 C2.5038,6.468 2.7528,6.3882 2.886,6.3456 L2.886,6.3456 C2.913,6.3366 6.264,4.9956 6.3702,4.9194 L6.3702,4.9194 C6.9216,4.5222 6.7518,3.5874 6.6012,3.066 L6.6012,3.066 C6.3084,2.0538 5.322,0.2736 4.2426,0.2736 L4.2426,0.2736 C4.1508,0.2736 4.0584,0.2862 3.9654,0.3138" id="Fill-88" fill="url(#linearGradient-90)" mask="url(#mask-89)"></path>
                    </g>
                    <g id="Group-93" transform="translate(226.800000, 109.090800)">
                        <mask id="mask-92" fill="white">
                            <use xlink:href="#path-91"></use>
                        </mask>
                        <g id="Clip-92"></g>
                        <path d="M4.02,0.0972 C0.6864,1.4934 0.6864,1.4934 0.5748,1.9164 L0.5748,1.9164 C0.2784,3.0294 1.368,5.589 2.3958,6.195 L2.3958,6.195 C2.7432,6.399 2.9688,6.3258 3.09,6.2868 L3.09,6.2868 C3.1152,6.279 6.1434,5.0226 6.2394,4.9482 L6.2394,4.9482 C6.732,4.563 6.5694,3.5904 6.4284,3.0456 L6.4284,3.0456 C6.15,1.9758 5.2242,0.066 4.2354,0.066 L4.2354,0.066 C4.164,0.066 4.092,0.0762 4.02,0.0972" id="Fill-91" fill="url(#linearGradient-93)" mask="url(#mask-92)"></path>
                    </g>
                    <g id="Group-96" transform="translate(219.600000, 134.290800)">
                        <mask id="mask-95" fill="white">
                            <use xlink:href="#path-94"></use>
                        </mask>
                        <g id="Clip-95"></g>
                        <path d="M3.9588,0.3114 C0.3216,1.803 0.3216,1.803 0.1494,2.2476 L0.1494,2.2476 C-0.2214,3.201 0.4824,5.6916 1.5576,6.4998 L1.5576,6.4998 C1.962,6.804 2.2734,6.7188 2.2776,6.7176 L2.2776,6.7176 C2.5794,6.63 5.8512,5.262 5.8632,5.2542 L5.8632,5.2542 C6.2724,4.9752 6.4098,4.2654 6.24,3.3066 L6.24,3.3066 C6.0462,2.214 5.2476,0.2754 4.2054,0.2754 L4.2054,0.2754 C4.1244,0.2754 4.0422,0.2868 3.9588,0.3114" id="Fill-94" fill="url(#linearGradient-96)" mask="url(#mask-95)"></path>
                    </g>
                    <g id="Group-99" transform="translate(213.000000, 158.290800)">
                        <mask id="mask-98" fill="white">
                            <use xlink:href="#path-97"></use>
                        </mask>
                        <g id="Clip-98"></g>
                        <path d="M4.143,0.5778 C0.4278,2.0724 0.4278,2.0724 0.2286,2.514 L0.2286,2.514 C-0.192,3.4452 0.3768,5.8626 1.4064,6.6402 L1.4064,6.6402 C1.7922,6.93 2.106,6.8436 2.1084,6.8424 L2.1084,6.8424 C2.4156,6.7536 5.7564,5.3814 5.7678,5.3748 L5.7678,5.3748 C6.1956,5.0946 6.3762,4.4016 6.2634,3.4704 L6.2634,3.4704 C6.1344,2.4096 5.4498,0.5388 4.4064,0.5388 L4.4064,0.5388 C4.3212,0.5388 4.233,0.5514 4.143,0.5778" id="Fill-97" fill="url(#linearGradient-99)" mask="url(#mask-98)"></path>
                    </g>
                    <g id="Group-102" transform="translate(250.800000, 163.690800)">
                        <mask id="mask-101" fill="white">
                            <use xlink:href="#path-100"></use>
                        </mask>
                        <g id="Clip-101"></g>
                        <path d="M3.684,0.5988 C0.648,1.8738 0.648,1.8738 0.4722,2.2854 L0.4722,2.2854 C0.0156,3.363 0.4368,5.8884 1.1772,6.5082 L1.1772,6.5082 C1.4232,6.7146 1.6224,6.6504 1.7298,6.6162 L1.7298,6.6162 C1.7514,6.609 4.4796,5.4822 4.5714,5.4132 L4.5714,5.4132 C5.0178,5.079 5.1012,4.239 5.1048,3.693 L5.1048,3.693 L5.1048,3.618 C5.1048,3.6012 5.1048,3.5844 5.1042,3.5682 L5.1042,3.5682 C5.0874,2.5002 4.6914,0.5736 3.8526,0.5736 L3.8526,0.5736 C3.7986,0.5736 3.7422,0.582 3.684,0.5988" id="Fill-100" fill="url(#linearGradient-102)" mask="url(#mask-101)"></path>
                    </g>
                    <g id="Group-105" transform="translate(241.200000, 187.090800)">
                        <mask id="mask-104" fill="white">
                            <use xlink:href="#path-103"></use>
                        </mask>
                        <g id="Clip-104"></g>
                        <path d="M3.7626,0.6054 C0.6288,1.881 0.6288,1.881 0.4128,2.2836 L0.4128,2.2836 C-0.045,3.1434 0.072,5.4372 0.7764,6.2046 L0.7764,6.2046 C1.0386,6.492 1.2954,6.4218 1.2978,6.4218 L1.2978,6.4218 C1.5492,6.3498 4.3404,5.1906 4.3494,5.184 L4.3494,5.184 C4.7202,4.9392 4.9584,4.293 5.0034,3.4122 L5.0034,3.4122 C5.0562,2.397 4.7838,0.5778 3.9468,0.5778 L3.9468,0.5778 C3.888,0.5778 3.8268,0.5868 3.7626,0.6054" id="Fill-103" fill="url(#linearGradient-105)" mask="url(#mask-104)"></path>
                    </g>
                    <g id="Group-108" transform="translate(214.800000, 215.890800)">
                        <mask id="mask-107" fill="white">
                            <use xlink:href="#path-106"></use>
                        </mask>
                        <g id="Clip-107"></g>
                        <path d="M4.095,0.2052 C0.8694,1.4844 0.8694,1.4844 0.7164,1.737 L0.7164,1.737 C0.1038,2.7546 0.4704,4.6854 1.0176,5.3124 L1.0176,5.3124 C1.3056,5.643 1.5786,5.6028 1.656,5.5818 L1.656,5.5818 C1.8486,5.5338 4.7868,4.3452 4.8,4.338 L4.8,4.338 C5.1768,4.116 5.421,3.504 5.4522,2.7036 L5.4522,2.7036 C5.487,1.788 5.1726,0.1722 4.3146,0.1722 L4.3146,0.1722 C4.245,0.1722 4.1718,0.1824 4.095,0.2052" id="Fill-106" fill="url(#linearGradient-108)" mask="url(#mask-107)"></path>
                    </g>
                    <g id="Group-111" transform="translate(205.200000, 236.290800)">
                        <mask id="mask-110" fill="white">
                            <use xlink:href="#path-109"></use>
                        </mask>
                        <g id="Clip-110"></g>
                        <path d="M3.8466,0.1092 C0.9144,1.278 0.9144,1.278 0.7752,1.509 L0.7752,1.509 C0.2214,2.4258 0.5604,4.161 1.0584,4.7226 L1.0584,4.7226 C1.32,5.0178 1.5672,4.9818 1.6356,4.9632 L1.6356,4.9632 C1.8096,4.9164 4.4628,3.8376 4.4742,3.8304 L4.4742,3.8304 C4.8168,3.6282 5.0388,3.0774 5.0682,2.358 L5.0682,2.358 C5.1036,1.5324 4.8264,0.078 4.0506,0.078 L4.0506,0.078 C3.9858,0.078 3.918,0.0876 3.8466,0.1092" id="Fill-109" fill="url(#linearGradient-111)" mask="url(#mask-110)"></path>
                    </g>
                    <g id="Group-114" transform="translate(201.000000, 252.490800)">
                        <mask id="mask-113" fill="white">
                            <use xlink:href="#path-112"></use>
                        </mask>
                        <g id="Clip-113"></g>
                        <path d="M3.1596,0.4956 C0.5832,1.5288 0.5832,1.5288 0.4584,1.7334 L0.4584,1.7334 C-0.0324,2.5392 0.2484,4.0692 0.6768,4.5666 L0.6768,4.5666 C0.9012,4.8264 1.1142,4.7946 1.1748,4.7778 L1.1748,4.7778 C1.3254,4.7394 3.6402,3.789 3.6498,3.7848 L3.6498,3.7848 C3.9492,3.6066 4.1514,3.123 4.191,2.4864 L4.191,2.4864 C4.236,1.7556 4.0182,0.4674 3.339,0.4674 L3.339,0.4674 C3.2826,0.4674 3.2226,0.4764 3.1596,0.4956" id="Fill-112" fill="url(#linearGradient-114)" mask="url(#mask-113)"></path>
                    </g>
                    <g id="Group-117" transform="translate(210.600000, 261.490800)">
                        <mask id="mask-116" fill="white">
                            <use xlink:href="#path-115"></use>
                        </mask>
                        <g id="Clip-116"></g>
                        <path d="M3.2208,0.3354 C0.948,1.2354 0.948,1.2354 0.8094,1.4214 L0.8094,1.4214 C0.267,2.148 0.207,3.5646 0.4596,4.0344 L0.4596,4.0344 C0.5892,4.278 0.765,4.2534 0.8166,4.2402 L0.8166,4.2402 C0.9438,4.2072 2.9742,3.3876 2.9838,3.381 L2.9838,3.381 C3.2586,3.2244 3.5166,2.7804 3.6714,2.1978 L3.6714,2.1978 C3.8526,1.5192 3.927,0.3132 3.3624,0.3132 L3.3624,0.3132 C3.3186,0.3132 3.2718,0.3198 3.2208,0.3354" id="Fill-115" fill="url(#linearGradient-117)" mask="url(#mask-116)"></path>
                    </g>
                    <g id="Group-120" transform="translate(204.000000, 274.690800)">
                        <mask id="mask-119" fill="white">
                            <use xlink:href="#path-118"></use>
                        </mask>
                        <g id="Clip-119"></g>
                        <path d="M2.589,0.5748 C0.7554,1.3068 0.7554,1.3068 0.6372,1.4604 L0.6372,1.4604 C0.1986,2.028 0.084,3.2058 0.2616,3.594 L0.2616,3.594 C0.3522,3.7914 0.4896,3.7728 0.5298,3.762 L0.5298,3.762 C0.6306,3.7356 2.2452,3.0774 2.253,3.0726 L2.253,3.0726 C2.4768,2.946 2.7,2.5842 2.8518,2.1078 L2.8518,2.1078 C3.0414,1.5132 3.1302,0.5574 2.6976,0.5574 L2.6976,0.5574 C2.6646,0.5574 2.628,0.5628 2.589,0.5748" id="Fill-118" fill="url(#linearGradient-120)" mask="url(#mask-119)"></path>
                    </g>
                </g>
            </g>
        </g>
    </g>
</svg>