<?xml version="1.0" encoding="UTF-8"?>
<svg width="100px" height="100px" viewBox="0 0 100 100" version="1.1" xmlns="http://www.w3.org/2000/svg" xmlns:xlink="http://www.w3.org/1999/xlink">
    <!-- Generator: Sketch 59 (86127) - https://sketch.com -->
    <title>icon/AI Factory</title>
    <desc>Created with Sketch.</desc>
    <g id="icon/AI-Factory" stroke="none" stroke-width="1" fill="none" fill-rule="evenodd">
        <path d="M86,30 L86,84 L4,84 L4,30 L86,30 Z M45.5,62 L37,79 L54,79 L45.5,62 Z M24.5,38 C18.1490579,38 13,43.1486603 13,49.5 C13,55.8517373 18.1490579,61 24.5,61 C30.8513397,61 36,55.8517373 36,49.5 C36,43.1486603 30.8513397,38 24.5,38 Z M65.5,38 C59.1490579,38 54,43.1486603 54,49.5 C54,55.8517373 59.1490579,61 65.5,61 C71.8513397,61 77,55.8517373 77,49.5 C77,43.1486603 71.8513397,38 65.5,38 Z" id="Combined-Shape" fill="#0B6DD7"></path>
        <polygon id="Fill-2" fill="#F2800B" style="mix-blend-mode: multiply;" points="77 84 96 84 96 14 77 14"></polygon>
    </g>
</svg>