<?xml version="1.0" encoding="UTF-8"?>
<svg width="100px" height="100px" viewBox="0 0 100 100" version="1.1" xmlns="http://www.w3.org/2000/svg" xmlns:xlink="http://www.w3.org/1999/xlink">
    <!-- Generator: Sketch 59 (86127) - https://sketch.com -->
    <title>icon/ai-load</title>
    <desc>Created with Sketch.</desc>
    <g id="icon/ai-load" stroke="none" stroke-width="1" fill="none" fill-rule="evenodd">
        <path d="M66.0102623,58.487718 C75.1302474,67.3293054 75.3551265,81.8909489 66.5115984,91.0100286 C57.6701334,100.13014 43.1086913,100.355022 33.9897377,91.5124033 C24.8697526,82.6697843 24.6448735,68.1081408 33.4884016,58.9890611 C42.3308982,49.8699814 56.8913087,49.6450991 66.0102623,58.487718" id="Fill-1-Copy" fill="#F2800B"></path>
        <path d="M66.0102623,7.48771802 C75.1302474,16.3293054 75.3551265,30.8909489 66.5115984,40.0100286 C57.6701334,49.1301399 43.1086913,49.3550222 33.9897377,40.5124033 C24.8697526,31.6697843 24.6448735,17.1081408 33.4884016,7.98906109 C42.3308982,-1.13001862 56.8913087,-1.3549009 66.0102623,7.48771802" id="Fill-1-Copy-2" fill="#0B6DD7"></path>
        <path d="M76.9382034,58.2711508 C72.6472792,60.1699081 67.6289437,58.2310362 65.7288492,53.9387748 C63.8300919,49.6465135 65.7689638,44.628178 70.0612252,42.7294207 C74.3534865,40.8293262 79.371822,42.7695353 81.2705793,47.0617966 C83.1706738,51.3527208 81.2304647,56.3710563 76.9382034,58.2711508" id="Fill-7" fill="#0B6DD7"></path>
        <path d="M20.0613953,58.2711508 C24.3524637,60.1699081 29.3723051,58.2310362 31.2711263,53.9387748 C33.1699475,49.6465135 31.2310103,44.628178 26.9386047,42.7294207 C22.6461991,40.8293262 17.6276949,42.7695353 15.7288737,47.0617966 C13.8300525,51.3527208 15.7689897,56.3710563 20.0613953,58.2711508" id="Fill-11" fill="#0B6DD7"></path>
    </g>
</svg>