<?xml version="1.0" encoding="UTF-8"?>
<svg width="100px" height="100px" viewBox="0 0 100 100" version="1.1" xmlns="http://www.w3.org/2000/svg" xmlns:xlink="http://www.w3.org/1999/xlink">
    <!-- Generator: Sketch 59 (86127) - https://sketch.com -->
    <title>icon/AI Transformation Program</title>
    <desc>Created with Sketch.</desc>
    <g id="icon/AI-Transformation-Program" stroke="none" stroke-width="1" fill="none" fill-rule="evenodd">
        <path d="M91,23 L91,77 L8,77 L8,23 L91,23 Z M50,55 L42,71 L58,71 L50,55 Z" id="Combined-Shape" fill="#0B6DD7"></path>
        <path d="M29.5,54 C23.1490579,54 18,49.0755748 18,43 C18,36.9248055 23.1490579,32 29.5,32 C35.8513397,32 41,36.9248055 41,43 C41,49.0755748 35.8513397,54 29.5,54 Z" id="Fill-4" fill="#F2800B"></path>
        <path d="M69.5,54 C63.1490579,54 58,49.0755748 58,43 C58,36.9248055 63.1490579,32 69.5,32 C75.8513397,32 81,36.9248055 81,43 C81,49.0755748 75.8513397,54 69.5,54 Z" id="Fill-4" fill="#F2800B"></path>
    </g>
</svg>