<?xml version="1.0" encoding="UTF-8"?>
<svg width="100px" height="100px" viewBox="0 0 100 100" version="1.1" xmlns="http://www.w3.org/2000/svg" xmlns:xlink="http://www.w3.org/1999/xlink">
    <!-- Generator: Sketch 59 (86127) - https://sketch.com -->
    <title>icon/api-facade</title>
    <desc>Created with Sketch.</desc>
    <g id="icon/api-facade" stroke="none" stroke-width="1" fill="none" fill-rule="evenodd">
        <g id="Group-52" transform="translate(3.000000, 2.500000)">
            <path d="M59,47.4993883 C59,53.8509654 53.8512392,59 47.5,59 C41.1487608,59 36,53.8509654 36,47.4993883 C36,41.1490346 41.1487608,36 47.5,36 C53.8512392,36 59,41.1490346 59,47.4993883" id="Fill-1" fill="#0B6DD7"></path>
            <line x1="46.5" y1="7.5" x2="46.5" y2="17.5" id="Fill-6" fill="#2266B1"></line>
            <path d="M89,52 C86.2380504,52 84,49.7619496 84,47 C84,44.2380504 86.2380504,42 89,42 C91.7619496,42 94,44.2380504 94,47 C94,49.7619496 91.7619496,52 89,52" id="Fill-10" fill="#0B6DD7"></path>
            <line x1="86" y1="47" x2="76" y2="47" id="Fill-12" fill="#2266B1"></line>
            <path d="M86.9928101,49 L77.0083883,49 C75.8987418,49 75,48.1059385 75,46.9994032 C75,45.8940615 75.8987418,45 77.0083883,45 L86.9928101,45 C88.1024566,45 89,45.8940615 89,46.9994032 C89,48.1059385 88.1024566,49 86.9928101,49" id="Fill-14" fill="#0B6DD7"></path>
            <path d="M66.4639746,74.0360254 C64.5120085,72.082882 64.5120085,68.9159407 66.4639746,66.9639746 C68.417118,65.0120085 71.5840593,65.0120085 73.5360254,66.9639746 C75.4879915,68.9159407 75.4879915,72.082882 73.5360254,74.0360254 C71.5840593,75.9879915 68.417118,75.9879915 66.4639746,74.0360254" id="Fill-16" fill="#F2800B"></path>
            <line x1="66" y1="66.5" x2="59" y2="59.5" id="Fill-18" fill="#231916"></line>
            <path d="M68.005573,70.5 C67.494914,70.5 66.9854453,70.3047936 66.5950114,69.9155711 L59.5838654,62.9036141 C58.8053782,62.1251691 58.8053782,60.8622789 59.5838654,60.0838338 C60.3623526,59.3053887 61.6253111,59.3053887 62.4037983,60.0838338 L69.4161346,67.0957907 C70.1946218,67.8742358 70.1946218,69.1359357 69.4161346,69.9155711 C69.0257007,70.3047936 68.516232,70.5 68.005573,70.5" id="Fill-20" fill="#F2800B"></path>
            <path d="M21.4647713,66.9639746 C23.4177998,65.0120085 26.5833775,65.0120085 28.5352287,66.9639746 C30.4882571,68.917118 30.4882571,72.082882 28.5352287,74.0360254 C26.5833775,75.9879915 23.4177998,75.9879915 21.4647713,74.0360254 C19.5117429,72.082882 19.5117429,68.917118 21.4647713,66.9639746" id="Fill-22" fill="#F2800B"></path>
            <line x1="27" y1="66.5" x2="34" y2="59.5" id="Fill-24" fill="#231916"></line>
            <path d="M26.994427,70.5 C26.483768,70.5 25.9742993,70.3047936 25.5838654,69.9155711 C24.8053782,69.1359357 24.8053782,67.8742358 25.5838654,67.0957907 L32.5962017,60.0838338 C33.3746889,59.3053887 34.6364571,59.3053887 35.4161346,60.0838338 C36.1946218,60.8634691 36.1946218,62.1251691 35.4161346,62.9048044 L28.4049886,69.9155711 C28.0145547,70.3047936 27.505086,70.5 26.994427,70.5" id="Fill-26" fill="#F2800B"></path>
            <path d="M28.5359823,20.9647713 C30.4880059,22.9166225 30.4880059,26.0833775 28.5359823,28.0352287 C26.5827815,29.9882571 23.4169242,29.9882571 21.4649007,28.0352287 C19.5116998,26.0833775 19.5116998,22.9166225 21.4649007,20.9647713 C23.4169242,19.0117429 26.5827815,19.0117429 28.5359823,20.9647713" id="Fill-28" fill="#F2800B"></path>
            <line x1="27" y1="27.5" x2="34" y2="34.5" id="Fill-30" fill="#231916"></line>
            <path d="M34.0060045,35.5 C33.495456,35.5 32.9860976,35.3059629 32.5957481,34.9166982 L25.583739,27.9039825 C24.8054203,27.1254532 24.8054203,25.8624263 25.583739,25.083897 C26.3632479,24.3053677 27.624743,24.3053677 28.4030618,25.083897 L35.416261,32.0966127 C36.1945797,32.875142 36.1945797,34.1369785 35.416261,34.9166982 C35.0259115,35.3059629 34.5165531,35.5 34.0060045,35.5" id="Fill-32" fill="#F2800B"></path>
            <path d="M73.5360254,28.0359823 C71.582882,29.9880059 68.417118,29.9880059 66.4639746,28.0359823 C64.5120085,26.0839588 64.5120085,22.9169242 66.4639746,20.9649007 C68.417118,19.0116998 71.582882,19.0116998 73.5360254,20.9649007 C75.4879915,22.9169242 75.4879915,26.0839588 73.5360254,28.0359823" id="Fill-34" fill="#F2800B"></path>
            <line x1="66" y1="27.5" x2="59" y2="34.5" id="Fill-36" fill="#231916"></line>
            <path d="M60.994427,35.5 C60.483768,35.5 59.9742993,35.3047936 59.5838654,34.9155711 C58.8053782,34.1359357 58.8053782,32.8742358 59.5838654,32.0957907 L66.5962017,25.0838338 C67.3746889,24.3053887 68.6376474,24.3053887 69.4161346,25.0838338 C70.1946218,25.8634691 70.1946218,27.1251691 69.4161346,27.9036141 L62.4049886,34.9155711 C62.0145547,35.3047936 61.505086,35.5 60.994427,35.5" id="Fill-38" fill="#F2800B"></path>
            <line x1="46.5" y1="86.5" x2="46.5" y2="76.5" id="Fill-42" fill="#2266B1"></line>
            <path d="M5,42 C7.76194961,42 10,44.2380504 10,47 C10,49.7619496 7.76194961,52 5,52 C2.23805039,52 0,49.7619496 0,47 C0,44.2380504 2.23805039,42 5,42" id="Fill-46" fill="#0B6DD7"></path>
            <line x1="7" y1="47" x2="17" y2="47" id="Fill-48" fill="#2266B1"></line>
            <path d="M16.9912679,49 L7.0075336,49 C5.89769711,49 5,48.1059385 5,47.0005968 C5,45.8940615 5.89769711,45 7.0075336,45 L16.9912679,45 C18.1011044,45 19,45.8940615 19,47.0005968 C19,48.1059385 18.1011044,49 16.9912679,49" id="Fill-50" fill="#0B6DD7"></path>
            <path d="M52.3827778,5.5964 C52.3827778,8.4116 50.0581111,10.6928 47.1907778,10.6928 C44.3246667,10.6928 42,8.4116 42,5.5964 C42,2.7812 44.3246667,0.5 47.1907778,0.5 C50.0581111,0.5 52.3827778,2.7812 52.3827778,5.5964" id="Fill-3" fill="#0B6DD7"></path>
            <path d="M46.9513698,19.30972 C45.8460281,19.30972 44.9519667,18.4109782 44.9519667,17.3013317 L44.9519667,7.31690993 C44.9519667,6.20726344 45.8460281,5.30972 46.9513698,5.30972 C48.0567115,5.30972 48.9519667,6.20726344 48.9519667,7.31690993 L48.9519667,17.3013317 C48.9519667,18.4109782 48.0567115,19.30972 46.9513698,19.30972" id="Fill-8" fill="#0B6DD7"></path>
            <path d="M42,89.5 C42,86.7380504 44.2380504,84.5 47,84.5 C49.7619496,84.5 52,86.7380504 52,89.5 C52,92.2619496 49.7619496,94.5 47,94.5 C44.2380504,94.5 42,92.2619496 42,89.5" id="Fill-40" fill="#0B6DD7"></path>
            <path d="M47.0005968,89.5 C45.8952551,89.5 45,88.6024566 45,87.4928101 L45,77.5083883 C45,76.3987418 45.8952551,75.5 47.0005968,75.5 C48.1059385,75.5 49,76.3987418 49,77.5083883 L49,87.4928101 C49,88.6024566 48.1059385,89.5 47.0005968,89.5" id="Fill-44" fill="#0B6DD7"></path>
        </g>
    </g>
</svg>