<?xml version="1.0" encoding="UTF-8"?>
<svg width="100px" height="100px" viewBox="0 0 100 100" version="1.1" xmlns="http://www.w3.org/2000/svg" xmlns:xlink="http://www.w3.org/1999/xlink">
    <!-- Generator: Sketch 59 (86127) - https://sketch.com -->
    <title>icon/bulid</title>
    <desc>Created with Sketch.</desc>
    <g id="icon/bulid" stroke="none" stroke-width="1" fill="none" fill-rule="evenodd">
        <polygon id="Fill-5" fill="#0B6DD7" style="mix-blend-mode: multiply;" points="18 91 82 91 82 11 18 11"></polygon>
        <g id="Group" transform="translate(31.000000, 25.000000)" stroke="#F2800B" stroke-linecap="round" stroke-linejoin="round" stroke-width="4.8">
            <line x1="0" y1="11.5" x2="2" y2="11.5" id="Stroke-6-Copy-4"></line>
            <line x1="12" y1="11.5" x2="14" y2="11.5" id="Stroke-6-Copy-5"></line>
            <line x1="24" y1="11.5" x2="26" y2="11.5" id="Stroke-6-Copy-6"></line>
            <line x1="36" y1="11.5" x2="38" y2="11.5" id="Stroke-6-Copy-7"></line>
            <line x1="0" y1="20.5" x2="2" y2="20.5" id="Stroke-6-Copy-8"></line>
            <line x1="12" y1="20.5" x2="14" y2="20.5" id="Stroke-6-Copy-9"></line>
            <line x1="24" y1="20.5" x2="26" y2="20.5" id="Stroke-6-Copy-10"></line>
            <line x1="36" y1="20.5" x2="38" y2="20.5" id="Stroke-6-Copy-11"></line>
            <line x1="0" y1="30.5" x2="2" y2="30.5" id="Stroke-6-Copy-15"></line>
            <line x1="12" y1="30.5" x2="14" y2="30.5" id="Stroke-6-Copy-14"></line>
            <line x1="24" y1="30.5" x2="26" y2="30.5" id="Stroke-6-Copy-13"></line>
            <line x1="36" y1="30.5" x2="38" y2="30.5" id="Stroke-6-Copy-12"></line>
            <line x1="0" y1="39.5" x2="2" y2="39.5" id="Stroke-6-Copy-19"></line>
            <line x1="12" y1="39.5" x2="14" y2="39.5" id="Stroke-6-Copy-18"></line>
            <line x1="24" y1="39.5" x2="26" y2="39.5" id="Stroke-6-Copy-17"></line>
            <line x1="36" y1="39.5" x2="38" y2="39.5" id="Stroke-6-Copy-16"></line>
            <line x1="0" y1="49.5" x2="2" y2="49.5" id="Stroke-6-Copy-23"></line>
            <line x1="12" y1="49.5" x2="14" y2="49.5" id="Stroke-6-Copy-22"></line>
            <line x1="24" y1="49" x2="38" y2="49" id="Stroke-6-Copy-20"></line>
            <line x1="0" y1="1" x2="26" y2="1" id="Stroke-6-Copy-3"></line>
            <line x1="36" y1="1.5" x2="38" y2="1.5" id="Stroke-6-Copy-3"></line>
        </g>
    </g>
</svg>