<?xml version="1.0" encoding="UTF-8"?>
<svg width="100px" height="100px" viewBox="0 0 100 100" version="1.1" xmlns="http://www.w3.org/2000/svg" xmlns:xlink="http://www.w3.org/1999/xlink">
    <!-- Generator: Sketch 59 (86127) - https://sketch.com -->
    <title>icon/cloud-security</title>
    <desc>Created with Sketch.</desc>
    <g id="icon/cloud-security" stroke="none" stroke-width="1" fill="none" fill-rule="evenodd">
        <path d="M65.4025365,32.2943709 C65.0999866,32.2943709 64.7985531,32.3068779 64.4982361,32.3182479 C61.185817,25.0312209 54.2550797,20 46.2168535,20 C34.9678024,20 25.8477649,29.8282199 25.8477649,41.950904 C25.8477649,42.2317428 25.8779083,42.5057596 25.8868396,42.7854613 C18.4325012,45.2038583 13,52.6523392 13,61.475452 C13,72.2576142 21.1107936,81 31.1172688,81 L65.4025365,81 C77.8829992,81 88,70.0961789 88,56.646617 C88,43.198192 77.8829992,32.2943709 65.4025365,32.2943709" id="Fill-1" fill="#0B6DD7"></path>
        <path d="M68.4804709,24.1427434 C63.2881403,15.6240613 54.9560279,12 45.4173328,12 C32.0684589,12 20.1520526,23.6471631 18.5075528,37.1344743 C18.5075528,37.4734898 18.5433229,37.8042701 18.5539215,38.1419131 C9.70810659,41.0612895 6,51.4163857 6,62.0672371 C6,75.082962 15.6248083,87 27.499159,87 L68.1843433,87 C82.9944923,87 95,72.4737779 95,56.238092 C95,40.0037787 84.0461538,26.264767 69.5535741,24.1139202 C69.1945482,24.1139202 68.8368471,24.129018 68.4804709,24.1427434 Z" id="Fill-1" stroke="#F2800B" stroke-width="4"></path>
    </g>
</svg>