<?xml version="1.0" encoding="UTF-8"?>
<svg width="100px" height="100px" viewBox="0 0 100 100" version="1.1" xmlns="http://www.w3.org/2000/svg" xmlns:xlink="http://www.w3.org/1999/xlink">
    <!-- Generator: Sketch 59 (86127) - https://sketch.com -->
    <title>icon/cloud professional service</title>
    <desc>Created with Sketch.</desc>
    <g id="icon/cloud-professional-service" stroke="none" stroke-width="1" fill="none" fill-rule="evenodd">
        <path d="M52.2106336,38.0850885 C51.9322877,38.0850885 51.6549689,38.0963653 51.3786772,38.106617 C48.3312516,31.5363467 41.9549733,27 34.5598052,27 C24.2106782,27 15.8202437,35.8615098 15.8202437,46.7917987 C15.8202437,47.045014 15.8479756,47.2920783 15.8561925,47.5442684 C8.99820113,49.7247903 4.0003,56.4406337 4.0003,64.3958993 C4.0003,74.117521 11.4622301,82 20.6681873,82 L52.2106336,82 C63.6926592,82 73.0003,72.1686859 73.0003,60.0420317 C73.0003,47.9164026 63.6926592,38.0850885 52.2106336,38.0850885" id="Fill-1" fill="#0B6DD7"></path>
        <path d="M68.5003,82 C52.2087529,82 39.0003,68.7935869 39.0003,52.5 C39.0003,36.207433 52.2087529,23 68.5003,23 C84.792867,23 98.0003,36.207433 98.0003,52.5 C98.0003,68.7935869 84.792867,82 68.5003,82 Z" id="Fill-4" fill="#F2800B" style="mix-blend-mode: multiply;"></path>
    </g>
</svg>