<?xml version="1.0" encoding="UTF-8"?>
<svg width="100px" height="100px" viewBox="0 0 100 100" version="1.1" xmlns="http://www.w3.org/2000/svg" xmlns:xlink="http://www.w3.org/1999/xlink">
    <!-- Generator: Sketch 59 (86127) - https://sketch.com -->
    <title>icon/cloud-migration</title>
    <desc>Created with Sketch.</desc>
    <g id="icon/cloud-migration" stroke="none" stroke-width="1" fill="none" fill-rule="evenodd">
        <path d="M54.703836,20.6897297 C54.4053201,20.6897297 54.1079057,20.7016216 53.8115929,20.7124324 C50.5433394,13.7837838 43.705012,9 35.7739621,9 C24.6748984,9 15.6764614,18.3448649 15.6764614,29.8713514 C15.6764614,30.1383784 15.7062028,30.3989189 15.7150151,30.6648649 C8.36006788,32.9643243 3,40.0464865 3,48.4356757 C3,58.6875676 11.0026496,67 20.8757052,67 L54.703836,67 C67.0178925,67 77,56.6324324 77,43.8443243 C77,31.0572973 67.0178925,20.6897297 54.703836,20.6897297" id="Fill-1" fill="#0B6DD7"></path>
        <path d="M76.9090341,44.6897297 C76.6266542,44.6897297 76.3453162,44.7016216 76.0650203,44.7124324 C72.9734292,37.7837838 66.5047411,33 59.0023966,33 C48.5032823,33 39.9912473,42.3448649 39.9912473,53.8713514 C39.9912473,54.1383784 40.0193811,54.3989189 40.027717,54.6648649 C33.0703345,56.9643243 28,64.0464865 28,72.4356757 C28,82.6875676 35.570074,91 44.9094509,91 L76.9090341,91 C88.5574659,91 98,80.6324324 98,67.8443243 C98,55.0572973 88.5574659,44.6897297 76.9090341,44.6897297" id="Fill-1" fill="#F2800B" style="mix-blend-mode: multiply;"></path>
    </g>
</svg>