<?xml version="1.0" encoding="UTF-8"?>
<svg width="100px" height="100px" viewBox="0 0 100 100" version="1.1" xmlns="http://www.w3.org/2000/svg" xmlns:xlink="http://www.w3.org/1999/xlink">
    <!-- Generator: Sketch 59 (86127) - https://sketch.com -->
    <title>icon/cloud-architecture</title>
    <desc>Created with Sketch.</desc>
    <g id="icon/cloud-architecture" stroke="none" stroke-width="1" fill="none" fill-rule="evenodd">
        <path d="M36.0001553,12.693849 L36,85 L25.9485405,85 C24.6022733,85 23.2830959,84.8803515 22.0004416,84.6507978 L22.0001834,25.7025046 C24.8980237,19.7422496 29.9000247,15.059932 36.0001553,12.693849 Z M45.0746811,11 C49.8079288,11 54.3183898,12.1188061 58.0009279,14.2973787 L58,85 L45,85 L45,11.001 Z M69.3765462,25.9144828 C73.1307054,25.9144828 76.7160343,26.6604503 80.0010041,28.0165769 L80.0010041,82.8978874 C76.7160343,84.2540325 73.1307054,85 69.3765462,85 L69.3765462,85 L67,85 L66.9978374,25.9339241 C67.7001941,25.9243317 68.8709378,25.9159531 69.2853091,25.9146565 Z M13.0000807,41.7659941 L13.0002241,80.8722807 C6.96181843,76.6053444 3,69.4370288 3,61.3144828 C3,53.1920334 6.96267791,46.0299016 13.0000807,41.7659941 Z M89.000608,33.9505801 C94.5411435,39.3380639 98,46.9807162 98,55.4565517 C98,63.9331038 94.5411435,71.5761005 89.000608,76.9637497 Z" id="Combined-Shape" fill="#0B6DD7"></path>
    </g>
</svg>