<?xml version="1.0" encoding="UTF-8"?>
<svg width="100px" height="100px" viewBox="0 0 100 100" version="1.1" xmlns="http://www.w3.org/2000/svg" xmlns:xlink="http://www.w3.org/1999/xlink">
    <!-- Generator: Sketch 59 (86127) - https://sketch.com -->
    <title>icon/cloud-native</title>
    <desc>Created with Sketch.</desc>
    <g id="icon/cloud-native" stroke="none" stroke-width="1" fill="none" fill-rule="evenodd">
        <g id="Group-13" transform="translate(7.000000, 7.500000)">
            <path d="M60.7865765,13.8062693 C60.4325033,13.8062693 60.0844313,13.8175745 59.7363592,13.8345324 C55.8955646,5.94347379 47.8539008,0.5 38.5339725,0.5 C25.481272,0.5 14.901083,11.1382323 14.901083,24.2579651 C14.901083,24.557554 14.9370904,24.8514902 14.9490929,25.1567318 C6.30130372,27.7738952 0,35.8288798 0,45.3818088 C0,57.0431655 9.40994689,66.5 21.0163482,66.5 L60.7865765,66.5 C75.2615714,66.5 87,54.7029805 87,40.1531346 C87,25.6032888 75.2615714,13.8062693 60.7865765,13.8062693" id="Fill-1" fill="#0B6DD7"></path>
            <path d="M49,79 C49,81.4852071 46.9852071,83.5 44.5,83.5 C42.0147929,83.5 40,81.4852071 40,79 C40,76.5147929 42.0147929,74.5 44.5,74.5 C46.9852071,74.5 49,76.5147929 49,79" id="Fill-3" fill="#F2800B"></path>
            <path d="M31,78.9977822 C31,81.4862001 28.9852071,83.5 26.5,83.5 C24.0147929,83.5 22,81.4862001 22,78.9977822 C22,76.5137999 24.0147929,74.5 26.5,74.5 C28.9852071,74.5 31,76.5137999 31,78.9977822" id="Fill-5" fill="#F2800B"></path>
            <path d="M66.9700974,79.5164962 C66.6861409,81.9880113 64.4544198,83.754013 61.9831103,83.4700329 C59.5162377,83.1860527 57.745946,80.9541459 58.0299026,78.487068 C58.3138591,76.015553 60.5455802,74.2495512 63.0168897,74.5290942 C65.4837623,74.8130744 67.254054,77.0449811 66.9700974,79.5164962" id="Fill-7" fill="#F2800B"></path>
            <path d="M85,79.0022178 C85,81.4862001 82.9852071,83.5 80.5,83.5 C78.0147929,83.5 76,81.4862001 76,79.0022178 C76,76.5137999 78.0147929,74.5 80.5,74.5 C82.9852071,74.5 85,76.5137999 85,79.0022178" id="Fill-9" fill="#F2800B"></path>
            <path d="M13,79 C13,81.4852071 10.9852071,83.5 8.5,83.5 C6.0147929,83.5 4,81.4852071 4,79 C4,76.5147929 6.0147929,74.5 8.5,74.5 C10.9852071,74.5 13,76.5147929 13,79" id="Fill-11" fill="#F2800B"></path>
        </g>
    </g>
</svg>