<?xml version="1.0" encoding="UTF-8"?>
<svg width="100px" height="100px" viewBox="0 0 100 100" version="1.1" xmlns="http://www.w3.org/2000/svg" xmlns:xlink="http://www.w3.org/1999/xlink">
    <!-- Generator: Sketch 59 (86127) - https://sketch.com -->
    <title>icon/Continuous-Integration-&amp;-Continuous-Delivery</title>
    <desc>Created with Sketch.</desc>
    <g id="icon/Continuous-Integration-&amp;-Continuous-Delivery" stroke="none" stroke-width="1" fill="none" fill-rule="evenodd">
        <path d="M77.0162209,23.5444279 C91.6612597,37.6036651 91.6612597,60.3963349 77.0162209,74.4555721 C62.3711822,88.5148093 38.6288178,88.5148093 23.9837791,74.4555721 C9.33874031,60.3963349 9.33874031,37.6036651 23.9837791,23.5444279 C38.6288178,9.4851907 62.3711822,9.4851907 77.0162209,23.5444279 Z M58.9626237,41.252652 C54.2886752,36.9737537 46.7113248,36.9737537 42.0373763,41.252652 C37.3634278,45.5315503 37.3634278,52.4684497 42.0373763,56.747348 C46.7113248,61.0262463 54.2886752,61.0262463 58.9626237,56.747348 C63.6365722,52.4684497 63.6365722,45.5315503 58.9626237,41.252652 Z" id="Combined-Shape" fill="#0B6DD7"></path>
        <path d="M18.1795905,80.9660743 C9.47038809,72.3538051 5.07719125,61.0903242 5,49.8033452 M18.1795905,18.0350097 C27.0241665,9.2888737 38.6337893,4.94441777 50.225321,5.00053675 M81.8189605,18.0350097 C90.5837827,26.7022796 94.9772965,38.0547323 95,49.4139879 M81.8189605,80.9660743 C73.0876942,89.6001616 61.6617746,93.9446282 50.2187379,94" id="Shape" stroke="#F2800B" stroke-width="6.3504" stroke-linecap="round" transform="translate(50.000000, 49.500000) rotate(-23.000000) translate(-50.000000, -49.500000) "></path>
    </g>
</svg>