<?xml version="1.0" encoding="UTF-8"?>
<svg width="100px" height="100px" viewBox="0 0 100 100" version="1.1" xmlns="http://www.w3.org/2000/svg" xmlns:xlink="http://www.w3.org/1999/xlink">
    <!-- Generator: Sketch 59 (86127) - https://sketch.com -->
    <title>icon/database-migration</title>
    <desc>Created with Sketch.</desc>
    <defs>
        <polygon id="path-1" points="0.978828687 0.123711918 6.72260147 0.123711918 6.72260147 5.86746988 0.978828687 5.86746988"></polygon>
        <polygon id="path-3" points="0.979609376 0.310180723 6.72338216 0.310180723 6.72338216 6.05325194 0.979609376 6.05325194"></polygon>
    </defs>
    <g id="icon/database-migration" stroke="none" stroke-width="1" fill="none" fill-rule="evenodd">
        <g id="Group-55" transform="translate(3.000000, 2.000000)">
            <path d="M54.9245419,55.9245419 C50.823931,60.0251527 44.176069,60.0251527 40.0754581,55.9245419 C35.9748473,51.823931 35.9748473,45.176069 40.0754581,41.0754581 C44.176069,36.9748473 50.823931,36.9748473 54.9245419,41.0754581 C59.0251527,45.176069 59.0251527,51.823931 54.9245419,55.9245419" id="Fill-1" fill="#0B6DD7"></path>
            <line x1="63.1118193" y1="48.4893735" x2="85.1449518" y2="48.4893735" id="Fill-6" fill="#BB1C85"></line>
            <g id="Group-12" transform="translate(43.493976, 89.967157)">
                <mask id="mask-2" fill="white">
                    <use xlink:href="#path-1"></use>
                </mask>
                <g id="Clip-11"></g>
            </g>
            <line x1="47.3453675" y1="64.2563976" x2="47.3453675" y2="86.2883855" id="Fill-13" fill="#BB1C85"></line>
            <path d="M5.99984366,48.0304947 C5.98310474,49.6879725 4.62725186,51.0165857 2.97009835,50.9998435 C1.31414047,50.9842972 -0.0154083813,49.6281789 0.000134905616,47.9707011 C0.01687383,46.3132232 1.37272671,44.9834142 3.02988022,45.0001564 C4.68703374,45.0157027 6.01658259,46.3730168 5.99984366,48.0304947" id="Fill-17" fill="#0B6DD7"></path>
            <path d="M11.0648193,50.1296386 C9.9236747,50.1296386 9,49.2059639 9,48.0648193 C9,46.9225301 9.9236747,46 11.0648193,46 L31.0979518,46 C32.2390964,46 33.1627711,46.9225301 33.1627711,48.0648193 C33.1627711,49.2059639 32.2390964,50.1296386 31.0979518,50.1296386 L11.0648193,50.1296386 Z" id="Fill-22" fill="#F2800B"></path>
            <path d="M93.9998437,48.0304947 C93.9831047,49.6879725 92.6272519,51.0165857 90.9700983,50.9998435 C89.3141405,50.9842972 87.9845916,49.6281789 88.0001349,47.9707011 C88.0168738,46.3132232 89.3727267,44.9834142 91.0298802,45.0001564 C92.6870337,45.0157027 94.0165826,46.3730168 93.9998437,48.0304947" id="Fill-17" fill="#0B6DD7" transform="translate(91.000000, 48.000000) rotate(-180.000000) translate(-91.000000, -48.000000) "></path>
            <path d="M62.9020482,50 C61.7609036,50 60.8372289,49.0763253 60.8372289,47.9351807 C60.8372289,46.7928916 61.7609036,45.8703614 62.9020482,45.8703614 L82.9351807,45.8703614 C84.0763253,45.8703614 85,46.7928916 85,47.9351807 C85,49.0763253 84.0763253,50 82.9351807,50 L62.9020482,50 Z" id="Fill-22" fill="#F2800B" transform="translate(72.918614, 47.935181) rotate(-180.000000) translate(-72.918614, -47.935181) "></path>
            <path d="M49.931239,92.0990993 C49.9145001,93.7565772 48.5586472,95.0851904 46.9014937,95.0684482 C45.2455358,95.0529019 43.9159869,93.6967836 43.9315302,92.0393058 C43.9482691,90.3818279 45.304122,89.0520189 46.9612755,89.0687611 C48.618429,89.0843074 49.9479779,90.4416215 49.931239,92.0990993" id="Fill-17" fill="#0B6DD7" transform="translate(46.931395, 92.068605) rotate(-90.000000) translate(-46.931395, -92.068605) "></path>
            <path d="M36.9796483,76.0520384 C35.8385037,76.0520384 34.914829,75.1283637 34.914829,73.9872191 C34.914829,72.84493 35.8385037,71.9223999 36.9796483,71.9223999 L57.0127809,71.9223999 C58.1539254,71.9223999 59.0776001,72.84493 59.0776001,73.9872191 C59.0776001,75.1283637 58.1539254,76.0520384 57.0127809,76.0520384 L36.9796483,76.0520384 Z" id="Fill-22" fill="#F2800B" transform="translate(46.996215, 73.987219) rotate(-90.000000) translate(-46.996215, -73.987219) "></path>
            <path d="M50.0608775,4.13239878 C50.0441386,5.78987663 48.6882857,7.11848983 47.0311322,7.10174763 C45.3751743,7.0862013 44.0456255,5.73008306 44.0611688,4.07260521 C44.0779077,2.41512737 45.4337606,1.0853183 47.0909141,1.1020605 C48.7480676,1.11760683 50.0776165,2.47492094 50.0608775,4.13239878" id="Fill-17" fill="#0B6DD7" transform="translate(47.061034, 4.101904) rotate(-270.000000) translate(-47.061034, -4.101904) "></path>
            <path d="M36.9796483,24.248109 C35.8385037,24.248109 34.914829,23.3244343 34.914829,22.1832897 C34.914829,21.0410005 35.8385037,20.1184704 36.9796483,20.1184704 L57.0127809,20.1184704 C58.1539254,20.1184704 59.0776001,21.0410005 59.0776001,22.1832897 C59.0776001,23.3244343 58.1539254,24.248109 57.0127809,24.248109 L36.9796483,24.248109 Z" id="Fill-22" fill="#F2800B" transform="translate(46.996215, 22.183290) rotate(-270.000000) translate(-46.996215, -22.183290) "></path>
            <g id="Group-26" transform="translate(43.493976, 0.834627)">
                <mask id="mask-4" fill="white">
                    <use xlink:href="#path-3"></use>
                </mask>
                <g id="Clip-25"></g>
            </g>
            <line x1="47.3453675" y1="32.723494" x2="47.3453675" y2="10.6903614" id="Fill-27" fill="#BB1C85"></line>
            <path d="M69.4297654,26.4995618 C67.4967239,24.5292241 67.5272806,21.3631319 69.5001786,19.4299954 C71.4717481,17.496859 74.6376847,17.5274171 76.5707262,19.4990835 C78.5037677,21.4720784 78.4718825,24.6381706 76.500313,26.5713071 C74.5287436,28.5044436 71.3628069,28.4712282 69.4297654,26.4995618" id="Fill-31" fill="#0B6DD7"></path>
            <line x1="58.4937892" y1="37.3409518" x2="65.8671627" y2="29.9675783" id="Fill-33" fill="#BB1C85"></line>
            <path d="M59.0656777,38.4878243 C58.5368825,38.4878243 58.0092319,38.2863786 57.6051958,37.883487 C56.7982681,37.0765593 56.7982681,35.7694508 57.6051958,34.9625231 L64.9774247,27.5891496 C65.7843524,26.7810774 67.0914608,26.7810774 67.8983886,27.5891496 C68.7053163,28.3949328 68.7053163,29.7020412 67.8983886,30.5089689 L60.5261596,37.883487 C60.1221235,38.2863786 59.5944729,38.4878243 59.0656777,38.4878243" id="Fill-35" fill="#F2800B"></path>
            <path d="M68.4997367,69.4296951 C70.4713717,67.4967487 73.6374134,67.5273038 75.5705191,69.5001049 C77.5036248,71.4715774 77.4717385,74.6373584 75.5014322,76.5703049 C73.5284687,78.5032513 70.3624269,78.4726962 68.4293212,76.4998951 C66.4962156,74.5284226 66.5281018,71.3626416 68.4997367,69.4296951" id="Fill-37" fill="#0B6DD7"></path>
            <line x1="58.4937892" y1="59.6377952" x2="65.8671627" y2="67.0111687" id="Fill-39" fill="#BB1C85"></line>
            <path d="M65.8664759,69.0750723 C65.3388253,69.0750723 64.8100301,68.8736265 64.405994,68.4707349 L57.0337651,61.0996506 C56.2268373,60.2927229 56.2268373,58.986759 57.0337651,58.1786867 C57.8406928,57.371759 59.1478012,57.371759 59.9547289,58.1786867 L67.3269578,65.5497711 C68.1338855,66.3555542 68.1338855,67.6638072 67.3269578,68.4707349 C66.9240663,68.8736265 66.3952711,69.0750723 65.8664759,69.0750723" id="Fill-41" fill="#F2800B"></path>
            <path d="M25.5702346,69.499663 C27.5032761,71.471201 27.4727194,74.6370871 25.4998214,76.5700977 C23.5282519,78.5031083 20.3623153,78.4725521 18.4292738,76.5010141 C16.4962323,74.5281476 16.5281175,71.3622615 18.499687,69.4292509 C20.4712564,67.4962403 23.6371931,67.528125 25.5702346,69.499663" id="Fill-43" fill="#0B6DD7"></path>
            <line x1="36.196259" y1="59.6377952" x2="28.8228855" y2="67.0111687" id="Fill-45" fill="#BB1C85"></line>
            <path d="M28.8235723,69.0750723 C28.2947771,69.0750723 27.7659819,68.8736265 27.3630904,68.4707349 C26.5561627,67.6638072 26.5561627,66.3555542 27.3630904,65.5497711 L34.7353193,58.1786867 C35.542247,57.371759 36.8493554,57.371759 37.6562831,58.1786867 C38.4632108,58.986759 38.4632108,60.2927229 37.6562831,61.0996506 L30.2840542,68.4707349 C29.8800181,68.8736265 29.3512229,69.0750723 28.8235723,69.0750723" id="Fill-47" fill="#F2800B"></path>
            <path d="M25.5002633,26.570863 C23.5286283,28.5039354 20.3625866,28.4720496 18.4294809,26.4991201 C16.4963752,24.5288478 16.5282615,21.3628606 18.4985678,19.4297882 C20.4715313,17.4967159 23.6375731,17.527273 25.5706788,19.5002025 C27.5037844,21.4718035 27.4718982,24.6377907 25.5002633,26.570863" id="Fill-49" fill="#0B6DD7"></path>
            <line x1="36.196259" y1="37.3409518" x2="28.8228855" y2="29.9675783" id="Fill-51" fill="#BB1C85"></line>
            <path d="M36.1958012,39.4076024 C35.667006,39.4076024 35.1393554,39.2061566 34.7353193,38.8032651 L27.3630904,31.428747 C26.5561627,30.6218193 26.5561627,29.3147108 27.3630904,28.5089277 C28.1700181,27.7008554 29.4771265,27.7008554 30.2840542,28.5089277 L37.6562831,35.8823012 C38.4632108,36.6892289 38.4632108,37.9963373 37.6562831,38.8032651 C37.252247,39.2061566 36.7245964,39.4076024 36.1958012,39.4076024" id="Fill-53" fill="#F2800B"></path>
        </g>
    </g>
</svg>