<?xml version="1.0" encoding="UTF-8"?>
<svg width="100px" height="100px" viewBox="0 0 100 100" version="1.1" xmlns="http://www.w3.org/2000/svg" xmlns:xlink="http://www.w3.org/1999/xlink">
    <!-- Generator: Sketch 59 (86127) - https://sketch.com -->
    <title>icon/data-warehouse-migration</title>
    <desc>Created with Sketch.</desc>
    <defs>
        <polygon id="path-1" points="0.122033333 0.013 8.91003333 0.013 8.91003333 8.8036 0.122033333 8.8036"></polygon>
        <polygon id="path-3" points="0.122033333 0.208966667 8.91003333 0.208966667 8.91003333 9 0.122033333 9"></polygon>
    </defs>
    <g id="icon/data-warehouse-migration" stroke="none" stroke-width="1" fill="none" fill-rule="evenodd">
        <g id="Group-37" transform="translate(2.000000, 2.000000)">
            <path d="M45.8124466,31.0148923 L45.8124466,37 C46.5232306,36.8640684 47.2508379,36.7816857 48.0036801,36.7816857 C48.7481107,36.7816857 49.4757179,36.8640684 50.1865019,37 L50.1865019,31.2414449 L55.3596635,26.1790241 C56.2134455,25.342839 56.2134455,23.9876426 55.3596635,23.1514575 C54.5016758,22.3152725 53.1179602,22.3152725 52.2641782,23.1514575 L50.1865019,25.1821926 L50.1865019,13.1419518 C50.1865019,11.9597592 49.2107511,11 48.0036801,11 C46.7881974,11 45.8124466,11.9597592 45.8124466,13.1419518 L45.8124466,24.9556401 L43.7347703,22.9207858 C42.8809884,22.0846008 41.4972728,22.0846008 40.6434908,22.9207858 C39.7855031,23.7569708 39.7855031,25.1121673 40.6434908,25.9524715 L45.8124466,31.0148923 Z" id="Fill-1" fill="#F2800B"></path>
            <path d="M82.853929,45.8143571 L70.4100127,45.8143571 L72.4489861,43.7359979 C73.2851711,42.8819353 73.2851711,41.4977649 72.4489861,40.6437023 C71.612801,39.7854326 70.2534854,39.7854326 69.4173004,40.6437023 L64.3548796,45.8143571 L59,45.8143571 C59.1318124,46.5253747 59.2183143,47.2532211 59.2183143,48.0063108 C59.2183143,48.7509861 59.1318124,49.4788325 59,50.1898501 L64.128327,50.1898501 L69.1948669,55.3605049 C69.6108999,55.7854326 70.1587452,56 70.7065906,56 C71.254436,56 71.8022814,55.7854326 72.2224335,55.3605049 C73.0586185,54.5022351 73.0586185,53.1180647 72.2224335,52.2640021 L70.1875792,50.1898501 L82.853929,50.1898501 C84.0402408,50.1898501 85,49.2137786 85,48.0063108 C85,46.7904286 84.0402408,45.8143571 82.853929,45.8143571" id="Fill-3" fill="#F2800B"></path>
            <path d="M20.1838357,34.1288532 L37.9238424,43 C39.0060482,40.7626051 40.7906667,38.9545259 43,37.8440845 L34.0524045,20.1678395 C33.5133435,19.1110626 32.226948,18.6982591 31.189664,19.2349037 C30.1442124,19.7715482 29.7358329,21.0677511 30.2667263,22.1204 L35.3633028,32.1804208 L24.9618762,21.6663162 C24.1328657,20.8283251 22.7892971,20.8283251 21.9602866,21.6663162 C21.1271924,22.5084353 21.1271924,23.8665587 21.9602866,24.7045498 L32.7700928,35.6314579 L22.0664653,30.2773968 C21.0169299,29.7490083 19.7427858,30.18658 19.22006,31.255741 C18.701418,32.3166459 19.1302165,33.6045928 20.1838357,34.1288532" id="Fill-5" fill="#F2800B"></path>
            <path d="M58.154803,43 L75.8313612,34.0483571 C76.883783,33.513382 77.3047517,32.2269917 76.7640958,31.1856282 C76.2193128,30.1442646 74.9275167,29.7277192 73.8750949,30.2626942 L63.8089904,35.35925 L74.3249536,24.9537819 C75.1627639,24.1247748 75.1627639,22.7812116 74.3249536,21.9522045 C73.4871434,21.1231974 72.129313,21.1231974 71.2915027,21.9522045 L60.3628251,32.7619668 L65.7116039,22.0624665 C66.2398783,21.0129354 65.8065282,19.7387964 64.741725,19.2201565 C63.6769218,18.7015166 62.3892529,19.1303134 61.8651056,20.1798445 L53,37.9238631 C55.2369121,39.0019806 57.0446012,40.7906757 58.154803,43" id="Fill-7" fill="#F2800B"></path>
            <path d="M49.8114219,63.6785997 L49.8114219,59 C49.1006379,59.13591 48.3730305,59.2182797 47.6243941,59.2182797 C46.8757576,59.2182797 46.1481503,59.13591 45.4373662,59 L45.4373662,63.9421828 L40.6006701,68.9502614 C39.7679171,69.8110249 39.8057696,71.1660067 40.6847865,71.9814668 C41.1095746,72.372723 41.6479199,72.5662918 42.1904711,72.5662918 C42.7666688,72.5662918 43.3470723,72.3438936 43.7760663,71.8949786 L45.4373662,70.1775701 L45.4373662,82.854269 C45.4373662,84.0403928 46.4131171,85 47.6243941,85 C48.835671,85 49.8114219,84.0403928 49.8114219,82.854269 L49.8114219,69.5803897 L52.3096807,71.8908601 C53.1886976,72.7063203 54.5682075,72.6651354 55.4009604,71.8084904 C56.2295075,70.9518454 56.1958609,69.5927451 55.3168439,68.7814035 L49.8114219,63.6785997 Z" id="Fill-9" fill="#F2800B"></path>
            <path d="M23.8434728,52.3084339 C23.0320025,53.187178 23.0731939,54.5704642 23.9299747,55.398754 C24.3418885,55.8023877 24.8732573,56 25.400507,56 C25.968948,56 26.5373891,55.7687516 26.9575412,55.3146637 L31.6368821,50.2650386 L37,50.2650386 C36.8640684,49.5544752 36.7858048,48.8270937 36.7858048,48.0786897 C36.7858048,47.3260811 36.8640684,46.6029041 37,45.8923407 L32.2629911,45.8923407 L26.7886565,40.5988536 C25.9277567,39.7705638 24.5725602,39.8041999 23.7569708,40.682944 C22.9455006,41.5574836 22.9825729,42.9449742 23.8393536,43.7774686 L26.0307351,45.8923407 L13.1419518,45.8923407 C11.9597592,45.8923407 11,46.8677887 11,48.0786897 C11,49.2853861 11.9597592,50.2650386 13.1419518,50.2650386 L25.7423954,50.2650386 L23.8434728,52.3084339 Z" id="Fill-11" fill="#F2800B"></path>
            <path d="M75.8184547,61.8694755 L58.0757586,53 C56.9977214,55.2411006 55.2091596,57.0488392 53,58.1549441 L61.9509758,75.827859 C62.3266554,76.5707653 63.0739312,77 63.8416244,77 C64.1683024,77 64.5031473,76.9215821 64.8094078,76.7606191 C65.8547773,76.2240757 66.2672082,74.9281169 65.732273,73.8756664 L60.6401805,63.8175408 L71.0407897,74.3296647 C71.4573041,74.7465176 71.9963227,74.9570077 72.5394248,74.9570077 C73.0825269,74.9570077 73.6297124,74.7465176 74.0421433,74.3296647 C74.8751721,73.4877042 74.8751721,72.1298366 74.0421433,71.2920034 L63.2331867,60.3671539 L73.935973,65.7202064 C74.9854259,66.2484953 76.2594699,65.811006 76.7780712,64.7420464 C77.3007559,63.6813414 76.8679076,62.3936371 75.8184547,61.8694755" id="Fill-13" fill="#F2800B"></path>
            <path d="M37.8415435,53 L20.170735,61.9474222 C19.1142831,62.482389 18.6974799,63.7687596 19.2339593,64.8101072 C19.7745656,65.8473711 21.0621163,66.2639102 22.1268217,65.7330271 L32.192002,60.6365493 L21.6770043,71.0418581 C20.839271,71.8708525 20.839271,73.2143951 21.6770043,74.0433895 C22.0979344,74.4599285 22.6426674,74.6681981 23.1915271,74.6681981 C23.7403869,74.6681981 24.2933734,74.4599285 24.7101767,74.0433895 L35.6337242,63.2337928 L30.2854365,73.9331291 C29.7572105,74.9826442 30.1946476,76.2567637 31.2552263,76.7753956 C31.5647337,76.9264931 31.8907481,77 32.2085091,77 C32.9967212,77 33.7601728,76.5630424 34.1357084,75.8157223 L43,58.0719755 C40.7591665,56.9938744 38.9516434,55.2092905 37.8415435,53" id="Fill-15" fill="#F2800B"></path>
            <g id="Group-19" transform="translate(43.000000, 0.000000)">
                <mask id="mask-2" fill="white">
                    <use xlink:href="#path-1"></use>
                </mask>
                <g id="Clip-18"></g>
                <path d="M8.91003333,4.40526667 C8.91003333,6.83626667 6.9427,8.8036 4.51603333,8.8036 C2.08936667,8.8036 0.122033333,6.83626667 0.122033333,4.40526667 C0.122033333,1.9786 2.08936667,0.0112666667 4.51603333,0.0112666667 C6.9427,0.0112666667 8.91003333,1.9786 8.91003333,4.40526667" id="Fill-17" fill="#0B6DD7" mask="url(#mask-2)"></path>
            </g>
            <g id="Group-22" transform="translate(43.000000, 87.000000)">
                <mask id="mask-4" fill="white">
                    <use xlink:href="#path-3"></use>
                </mask>
                <g id="Clip-21"></g>
                <path d="M8.91003333,4.6073 C8.91003333,7.03396667 6.9427,9.0013 4.51603333,9.0013 C2.08936667,9.0013 0.122033333,7.03396667 0.122033333,4.6073 C0.122033333,2.1763 2.08936667,0.208966667 4.51603333,0.208966667 C6.9427,0.208966667 8.91003333,2.1763 8.91003333,4.6073" id="Fill-20" fill="#0B6DD7" mask="url(#mask-4)"></path>
            </g>
            <path d="M96,48.0019714 C96,50.2099556 94.2121362,52 91.9980266,52 C89.7918106,52 88,50.2099556 88,48.0019714 C88,45.7900444 89.7918106,44 91.9980266,44 C94.2121362,44 96,45.7900444 96,48.0019714" id="Fill-23" fill="#0B6DD7"></path>
            <path d="M8,48.0019714 C8,50.2099556 6.20907298,52 4,52 C1.79092702,52 0,50.2099556 0,48.0019714 C0,45.7900444 1.79092702,44 4,44 C6.20907298,44 8,45.7900444 8,48.0019714" id="Fill-25" fill="#0B6DD7"></path>
            <path d="M21,16.9980286 C21,19.2099556 19.209073,21 16.9960552,21 C14.790927,21 13,19.2099556 13,16.9980286 C13,14.7900444 14.790927,13 16.9960552,13 C19.209073,13 21,14.7900444 21,16.9980286" id="Fill-27" fill="#0B6DD7"></path>
            <path d="M84,16.9980286 C84,19.2099556 82.2081894,21 79.9980266,21 C77.7918106,21 76,19.2099556 76,16.9980286 C76,14.7900444 77.7918106,13 79.9980266,13 C82.2081894,13 84,14.7900444 84,16.9980286" id="Fill-29" fill="#0B6DD7"></path>
            <path d="M21,79.0019714 C21,81.2099556 19.209073,83 16.9960552,83 C14.790927,83 13,81.2099556 13,79.0019714 C13,76.7900444 14.790927,75 16.9960552,75 C19.209073,75 21,76.7900444 21,79.0019714" id="Fill-31" fill="#0B6DD7"></path>
            <path d="M84,79.0019714 C84,81.2099556 82.2081894,83 79.9980266,83 C77.7918106,83 76,81.2099556 76,79.0019714 C76,76.7900444 77.7918106,75 79.9980266,75 C82.2081894,75 84,76.7900444 84,79.0019714" id="Fill-33" fill="#0B6DD7"></path>
            <path d="M48,43.178273 C45.3413841,43.178273 43.1802137,45.3426184 43.1802137,47.9958217 C43.1802137,50.6573816 45.3413841,52.821727 48,52.821727 C50.6586159,52.821727 52.8197863,50.6573816 52.8197863,47.9958217 C52.8197863,45.3426184 50.6586159,43.178273 48,43.178273 M48,57 C43.0380864,57 39,52.95961 39,47.9958217 C39,43.0362117 43.0380864,39 48,39 C52.9619136,39 57,43.0362117 57,47.9958217 C57,52.95961 52.9619136,57 48,57" id="Fill-35" fill="#0B6DD7"></path>
        </g>
    </g>
</svg>