<?xml version="1.0" encoding="UTF-8"?>
<svg width="100px" height="100px" viewBox="0 0 100 100" version="1.1" xmlns="http://www.w3.org/2000/svg" xmlns:xlink="http://www.w3.org/1999/xlink">
    <!-- Generator: Sketch 59 (86127) - https://sketch.com -->
    <title>icon/email</title>
    <desc>Created with Sketch.</desc>
    <g id="icon/email" stroke="none" stroke-width="1" fill="none" fill-rule="evenodd">
        <path d="M62.8660456,65.7279227 C60.7869734,67.4931917 58.4174713,68.7990162 55.9077463,69.6213781 C49.77761,71.6300407 42.8108946,70.7543344 37.1964798,66.6442597 C27.884799,59.8275735 25.8210462,46.695362 32.5859549,37.3135857 C39.351287,27.931222 52.383983,25.8513771 61.6956639,32.6680633 C65.3755745,35.3619696 67.9235479,39.0418702 69.2420685,43.086796 C70.0995467,45.7173466 70.1711358,48.4103497 70.227751,51.2707958 C70.3911342,59.5256231 73.040108,67.581409 80.5047471,68.5044204 C87.9693862,69.4274317 92.1294171,62.6245735 92.6044689,59.9022134" id="Fill-4-Copy" stroke="#0B6DD7" stroke-width="4" stroke-linecap="round"></path>
        <path d="M74.6467113,85.8462889 C58.5028261,97.0347657 36.2435268,96.3415321 20.737989,82.8627789 C2.39828555,66.9203242 0.455978982,39.1286375 16.397442,20.7900893 C32.3399029,2.45039301 60.1304525,0.507089239 78.4701559,16.449544 C91.2837999,27.5882704 96.0932867,44.5090392 92.3919109,59.9498522" id="Fill-4-Copy" stroke="#0B6DD7" stroke-width="4" stroke-linecap="round"></path>
        <circle id="Oval" fill="#F2800B" cx="73.6044689" cy="85.6561701" r="8"></circle>
    </g>
</svg>