<?xml version="1.0" encoding="UTF-8"?>
<svg width="100px" height="100px" viewBox="0 0 100 100" version="1.1" xmlns="http://www.w3.org/2000/svg" xmlns:xlink="http://www.w3.org/1999/xlink">
    <!-- Generator: Sketch 59 (86127) - https://sketch.com -->
    <title>icon/groups</title>
    <desc>Created with Sketch.</desc>
    <g id="icon/groups" stroke="none" stroke-width="1" fill="none" fill-rule="evenodd">
        <g id="Group" transform="translate(7.000000, 40.000000)" fill="#0B6DD7">
            <path d="M23.360501,3.41173858 C28.1564871,8.06132178 28.2747457,15.7189482 23.6241419,20.5144582 C18.9746231,25.3105106 11.3171025,25.4287709 6.52165897,20.7786452 C1.72567293,16.1285195 1.60741426,8.47089305 6.25801807,3.67538313 C10.9080794,-1.12012678 18.5650575,-1.23838709 23.360501,3.41173858" id="Fill-1"></path>
            <path d="M15.3003078,25.61328 C6.8519493,25.6116333 0.00160982441,32.6166369 0,41.2592522 L30.59364,41.26584 C30.5952495,32.6232247 23.7481297,25.6149272 15.3003078,25.61328" id="Fill-3"></path>
        </g>
        <g id="Group" transform="translate(33.000000, 25.000000)" fill="#F2800B">
            <path d="M23.360501,3.41173858 C28.1564871,8.06132178 28.2747457,15.7189482 23.6241419,20.5144582 C18.9746231,25.3105106 11.3171025,25.4287709 6.52165897,20.7786452 C1.72567293,16.1285195 1.60741426,8.47089305 6.25801807,3.67538313 C10.9080794,-1.12012678 18.5650575,-1.23838709 23.360501,3.41173858" id="Fill-1"></path>
            <path d="M15.3003078,25.61328 C6.8519493,25.6116333 0.00160982441,32.6166369 0,41.2592522 L30.59364,41.26584 C30.5952495,32.6232247 23.7481297,25.6149272 15.3003078,25.61328" id="Fill-3"></path>
        </g>
        <g id="Group" transform="translate(62.000000, 12.000000)" fill="#0B6DD7">
            <path d="M23.360501,3.41173858 C28.1564871,8.06132178 28.2747457,15.7189482 23.6241419,20.5144582 C18.9746231,25.3105106 11.3171025,25.4287709 6.52165897,20.7786452 C1.72567293,16.1285195 1.60741426,8.47089305 6.25801807,3.67538313 C10.9080794,-1.12012678 18.5650575,-1.23838709 23.360501,3.41173858" id="Fill-1"></path>
            <path d="M15.3003078,25.61328 C6.8519493,25.6116333 0.00160982441,32.6166369 0,41.2592522 L30.59364,41.26584 C30.5952495,32.6232247 23.7481297,25.6149272 15.3003078,25.61328" id="Fill-3"></path>
        </g>
    </g>
</svg>