<?xml version="1.0" encoding="UTF-8"?>
<svg width="100px" height="100px" viewBox="0 0 100 100" version="1.1" xmlns="http://www.w3.org/2000/svg" xmlns:xlink="http://www.w3.org/1999/xlink">
    <!-- Generator: Sketch 59 (86127) - https://sketch.com -->
    <title>icon/hybrid-cloud</title>
    <desc>Created with Sketch.</desc>
    <g id="icon/hybrid-cloud" stroke="none" stroke-width="1" fill="none" fill-rule="evenodd">
        <path d="M69.5003,81 C53.7610087,81 41.0003,68.2412619 41.0003,52.5 C41.0003,36.7597234 53.7610087,24 69.5003,24 C85.2405766,24 98.0003,36.7597234 98.0003,52.5 C98.0003,68.2412619 85.2405766,81 69.5003,81 Z" id="Fill-4" fill="#FFFFFF"></path>
        <path d="M26.0003,81 C13.2972383,81 3.0003,70.7038315 3.0003,58.0004959 C3.0003,45.2971604 13.2972383,35 26.0003,35 C38.7023699,35 49.0003,45.2971604 49.0003,58.0004959 C49.0003,70.7038315 38.7023699,81 26.0003,81 Z" id="Fill-9" fill="#FFFFFF"></path>
        <path d="M45.0007986,61 C30.6412873,61 19.0003,49.3587895 19.0003,35 C19.0003,20.6412105 30.6412873,9 45.0007986,9 C59.3593127,9 71.0003,20.6412105 71.0003,35 C71.0003,49.3587895 59.3593127,61 45.0007986,61 Z" id="Fill-1" fill="#F2800B"></path>
        <path d="M26.0003,81 C13.2972383,81 3.0003,70.7038315 3.0003,58.0004959 C3.0003,45.2971604 13.2972383,35 26.0003,35 C38.7023699,35 49.0003,45.2971604 49.0003,58.0004959 C49.0003,70.7038315 38.7023699,81 26.0003,81 Z" id="Fill-9" fill="#0B6DD7" style="mix-blend-mode: multiply;"></path>
        <path d="M69.5003,81 C53.7610087,81 41.0003,68.2412619 41.0003,52.5 C41.0003,36.7597234 53.7610087,24 69.5003,24 C85.2405766,24 98.0003,36.7597234 98.0003,52.5 C98.0003,68.2412619 85.2405766,81 69.5003,81 Z" id="Fill-4" fill="#0B6DD7" style="mix-blend-mode: multiply;"></path>
        <path d="M26.2321625,80.9134082 L69.0003,81 C59.4144938,80.7622746 51.3279459,76.0646089 46.2227287,68.9134082 C42.3788413,76.0597195 34.8684163,80.9134082 26.2321625,80.9134082 Z" id="Fill-7" fill="#C8C9C9"></path>
    </g>
</svg>