<svg xmlns="http://www.w3.org/2000/svg" width="100" height="100" viewBox="0 0 100 100">
    <g fill="none" fill-rule="evenodd">
        <g>
            <path fill="#F2800B" d="M42.5 82C21.238 82 4 64.988 4 44 4 23.013 21.238 6 42.5 6 63.763 6 81 23.013 81 44c0 20.988-17.237 38-38.5 38z" style="mix-blend-mode:multiply"/>
            <path fill="#0B6DD7" d="M72 88c-11.597 0-21-9.849-21-22 0-12.15 9.403-22 21-22 11.598 0 21 9.85 21 22 0 12.151-9.402 22-21 22z" style="mix-blend-mode:multiply"/>
            <path stroke="#F2800B" stroke-dasharray="14 6" stroke-linecap="round" stroke-width="3" d="M3 56c.193 11.688 6.527 22.688 19 33 13.82 11.176 34.428 12.573 55 1M96.072 61.187C99.71 47.75 97.686 35.02 90 23 78.496 7.89 60.618-1.202 38.659 3.25"/>
        </g>
    </g>
</svg>
