<svg xmlns="http://www.w3.org/2000/svg" width="100" height="100" viewBox="0 0 100 100">
    <g fill="none" fill-rule="evenodd">
        <g>
            <path fill="#F2800B" d="M50 3c25.958 0 47 20.818 47 46.5 0 7.661-1.872 14.889-5.189 21.26C93.22 67.308 94 63.5 94 59.5 94 43.76 81.912 31 67 31c-14.91 0-27 12.76-27 28.5C40 75.241 52.09 88 67 88c6.348 0 12.184-2.312 16.794-6.182C75.248 90.563 63.266 96 50 96 24.044 96 3 75.183 3 49.5 3 23.818 24.044 3 50 3z" style="mix-blend-mode:multiply"/>
            <path fill="#0B6DD7" d="M75.5 82C67.492 82 61 75.509 61 67.5 61 59.492 67.492 53 75.5 53S90 59.492 90 67.5C90 75.509 83.508 82 75.5 82z" style="mix-blend-mode:multiply"/>
        </g>
    </g>
</svg>
