<?xml version="1.0" encoding="UTF-8"?>
<svg width="100px" height="100px" viewBox="0 0 100 100" version="1.1" xmlns="http://www.w3.org/2000/svg" xmlns:xlink="http://www.w3.org/1999/xlink">
    <!-- Generator: Sketch 59 (86127) - https://sketch.com -->
    <title>icon/legacy-modernization</title>
    <desc>Created with Sketch.</desc>
    <g id="icon/legacy-modernization" stroke="none" stroke-width="1" fill="none" fill-rule="evenodd">
        <g id="Group-48" transform="translate(4.000000, 3.000000)">
            <g id="Group-10" transform="translate(59.000000, 41.193000)">
                <path d="M28.614,12.035 C25.513,12.035 23,9.521 23,6.421 C23,3.32 25.513,0.807 28.614,0.807 C31.715,0.807 34.228,3.32 34.228,6.421 C34.228,9.521 31.715,12.035 28.614,12.035" id="Fill-3" fill="#F2800B"></path>
                <line x1="24.5761" y1="5.2559" x2="1.8971" y2="5.2559" id="Fill-6" fill="#BB1C85"></line>
                <path d="M25.5761,8.2559 L2.8971,8.2559 C1.7931,8.2559 0.8971,7.3599 0.8971,6.2559 C0.8971,5.1519 1.7931,4.2559 2.8971,4.2559 L25.5761,4.2559 C26.6801,4.2559 27.5761,5.1519 27.5761,6.2559 C27.5761,7.3599 26.6801,8.2559 25.5761,8.2559" id="Fill-8" fill="#F2800B"></path>
            </g>
            <g id="Group-17" transform="translate(41.000000, 60.193000)">
                <path d="M0.1298,28.3858 C0.1298,25.2848 2.6438,22.7728 5.7438,22.7728 C8.8438,22.7728 11.3578,25.2848 11.3578,28.3858 C11.3578,31.4868 8.8438,33.9998 5.7438,33.9998 C2.6438,33.9998 0.1298,31.4868 0.1298,28.3858" id="Fill-11" fill="#F2800B"></path>
                <line x1="4.7441" y1="24.3838" x2="4.7441" y2="1.9378" id="Fill-13" fill="#BB1C85"></line>
                <path d="M5.7441,27.3838 C4.6401,27.3838 3.7441,26.4878 3.7441,25.3838 L3.7441,2.9378 C3.7441,1.8328 4.6401,0.9378 5.7441,0.9378 C6.8481,0.9378 7.7441,1.8328 7.7441,2.9378 L7.7441,25.3838 C7.7441,26.4878 6.8481,27.3838 5.7441,27.3838" id="Fill-15" fill="#F2800B"></path>
            </g>
            <g id="Group-20" transform="translate(0.000000, 41.193000)"></g>
            <g id="Group-26" transform="translate(40.000000, 0.193000)" fill="#F2800B">
                <path d="M12.0629,6.4209 C12.0629,9.5219 9.5499,12.0349 6.4489,12.0349 C3.3489,12.0349 0.8349,9.5219 0.8349,6.4209 C0.8349,3.3199 3.3489,0.8069 6.4489,0.8069 C9.5499,0.8069 12.0629,3.3199 12.0629,6.4209" id="Fill-21"></path>
                <path d="M6.4492,34.0274 C5.3452,34.0274 4.4492,33.1314 4.4492,32.0274 L4.4492,9.4234 C4.4492,8.3194 5.3452,7.4234 6.4492,7.4234 C7.5532,7.4234 8.4492,8.3194 8.4492,9.4234 L8.4492,32.0274 C8.4492,33.1314 7.5532,34.0274 6.4492,34.0274" id="Fill-24"></path>
            </g>
            <path d="M9.3155,78.3155 C11.0695,76.5615 13.9135,76.5615 15.6675,78.3155 C17.4205,80.0695 17.4205,82.9135 15.6675,84.6675 C13.9135,86.4205 11.0695,86.4205 9.3155,84.6675 C7.5615,82.9135 7.5615,80.0695 9.3155,78.3155" id="Fill-27" fill="#0B6DD7"></path>
            <path d="M5.6137,42.1296 C8.7147,42.1296 11.2277,44.6436 11.2277,47.7436 C11.2277,50.8446 8.7147,53.3586 5.6137,53.3586 C2.5137,53.3586 -0.0003,50.8446 -0.0003,47.7436 C-0.0003,44.6436 2.5137,42.1296 5.6137,42.1296" id="Fill-18" fill="#F2800B"></path>
            <path d="M20.578,65.578 C22.683,63.474 26.095,63.474 28.2,65.578 C30.305,67.682 30.305,71.095 28.2,73.199 C26.095,75.305 22.683,75.305 20.578,73.199 C18.474,71.095 18.474,67.682 20.578,65.578" id="Fill-29" fill="#0B6DD7"></path>
            <path d="M9.3155,10.3155 C11.0695,8.5615 13.9135,8.5615 15.6675,10.3155 C17.4205,12.0695 17.4205,14.9135 15.6675,16.6675 C13.9135,18.4205 11.0695,18.4205 9.3155,16.6675 C7.5615,14.9135 7.5615,12.0695 9.3155,10.3155" id="Fill-31" fill="#0B6DD7"></path>
            <path d="M78.3155,78.3155 C80.0695,76.5615 82.9135,76.5615 84.6675,78.3155 C86.4205,80.0695 86.4205,82.9135 84.6675,84.6675 C82.9135,86.4205 80.0695,86.4205 78.3155,84.6675 C76.5615,82.9135 76.5615,80.0695 78.3155,78.3155" id="Fill-33" fill="#0B6DD7"></path>
            <path d="M65.578,65.578 C67.682,63.474 71.095,63.474 73.199,65.578 C75.305,67.682 75.305,71.095 73.199,73.2 C71.095,75.305 67.682,75.305 65.578,73.2 C63.474,71.095 63.474,67.682 65.578,65.578" id="Fill-35" fill="#0B6DD7"></path>
            <path d="M19.578,20.578 C21.683,18.474 25.095,18.474 27.2,20.578 C29.305,22.682 29.305,26.095 27.2,28.2 C25.095,30.305 21.683,30.305 19.578,28.2 C17.474,26.095 17.474,22.682 19.578,20.578" id="Fill-37" fill="#0B6DD7"></path>
            <path d="M65.578,20.578 C67.682,18.474 71.095,18.474 73.199,20.578 C75.305,22.682 75.305,26.096 73.199,28.2 C71.095,30.305 67.682,30.305 65.578,28.2 C63.474,26.096 63.474,22.682 65.578,20.578" id="Fill-39" fill="#0B6DD7"></path>
            <path d="M78.3155,10.3155 C80.0695,8.5615 82.9135,8.5615 84.6675,10.3155 C86.4205,12.0695 86.4205,14.9135 84.6675,16.6675 C82.9135,18.4205 80.0695,18.4205 78.3155,16.6675 C76.5615,14.9135 76.5615,12.0695 78.3155,10.3155" id="Fill-41" fill="#0B6DD7"></path>
            <g id="Group-47" transform="translate(6.000000, 45.193000)">
                <line x1="24.2949" y1="1.2559" x2="1.6159" y2="1.2559" id="Fill-43" fill="#BB1C85"></line>
                <path d="M25.2949,4.2559 L2.6159,4.2559 C1.5119,4.2559 0.6159,3.3599 0.6159,2.2559 C0.6159,1.1519 1.5119,0.2559 2.6159,0.2559 L25.2949,0.2559 C26.3989,0.2559 27.2949,1.1519 27.2949,2.2559 C27.2949,3.3599 26.3989,4.2559 25.2949,4.2559" id="Fill-45" fill="#F2800B"></path>
            </g>
        </g>
        <path d="M61.58,39.613 C67.645,45.679 67.645,55.514 61.58,61.58 C55.514,67.646 45.679,67.646 39.613,61.58 C33.547,55.514 33.547,45.679 39.613,39.613 C45.679,33.548 55.514,33.548 61.58,39.613" id="Fill-1" fill="#0B6DD7" style="mix-blend-mode: multiply;"></path>
    </g>
</svg>