<?xml version="1.0" encoding="UTF-8"?>
<svg width="100px" height="100px" viewBox="0 0 100 100" version="1.1" xmlns="http://www.w3.org/2000/svg" xmlns:xlink="http://www.w3.org/1999/xlink">
    <!-- Generator: Sketch 59 (86127) - https://sketch.com -->
    <title>icon/machine learning</title>
    <desc>Created with Sketch.</desc>
    <g id="icon/machine-learning" stroke="none" stroke-width="1" fill="none" fill-rule="evenodd">
        <path d="M78.7987783,76.9452287 C67.863816,87.6849238 50.136184,87.6849238 39.2012217,76.9452287 C28.2662594,66.2055336 28.2662594,48.7944664 39.2012217,38.0547713 C50.136184,27.3150762 67.863816,27.3150762 78.7987783,38.0547713 C89.7337406,48.7944664 89.7337406,66.2055336 78.7987783,76.9452287" id="Fill-1" fill="#F2800B"></path>
        <path d="M90.2425953,90.2425953 C87.8993891,92.5858016 84.1006109,92.5858016 81.7574047,90.2425953 C79.4141984,87.8993891 79.4141984,84.1006109 81.7574047,81.7574047 C84.1006109,79.4141984 87.8993891,79.4141984 90.2425953,81.7574047 C92.5858016,84.1006109 92.5858016,87.8993891 90.2425953,90.2425953" id="Fill-1-Copy" fill="#0B6DD7"></path>
        <path d="M36.8742364,35.8742364 C30.039885,42.7085879 18.960115,42.7085879 12.1257636,35.8742364 C5.29141215,29.039885 5.29141215,17.960115 12.1257636,11.1257636 C18.960115,4.29141215 30.039885,4.29141215 36.8742364,11.1257636 C43.7085879,17.960115 43.7085879,29.039885 36.8742364,35.8742364" id="Fill-1-Copy" fill="#0B6DD7"></path>
    </g>
</svg>