<?xml version="1.0" encoding="UTF-8"?>
<svg width="100px" height="100px" viewBox="0 0 100 100" version="1.1" xmlns="http://www.w3.org/2000/svg" xmlns:xlink="http://www.w3.org/1999/xlink">
    <!-- Generator: Sketch 59 (86127) - https://sketch.com -->
    <title>icon/Managing</title>
    <desc>Created with Sketch.</desc>
    <g id="icon/Managing" stroke="none" stroke-width="1" fill="none" fill-rule="evenodd">
        <path d="M66.7063606,14.7697927 C76.2228668,23.9957969 76.4575233,39.1905554 67.229494,48.7061168 C58.0036174,58.2227547 42.8090692,58.4574144 33.2936394,49.2303338 C23.7771332,40.0032532 23.5424767,24.8084947 32.770506,15.2929333 C41.997459,5.77737188 57.1909308,5.54271211 66.7063606,14.7697927" id="Fill-1" fill="#0B6DD7"></path>
        <path d="M78.745377,8.94904575 C84.2966723,14.3308815 84.4335553,23.1944906 79.0505382,28.7452348 C73.6687768,34.2966069 64.8052903,34.4334918 59.254623,29.0510281 C53.7033277,23.6685644 53.5664447,14.8049553 58.9494618,9.2542111 C64.3318511,3.70346693 73.1947097,3.56658206 78.745377,8.94904575" id="Fill-1" fill="#F2800B" style="mix-blend-mode: multiply;"></path>
        <path d="M50.0070683,59 C32.8859206,58.9966336 19.0032624,73.317621 19,90.986532 L81,91 C81.0032618,73.331089 67.1271285,59.0033676 50.0070683,59" id="Fill-3" fill="#0B6DD7"></path>
    </g>
</svg>