<?xml version="1.0" encoding="UTF-8"?>
<svg width="100px" height="100px" viewBox="0 0 100 100" version="1.1" xmlns="http://www.w3.org/2000/svg" xmlns:xlink="http://www.w3.org/1999/xlink">
    <!-- Generator: Sketch 59 (86127) - https://sketch.com -->
    <title>icon/multi-cloud</title>
    <desc>Created with Sketch.</desc>
    <g id="icon/multi-cloud" stroke="none" stroke-width="1" fill="none" fill-rule="evenodd">
        <g id="Group-9" transform="translate(4.000000, 8.500000)">
            <path d="M34.2505565,52.3416464 C34.0920352,52.3416464 33.9372883,52.3490832 33.7787671,52.3565201 C32.0576793,48.8909476 28.4532082,46.5 24.2712668,46.5 C18.4248524,46.5 13.6805381,51.1740608 13.6805381,56.9339018 C13.6805381,57.0677651 13.6956353,57.19791 13.703184,57.3317733 C9.82318784,58.4807668 7,62.0244262 7,66.2150917 C7,71.3428004 11.2159102,75.5 16.420691,75.5 L34.2505565,75.5 C40.7386045,75.5 46,70.3165149 46,63.9208232 C46,57.5288499 40.7386045,52.3416464 34.2505565,52.3416464" id="Fill-1" fill="#C8C9C9"></path>
            <path d="M78.7442176,39.1473907 C78.5653731,39.1473907 78.3907868,39.1558533 78.2119423,39.1600846 C76.2702023,35.2165021 72.2036195,32.5 67.4855318,32.5 C60.8895771,32.5 55.5370173,37.8145275 55.5370173,44.3688293 C55.5370173,44.5253879 55.5540501,44.6734838 55.5583083,44.825811 C51.185135,46.129055 48,50.1657264 48,54.9344147 C48,60.7651622 52.7564115,65.5 58.6284719,65.5 L78.7442176,65.5 C86.0640666,65.5 92,59.5973202 92,52.3236953 C92,45.0500705 86.0640666,39.1473907 78.7442176,39.1473907" id="Fill-4" fill="#0B6DD7"></path>
            <path d="M40.4742857,9.28472727 C40.2385714,9.28472727 40.0071429,9.29327273 39.7757143,9.30181818 C37.2171429,4.09336364 31.8642857,0.5 25.6542857,0.5 C16.9671429,0.5 9.92571429,7.52009091 9.92571429,16.1809091 C9.92571429,16.3817273 9.94714286,16.5782727 9.95571429,16.7790909 C4.2,18.5052727 0,23.8290909 0,30.1356364 C0,37.8393636 6.26571429,44.0860909 13.9928571,44.0860909 L40.4742857,44.0860909 C50.1128571,44.0860909 57.9257143,36.2926364 57.9257143,26.6832727 C57.9257143,17.0739091 50.1128571,9.28472727 40.4742857,9.28472727" id="Fill-6" fill="#F2800B"></path>
        </g>
    </g>
</svg>