<?xml version="1.0" encoding="UTF-8"?>
<svg width="100px" height="100px" viewBox="0 0 100 100" version="1.1" xmlns="http://www.w3.org/2000/svg" xmlns:xlink="http://www.w3.org/1999/xlink">
    <!-- Generator: Sketch 59 (86127) - https://sketch.com -->
    <title>icon/operation-readiness-&amp;-efficiency</title>
    <desc>Created with Sketch.</desc>
    <g id="icon/operation-readiness-&amp;-efficiency" stroke="none" stroke-width="1" fill="none" fill-rule="evenodd">
        <path d="M50.5310302,53.6774806 C40.5724039,63.4408398 24.4275961,63.4408398 14.4689698,53.6774806 C4.51034341,43.9141215 4.51034341,28.0858785 14.4689698,18.3225194 C24.4275961,8.55916021 40.5724039,8.55916021 50.5310302,18.3225194 C60.4896566,28.0858785 60.4896566,43.9141215 50.5310302,53.6774806" id="Fill-1-Copy-2" fill="#0B6DD7"></path>
        <path d="M90.7026333,70.8490837 C82.3061444,79.0503054 68.6938556,79.0503054 60.2973667,70.8490837 C51.9008778,62.647862 51.9008778,49.352138 60.2973667,41.1509163 C68.6938556,32.9496946 82.3061444,32.9496946 90.7026333,41.1509163 C99.0991222,49.352138 99.0991222,62.647862 90.7026333,70.8490837" id="Fill-1-Copy-3" fill="#0B6DD7"></path>
        <path d="M55.460038,85.6064884 C49.4067553,91.4645039 39.5932447,91.4645039 33.539962,85.6064884 C27.4866793,79.7484729 27.4866793,70.2515271 33.539962,64.3935116 C39.5932447,58.5354961 49.4067553,58.5354961 55.460038,64.3935116 C61.5133207,70.2515271 61.5133207,79.7484729 55.460038,85.6064884" id="Fill-1-Copy-4" fill="#F2800B"></path>
    </g>
</svg>