<?xml version="1.0" encoding="UTF-8"?>
<svg width="100px" height="100px" viewBox="0 0 100 100" version="1.1" xmlns="http://www.w3.org/2000/svg" xmlns:xlink="http://www.w3.org/1999/xlink">
    <!-- Generator: Sketch 59 (86127) - https://sketch.com -->
    <title>icon/security</title>
    <desc>Created with Sketch.</desc>
    <g id="icon/security" stroke="none" stroke-width="1" fill="none" fill-rule="evenodd">
        <path d="M55.5687869,44.2565976 C58.7409556,47.3319323 58.8191744,52.3968518 55.7431647,55.5687056 C52.6678725,58.7409182 47.6030231,58.8191381 44.4312131,55.7434446 C41.2590444,52.6677511 41.1808256,47.6028316 44.2568353,44.4309778 C47.3324863,41.259124 52.3969769,41.180904 55.5687869,44.2565976" id="Fill-1" fill="#F2800B"></path>
        <path d="M60.4414754,39.2311204 C66.3892918,44.9973731 66.5359521,54.4940971 60.7684337,60.441323 C55.0022609,66.3892217 45.5056682,66.535884 39.5585246,60.7689586 C33.6107082,55.0020333 33.4640479,45.5053092 39.2315663,39.5580833 C44.9984119,33.6108574 54.4943318,33.4641951 60.4414754,39.2311204" id="Fill-1" stroke="#0B6DD7" stroke-width="4"></path>
        <path d="M67.402459,32.0518674 C77.3154863,41.6622884 77.5599201,57.4901619 67.9473896,67.402205 C58.3371015,77.3153694 42.509447,77.5598067 32.597541,67.9482644 C22.6845137,58.3367221 22.4400799,42.5088487 32.0526104,32.5968055 C41.6640198,22.6847624 57.490553,22.4403251 67.402459,32.0518674" id="Fill-1" stroke="#0B6DD7" stroke-width="4"></path>
        <path d="M77.8439344,21.2829879 C93.704778,36.6596615 94.0958722,61.984259 78.7158233,77.843528 C63.3393624,93.7045911 38.0151153,94.0956907 22.1560656,78.7172231 C6.295222,63.3387554 5.90412779,38.0141579 21.2841767,22.1548888 C36.6624316,6.2956198 61.9848847,5.90452018 77.8439344,21.2829879" id="Fill-1" stroke="#0B6DD7" stroke-width="4"></path>
    </g>
</svg>