<?xml version="1.0" encoding="UTF-8"?>
<svg width="100px" height="100px" viewBox="0 0 100 100" version="1.1" xmlns="http://www.w3.org/2000/svg" xmlns:xlink="http://www.w3.org/1999/xlink">
    <!-- Generator: Sketch 59 (86127) - https://sketch.com -->
    <title>icon/training</title>
    <desc>Created with Sketch.</desc>
    <g id="icon/training" stroke="none" stroke-width="1" fill="none" fill-rule="evenodd">
        <path d="M61.8336721,37.7952698 C68.5745307,44.3303561 68.7407457,55.0933101 62.2042249,61.8334994 C55.669229,68.5744512 44.906424,68.7406686 38.1663279,62.2048198 C31.4254693,55.668971 31.2592543,44.9060171 37.7957751,38.1658278 C44.3315334,31.4256384 55.093576,31.2594211 61.8336721,37.7952698" id="Fill-1" fill="#0B6DD7"></path>
        <path d="M50.5049022,69 C38.6305579,68.9976856 29.0022626,78.8433644 29,90.9907407 L72,91 C72.0022622,78.8526237 62.3784923,69.0023152 50.5049022,69" id="Fill-3" fill="#0B6DD7"></path>
        <path d="M55.8219,11.355 C55.8219,14.865 52.9769,17.709 49.4669,17.709 C45.9569,17.709 43.1119,14.865 43.1119,11.355 C43.1119,7.845 45.9569,5 49.4669,5 C52.9769,5 55.8219,7.845 55.8219,11.355" id="Fill-3" fill="#F2800B"></path>
        <line x1="49.4669" y1="13.8267" x2="49.4669" y2="25.1587" id="Stroke-5" stroke="#F2800B" stroke-width="4" stroke-linecap="round" stroke-linejoin="round"></line>
        <path d="M85.8941,41.7603 C82.6851,43.1803 78.9321,41.7303 77.5111,38.5203 C76.0911,35.3103 77.5411,31.5573 80.7511,30.1373 C83.9611,28.7163 87.7141,30.1673 89.1341,33.3773 C90.5551,36.5863 89.1041,40.3393 85.8941,41.7603" id="Fill-7" fill="#F2800B"></path>
        <line x1="81.0621" y1="36.9488" x2="70.7001" y2="41.5338" id="Stroke-9" stroke="#F2800B" stroke-width="4" stroke-linecap="round" stroke-linejoin="round"></line>
        <path d="M14.7853,41.7603 C17.9943,43.1803 21.7483,41.7303 23.1683,38.5203 C24.5883,35.3103 23.1383,31.5573 19.9283,30.1373 C16.7183,28.7163 12.9653,30.1673 11.5453,33.3773 C10.1253,36.5863 11.5753,40.3393 14.7853,41.7603" id="Fill-11" fill="#F2800B"></path>
        <line x1="19.6173" y1="36.9488" x2="29.9803" y2="41.5338" id="Stroke-13" stroke="#F2800B" stroke-width="4" stroke-linecap="round" stroke-linejoin="round"></line>
    </g>
</svg>