<?xml version="1.0" encoding="UTF-8"?>
<svg width="100px" height="100px" viewBox="0 0 100 100" version="1.1" xmlns="http://www.w3.org/2000/svg" xmlns:xlink="http://www.w3.org/1999/xlink">
    <!-- Generator: Sketch 59 (86127) - https://sketch.com -->
    <title>icon/train-the-model</title>
    <desc>Created with Sketch.</desc>
    <g id="icon/train-the-model" stroke="none" stroke-width="1" fill="none" fill-rule="evenodd">
        <polygon id="Fill-5" fill="#0B6DD7" style="mix-blend-mode: multiply;" points="14 28 28 28 28 14 14 14"></polygon>
        <polygon id="Fill-5-Copy-4" fill="#F2800B" style="mix-blend-mode: multiply;" points="14 48 28 48 28 34 14 34"></polygon>
        <polygon id="Fill-5-Copy" fill="#0B6DD7" style="mix-blend-mode: multiply;" points="34 28 48 28 48 14 34 14"></polygon>
        <polygon id="Fill-5-Copy-5" fill="#0B6DD7" style="mix-blend-mode: multiply;" points="34 48 48 48 48 34 34 34"></polygon>
        <polygon id="Fill-5-Copy-2" fill="#0B6DD7" style="mix-blend-mode: multiply;" points="54 28 68 28 68 14 54 14"></polygon>
        <polygon id="Fill-5-Copy-6" fill="#0B6DD7" style="mix-blend-mode: multiply;" points="54 48 68 48 68 34 54 34"></polygon>
        <polygon id="Fill-5-Copy-3" fill="#F2800B" style="mix-blend-mode: multiply;" points="74 28 88 28 88 14 74 14"></polygon>
        <polygon id="Fill-5-Copy-7" fill="#0B6DD7" style="mix-blend-mode: multiply;" points="74 48 88 48 88 34 74 34"></polygon>
        <polygon id="Fill-5-Copy-11" fill="#0B6DD7" style="mix-blend-mode: multiply;" points="14 68 28 68 28 54 14 54"></polygon>
        <polygon id="Fill-5-Copy-10" fill="#0B6DD7" style="mix-blend-mode: multiply;" points="34 68 48 68 48 54 34 54"></polygon>
        <polygon id="Fill-5-Copy-9" fill="#0B6DD7" style="mix-blend-mode: multiply;" points="54 68 68 68 68 54 54 54"></polygon>
        <polygon id="Fill-5-Copy-8" fill="#0B6DD7" style="mix-blend-mode: multiply;" points="74 68 88 68 88 54 74 54"></polygon>
        <polygon id="Fill-5-Copy-15" fill="#0B6DD7" style="mix-blend-mode: multiply;" points="14 88 28 88 28 74 14 74"></polygon>
        <polygon id="Fill-5-Copy-14" fill="#0B6DD7" style="mix-blend-mode: multiply;" points="34 88 48 88 48 74 34 74"></polygon>
        <polygon id="Fill-5-Copy-13" fill="#F2800B" style="mix-blend-mode: multiply;" points="54 88 68 88 68 74 54 74"></polygon>
        <polygon id="Fill-5-Copy-12" fill="#0B6DD7" style="mix-blend-mode: multiply;" points="74 88 88 88 88 74 74 74"></polygon>
    </g>
</svg>