<?xml version="1.0" encoding="UTF-8"?>
<svg width="100px" height="100px" viewBox="0 0 100 100" version="1.1" xmlns="http://www.w3.org/2000/svg" xmlns:xlink="http://www.w3.org/1999/xlink">
    <!-- Generator: Sketch 59 (86127) - https://sketch.com -->
    <title>icon/user-account-setting</title>
    <desc>Created with Sketch.</desc>
    <g id="icon/user-account-setting" stroke="none" stroke-width="1" fill="none" fill-rule="evenodd">
        <path d="M53.7700164,14.9235686 C61.8986987,22.9963223 62.0991345,36.291736 54.2168594,44.6178522 C46.3364232,52.9449103 33.3577466,53.1502376 25.2299836,45.0765421 C17.1013013,37.0028466 16.9008655,23.7074329 24.7831406,15.3813166 C32.6644962,7.05520039 45.6422534,6.84987309 53.7700164,14.9235686" id="Fill-1" fill="#0B6DD7"></path>
        <path d="M82.4661147,57.064606 C90.9913182,65.3295681 91.2015313,78.9415392 82.934755,87.4658963 C74.6699073,95.9912177 61.0581245,96.2014338 52.5338853,87.9355074 C44.0086818,79.669581 43.7984687,66.0576099 52.065245,57.5332528 C60.331057,49.0088956 73.9418755,48.7986796 82.4661147,57.064606" id="Fill-1" fill="#F2800B"></path>
        <path d="M40.5060422,53 C25.8702225,52.9970544 14.0027888,65.5279184 14,80.9882155 L67,81 C67.0027883,65.5397029 55.1409324,53.0029466 40.5060422,53" id="Fill-3" fill="#0B6DD7" style="mix-blend-mode: multiply;"></path>
    </g>
</svg>