<?xml version="1.0" encoding="UTF-8"?>
<svg width="100px" height="100px" viewBox="0 0 100 100" version="1.1" xmlns="http://www.w3.org/2000/svg" xmlns:xlink="http://www.w3.org/1999/xlink">
    <!-- Generator: Sketch 59 (86127) - https://sketch.com -->
    <title>icon/vm-migration</title>
    <desc>Created with Sketch.</desc>
    <g id="icon/vm-migration" stroke="none" stroke-width="1" fill="none" fill-rule="evenodd">
        <g id="Group-7" transform="translate(6.000000, 6.000000)">
            <path d="M86.99736,30.4971333 C86.99736,46.791766 73.790006,59.99912 57.4953733,59.99912 C41.204714,59.99912 27.99736,46.791766 27.99736,30.4971333 C27.99736,14.206474 41.204714,0.99912 57.4953733,0.99912 C73.790006,0.99912 86.99736,14.206474 86.99736,30.4971333" id="Fill-1" fill="#FFFFFF"></path>
            <path d="M59.99736,57.5011067 C59.99736,73.7957393 46.790006,86.99912 30.4993467,86.99912 C14.2086874,86.99912 0.99736,73.7957393 0.99736,57.5011067 C0.99736,41.206474 14.2086874,27.99912 30.4993467,27.99912 C46.790006,27.99912 59.99736,41.206474 59.99736,57.5011067" id="Fill-4" fill="#F2800B"></path>
            <path d="M86.99736,30.4971333 C86.99736,46.791766 73.790006,59.99912 57.4953733,59.99912 C41.204714,59.99912 27.99736,46.791766 27.99736,30.4971333 C27.99736,14.206474 41.204714,0.99912 57.4953733,0.99912 C73.790006,0.99912 86.99736,14.206474 86.99736,30.4971333" id="Fill-1" fill="#0B6DD7" style="mix-blend-mode: multiply;"></path>
        </g>
    </g>
</svg>