<?xml version="1.0" encoding="UTF-8"?>
<svg width="857px" height="508px" viewBox="0 0 857 508" version="1.1" xmlns="http://www.w3.org/2000/svg" xmlns:xlink="http://www.w3.org/1999/xlink">
    <!-- Generator: Sketch 59 (86127) - https://sketch.com -->
    <title>ai-journey-bg</title>
    <desc>Created with Sketch.</desc>
    <defs>
        <polygon id="path-1" points="0.467289447 0.398326145 427.860029 0.398326145 427.860029 508.010156 0.467289447 508.010156"></polygon>
        <polygon id="path-3" points="0 0.28374788 411.068471 0.28374788 411.068471 395.105954 0 395.105954"></polygon>
    </defs>
    <g id="product-page" stroke="none" stroke-width="1" fill="none" fill-rule="evenodd" opacity="0.2">
        <g id="AI-services-desktop" transform="translate(-853.000000, -2027.000000)">
            <g id="ai-jorney" transform="translate(20.000000, 1958.000000)">
                <g id="ai-journey-bg" transform="translate(833.000000, 69.000000)">
                    <path d="M573.976949,227.399289 C573.976949,202.715868 573.976949,177.98025 574,153.27363 C554.342938,141.488688 534.680113,129.761743 515,118 L515,229 C533.775347,227.642876 553.392069,227.062908 573.976949,227.399289" id="Fill-1" fill="#D3D3D3"></path>
                    <path d="M480.048052,97.1939559 C463.049321,85.4743627 446.027542,73.7137304 429,62 C429,122.339196 429,182.684255 429.023049,243 C447.543022,238.772973 467.180877,235.343277 488,232.974735 L488,112.09701 C488,109.247725 487.976951,106.275321 486.715011,103.713309 C485.343588,100.887474 482.635316,98.9820879 480.048052,97.1939559" id="Fill-3" fill="#D3D3D3"></path>
                    <g id="Group-7" transform="translate(429.000000, 0.000000)">
                        <mask id="mask-2" fill="white">
                            <use xlink:href="#path-1"></use>
                        </mask>
                        <g id="Clip-6"></g>
                        <path d="M427.033542,330.029952 C424.874199,312.099503 420.462388,294.32492 412.878497,277.866546 C401.686,253.655244 383.462543,233.294427 360.076452,220.091936 C344.728239,211.409581 327.558262,205.723331 310.073987,203.275645 C306.453741,202.7965 302.740369,202.346218 299.091022,202.323126 C284.12695,-15.6536402 72.4356846,-3.73272007 15.9610111,3.35055789 L15.9610111,40.6719858 C292.927291,6.32934471 260.240311,237.410464 260.240311,237.410464 C294.009873,235.384196 330.194872,240.879943 356.619175,263.428666 C372.788055,277.248852 383.648793,296.206867 388.974396,316.567683 C398.281106,352.128394 386.669545,395.170709 363.719979,423.573095 C341.154555,451.473244 307.868081,466.834778 272.614335,469.190098 C229.980409,471.972608 187.218436,470.950815 144.526307,469.952113 C144.555408,391.528045 144.57869,313.06934 144.601971,234.651045 C126.326131,236.169303 106.257629,238.576578 85.0308813,242.305835 L85.0308813,470.263846 L59.9918165,470.263846 C60.0150978,395.909633 60.0150978,321.590056 60.0383792,247.23007 C40.6624966,251.490428 20.6405573,256.888035 0.467289447,263.7404 L0.467289447,506.678938 C77.6681623,507.12922 154.863215,507.55641 232.064088,507.966282 C257.027488,508.10483 282.159678,508.22606 306.715656,503.63665 C361.921497,493.262852 397.338212,454.798401 415.806123,403.518239 C424.373651,379.826493 430.077575,355.147591 427.033542,330.029952" id="Fill-5" fill="#D3D3D3" mask="url(#mask-2)"></path>
                    </g>
                    <path d="M410,242.720774 L410,6 L354,50.326086 L354,262 C371.329415,254.711231 389.935556,248.206077 410,242.720774" id="Fill-8" fill="#D3D3D3"></path>
                    <path d="M328,276.457076 L328,72 L269,111.814046 L269,311 C286.465174,298.750859 306.03791,287.039825 328,276.457076" id="Fill-10" fill="#D3D3D3"></path>
                    <g id="Group-14" transform="translate(0.000000, 111.000000)">
                        <mask id="mask-4" fill="white">
                            <use xlink:href="#path-3"></use>
                        </mask>
                        <g id="Clip-13"></g>
                        <path d="M354.013206,186.184071 L354.013206,357.373859 L328.90519,357.373859 L328.90519,201.648694 C308.537807,215.222295 288.979801,230.976953 270.803516,249.35352 L270.803516,358.446985 L232.051724,358.446985 L160.306274,358.446985 C142.413272,358.446985 124.930738,360.430819 107.708362,354.386506 C96.510059,350.465244 85.768476,345.041604 76.1484577,338.086584 C48.248092,317.935008 31.858217,282.730656 37.7435407,248.373204 C41.2238599,228.059209 49.9882516,207.88443 65.7595316,194.189015 C87.6242608,175.23818 117.975881,173.753205 145.199839,178.846205 C145.199839,178.846205 147.818751,55.9471121 246.724564,37.0426828 L246.724564,0.28374788 C246.724564,0.28374788 139.962017,7.09375097 113.281497,139.430557 C113.252591,139.552371 104.968044,139.912014 104.465074,139.958419 C96.9899037,140.770515 89.555202,142.301896 82.334407,144.500355 C59.9956144,151.24075 39.9346386,164.530117 25.8572681,183.289529 C2.489411,214.462405 -5.41935408,255.687867 3.68035077,293.369111 C10.1148943,319.994251 23.8338267,344.803776 44.5596475,362.89611 C53.4165393,370.61682 63.354527,376.997573 73.9515785,382.067371 C79.9583087,384.932909 86.1731643,387.369196 92.5325514,389.399435 C105.875702,393.703543 118.236038,394.968092 132.192002,395.089906 C147.246406,395.20592 162.300809,394.654855 177.332088,394.654855 L250.106602,394.654855 L325.783309,394.654855 L385.671392,394.654855 L411.068471,394.654855 L411.068471,159.152883 C391.886247,166.658968 372.732929,175.597822 354.013206,186.184071" id="Fill-12" fill="#D3D3D3" mask="url(#mask-4)"></path>
                    </g>
                </g>
            </g>
        </g>
    </g>
</svg>